<svg width="71" height="15" viewBox="0 0 71 15" fill="none" xmlns="http://www.w3.org/2000/svg">
<path d="M5.88514 2.6468C6.15525 2.09951 6.93569 2.0995 7.2058 2.6468L8.49198 5.25283L11.3679 5.67073C11.9719 5.75849 12.213 6.50074 11.776 6.92674L9.69492 8.95523L10.1862 11.8196C10.2894 12.4211 9.658 12.8798 9.11778 12.5958L6.54547 11.2435L3.97317 12.5958C3.43296 12.8798 2.80157 12.4211 2.90475 11.8196L3.39602 8.95523L1.31498 6.92674C0.87793 6.50074 1.1191 5.75849 1.72308 5.67073L4.599 5.25283L5.88514 2.6468Z" fill="#EFC73A"/>
<path d="M20.6127 2.6468C20.8828 2.09951 21.6632 2.0995 21.9333 2.6468L23.2195 5.25283L26.0954 5.67073C26.6994 5.75849 26.9406 6.50074 26.5035 6.92674L24.4225 8.95523L24.9138 11.8196C25.0169 12.4211 24.3855 12.8798 23.8453 12.5958L21.273 11.2435L18.7007 12.5958C18.1605 12.8798 17.5291 12.4211 17.6323 11.8196L18.1236 8.95523L16.0425 6.92674C15.6055 6.50074 15.8466 5.75849 16.4506 5.67073L19.3265 5.25283L20.6127 2.6468Z" fill="#EFC73A"/>
<path d="M35.3392 2.6468C35.6094 2.09951 36.3898 2.0995 36.6599 2.6468L37.9461 5.25283L40.822 5.67073C41.426 5.75849 41.6671 6.50074 41.2301 6.92674L39.149 8.95523L39.6403 11.8196C39.7435 12.4211 39.1121 12.8798 38.5719 12.5958L35.9996 11.2435L33.4273 12.5958C32.8871 12.8798 32.2557 12.4211 32.3588 11.8196L32.8501 8.95523L30.7691 6.92674C30.332 6.50074 30.5732 5.75849 31.1772 5.67073L34.0531 5.25283L35.3392 2.6468Z" fill="#EFC73A"/>
<path d="M50.0668 2.6468C50.3369 2.09951 51.1173 2.0995 51.3874 2.6468L52.6736 5.25283L55.5495 5.67073C56.1535 5.75849 56.3947 6.50074 55.9576 6.92674L53.8766 8.95523L54.3679 11.8196C54.471 12.4211 53.8396 12.8798 53.2994 12.5958L50.7271 11.2435L48.1548 12.5958C47.6146 12.8798 46.9832 12.4211 47.0864 11.8196L47.5777 8.95523L45.4966 6.92674C45.0596 6.50074 45.3007 5.75849 45.9047 5.67073L48.7806 5.25283L50.0668 2.6468Z" fill="#EFC73A"/>
<g clip-path="url(#clip0_1120_43556)">
<path d="M64.6107 2.6468C64.8808 2.09951 65.6613 2.0995 65.9314 2.6468L67.2176 5.25283L70.0935 5.67073C70.6975 5.75849 70.9386 6.50074 70.5016 6.92674L68.4205 8.95523L68.9118 11.8196C69.0149 12.4211 68.3836 12.8798 67.8434 12.5958L65.2711 11.2435L62.6988 12.5958C62.1585 12.8798 61.5272 12.4211 61.6303 11.8196L62.1216 8.95523L60.0406 6.92674C59.6035 6.50074 59.8447 5.75849 60.4487 5.67073L63.3246 5.25283L64.6107 2.6468Z" fill="#EFC73A"/>
<path fill-rule="evenodd" clip-rule="evenodd" d="M65.001 11.3865L65.273 11.2435L67.8453 12.5958C68.3855 12.8798 69.0169 12.4211 68.9138 11.8196L68.4225 8.95523L70.5035 6.92674C70.9406 6.50074 70.6994 5.75849 70.0954 5.67073L67.2195 5.25283L65.9333 2.6468C65.7507 2.27673 65.3347 2.1569 65.001 2.28729V11.3865Z" fill="#E8E8FC"/>
</g>
<defs>
<clipPath id="clip0_1120_43556">
<rect width="12" height="13" fill="white" transform="translate(58.9092 1)"/>
</clipPath>
</defs>
</svg>
