<svg width="16" height="16" viewBox="0 0 16 16" fill="none" xmlns="http://www.w3.org/2000/svg">
<path d="M7.204 15.076C7.01733 15.076 6.85867 15.02 6.728 14.908C6.616 14.7773 6.56 14.6187 6.56 14.432V8.608H0.82C0.633333 8.608 0.474667 8.552 0.344 8.44C0.232 8.30933 0.176 8.15067 0.176 7.964V7.068C0.176 6.88133 0.232 6.732 0.344 6.62C0.474667 6.48933 0.633333 6.424 0.82 6.424H6.56V0.767999C6.56 0.581333 6.616 0.432 6.728 0.32C6.85867 0.189333 7.01733 0.123999 7.204 0.123999H8.184C8.37067 0.123999 8.52 0.189333 8.632 0.32C8.76267 0.432 8.828 0.581333 8.828 0.767999V6.424H14.596C14.7827 6.424 14.932 6.48933 15.044 6.62C15.1747 6.732 15.24 6.88133 15.24 7.068V7.964C15.24 8.15067 15.1747 8.30933 15.044 8.44C14.932 8.552 14.7827 8.608 14.596 8.608H8.828V14.432C8.828 14.6187 8.76267 14.7773 8.632 14.908C8.52 15.02 8.37067 15.076 8.184 15.076H7.204Z" fill="black"/>
</svg>
