<svg width="20" height="20" viewBox="0 0 20 20" fill="none" xmlns="http://www.w3.org/2000/svg">
<path fill-rule="evenodd" clip-rule="evenodd" d="M6.875 1.25C7.22019 1.25 7.5 1.52983 7.5 1.875V2.5H10.625C10.9702 2.5 11.25 2.77982 11.25 3.125C11.25 3.47018 10.9702 3.75 10.625 3.75H7.5V4.375C7.5 4.72018 7.22019 5 6.875 5C6.52981 5 6.25 4.72018 6.25 4.375V3.75H5C3.61929 3.75 2.5 4.86929 2.5 6.25V15C2.5 16.3807 3.61929 17.5 5 17.5H8.125C8.47019 17.5 8.75 17.7798 8.75 18.125C8.75 18.4702 8.47019 18.75 8.125 18.75H5C2.92893 18.75 1.25 17.0711 1.25 15V6.25C1.25 4.17893 2.92893 2.5 5 2.5H6.25V1.875C6.25 1.52983 6.52981 1.25 6.875 1.25ZM13.125 1.25C13.4702 1.25 13.75 1.52983 13.75 1.875V2.5H15C17.0711 2.5 18.75 4.17893 18.75 6.25V7.5C18.75 7.84519 18.4702 8.125 18.125 8.125C17.7798 8.125 17.5 7.84519 17.5 7.5V6.25C17.5 4.86929 16.3807 3.75 15 3.75H13.75V4.375C13.75 4.72018 13.4702 5 13.125 5C12.7798 5 12.5 4.72018 12.5 4.375V1.875C12.5 1.52983 12.7798 1.25 13.125 1.25Z" fill="#F04B55"/>
<circle cx="10" cy="11" r="4" fill="#F04B55"/>
<path d="M7.48093 12.724L11.7236 8.48139L12.5191 9.27688L8.27643 13.5195L7.48093 12.724ZM7.49122 9.26659L8.25645 8.50136L12.4991 12.744L11.7339 13.5092L7.49122 9.26659Z" fill="white"/>
</svg>
