<svg width="16" height="17" viewBox="0 0 16 17" fill="none" xmlns="http://www.w3.org/2000/svg">
<g clip-path="url(#clip0_1120_44056)">
<path d="M14.5 2.5H13V2C13 1.2 12.3 0.5 11.5 0.5H10.5C9.7 0.5 9 1.2 9 2V2.5H7V2C7 1.2 6.3 0.5 5.5 0.5H4.5C3.7 0.5 3 1.2 3 2V2.5H1.5C0.7 2.5 0 3.2 0 4V6C0 6.3 0.2 6.5 0.5 6.5H15V15C15 15.3 14.8 15.5 14.5 15.5H1.5C1.2 15.5 1 15.3 1 15V8C1 7.7 0.8 7.5 0.5 7.5C0.2 7.5 0 7.7 0 8V15C0 15.8 0.7 16.5 1.5 16.5H14.5C15.3 16.5 16 15.8 16 15V4C16 3.2 15.3 2.5 14.5 2.5ZM10 2C10 1.7 10.2 1.5 10.5 1.5H11.5C11.8 1.5 12 1.7 12 2V2.5H10V2ZM4 2C4 1.7 4.2 1.5 4.5 1.5H5.5C5.8 1.5 6 1.7 6 2V2.5H4V2ZM15 5.5H1V4C1 3.7 1.2 3.5 1.5 3.5H14.5C14.8 3.5 15 3.7 15 4V5.5Z" fill="#6B7A8B"/>
</g>
<defs>
<clipPath id="clip0_1120_44056">
<rect width="16" height="16" fill="white" transform="translate(0 0.5)"/>
</clipPath>
</defs>
</svg>
