<svg width="20" height="20" viewBox="0 0 20 20" fill="none" xmlns="http://www.w3.org/2000/svg">
<path d="M13.1594 1.66776C13.475 1.6875 13.7185 1.95802 13.7101 2.27956V3.14197C16.2174 3.38521 17.5 4.77096 17.5 7.26237V14.1543C17.5 16.9258 15.9203 18.3337 12.8116 18.3337H7.18841C4.07971 18.3337 2.5 16.9258 2.5 14.1543V7.26237C2.5 5.60389 3.06522 4.41715 4.22464 3.72428L4.30596 3.67793C4.47404 3.59948 4.67116 3.60667 4.83501 3.70179C5.02617 3.81277 5.13906 4.02429 5.12641 4.24781C5.11377 4.47133 4.97777 4.66828 4.77536 4.75622C4.00725 5.21323 3.64493 6.0093 3.64493 7.26237V7.4835H14.2174C14.5336 7.4835 14.7899 7.74421 14.7899 8.06581C14.7899 8.38742 14.5336 8.64812 14.2174 8.64812H3.64493V14.1543C3.64493 16.2698 4.67391 17.1469 7.18841 17.1617H12.8116C15.2899 17.1617 16.3478 16.2624 16.3478 14.1469V7.255C16.3478 5.41224 15.5435 4.52035 13.7101 4.30659V4.86679C13.6679 5.16538 13.4109 5.38336 13.1145 5.37198C12.8181 5.36061 12.578 5.12354 12.558 4.82256V2.22796L12.5686 2.13579C12.5922 2.01501 12.653 1.90407 12.7435 1.81984C12.8565 1.71454 13.0063 1.65976 13.1594 1.66776ZM13.4892 13.4978L13.5814 13.5038C13.7397 13.5236 13.888 13.5962 14.0026 13.7115C14.1401 13.85 14.2174 14.0386 14.2174 14.2354C14.2174 14.6425 13.893 14.9725 13.4928 14.9725C13.0925 14.9725 12.7681 14.6425 12.7681 14.2354C12.7681 13.8283 13.0925 13.4983 13.4928 13.4983L13.4892 13.4978ZM10.0145 13.4983L10.1054 13.504C10.4627 13.5495 10.7391 13.8596 10.7391 14.2354C10.7391 14.6425 10.4147 14.9725 10.0145 14.9725C9.61429 14.9725 9.28986 14.6425 9.28986 14.2354C9.28986 13.8283 9.61429 13.4983 10.0145 13.4983ZM6.54 13.4978L6.63215 13.5038C6.79038 13.5236 6.93876 13.5962 7.05332 13.7115C7.19079 13.85 7.26812 14.0386 7.26812 14.2354C7.26812 14.6425 6.94368 14.9725 6.54348 14.9725C6.14327 14.9725 5.81884 14.6425 5.81884 14.2354C5.81884 13.8283 6.14327 13.4983 6.54348 13.4983L6.54 13.4978ZM13.4892 10.5128L13.5814 10.5185C13.7397 10.5383 13.888 10.6109 14.0026 10.7263C14.1401 10.8647 14.2174 11.0533 14.2174 11.2501C14.2174 11.6572 13.893 11.9872 13.4928 11.9872C13.0925 11.9872 12.7681 11.6572 12.7681 11.2501C12.7681 10.843 13.0925 10.513 13.4928 10.513L13.4892 10.5128ZM10.0145 10.513L10.1054 10.5187C10.4627 10.5642 10.7391 10.8743 10.7391 11.2501C10.7391 11.6572 10.4147 11.9872 10.0145 11.9872C9.61429 11.9872 9.28986 11.6572 9.28986 11.2501C9.28986 10.843 9.61429 10.513 10.0145 10.513ZM6.54 10.5128L6.63215 10.5185C6.79038 10.5383 6.93876 10.6109 7.05332 10.7263C7.19079 10.8647 7.26812 11.0533 7.26812 11.2501C7.26812 11.6572 6.94368 11.9872 6.54348 11.9872C6.14327 11.9872 5.81884 11.6572 5.81884 11.2501C5.81884 10.843 6.14327 10.513 6.54348 10.513L6.54 10.5128ZM6.86594 1.7557C7.16107 1.7557 7.40908 1.98123 7.44203 2.27956V3.083H10.7174C11.0336 3.083 11.2899 3.34371 11.2899 3.66531C11.2899 3.98691 11.0336 4.24762 10.7174 4.24762H7.42754V4.82993C7.42755 4.98566 7.36624 5.1349 7.25731 5.24432C7.14838 5.35374 7.0009 5.41421 6.84783 5.41224L6.76412 5.40388C6.49137 5.35595 6.28615 5.11237 6.28981 4.82256V2.27956L6.30599 2.19239C6.37287 1.93838 6.60033 1.7557 6.86594 1.7557Z" fill="#6B7A8B"/>
</svg>
