<svg width="281" height="40" viewBox="0 0 281 40" fill="none" xmlns="http://www.w3.org/2000/svg">
<g clip-path="url(#clip0_1120_42656)">
<path d="M33.1174 37.3891C31.7846 38.3385 23.2323 32.3204 21.5944 32.3072C19.9564 32.2941 11.3079 38.1737 9.9906 37.203C8.67329 36.2323 11.7702 26.2621 11.2767 24.7047C10.7832 23.1474 2.50273 16.7623 3.02142 15.213C3.54023 13.6638 14.0065 13.5199 15.3393 12.5705C16.6722 11.6213 20.2032 1.79549 21.8413 1.80861C23.4791 1.82183 26.8506 11.7031 28.1679 12.6738C29.4852 13.6444 39.9479 13.9568 40.4416 15.5142C40.9351 17.0715 32.5525 23.3225 32.0337 24.8718C31.515 26.421 34.4503 36.4397 33.1174 37.3891Z" fill="#C5C6E0"/>
</g>
<g clip-path="url(#clip1_1120_42656)">
<path d="M93.1174 37.3891C91.7846 38.3385 83.2323 32.3204 81.5944 32.3072C79.9564 32.2941 71.3079 38.1737 69.9906 37.203C68.6733 36.2323 71.7702 26.2621 71.2767 24.7047C70.7832 23.1474 62.5027 16.7623 63.0214 15.213C63.5402 13.6638 74.0065 13.5199 75.3393 12.5705C76.6722 11.6213 80.2032 1.79549 81.8413 1.80861C83.4791 1.82183 86.8506 11.7031 88.1679 12.6738C89.4852 13.6444 99.9479 13.9568 100.442 15.5142C100.935 17.0715 92.5525 23.3225 92.0337 24.8718C91.515 26.421 94.4503 36.4397 93.1174 37.3891Z" fill="#C5C6E0"/>
</g>
<g clip-path="url(#clip2_1120_42656)">
<path d="M153.117 37.3891C151.785 38.3385 143.232 32.3204 141.594 32.3072C139.956 32.2941 131.308 38.1737 129.991 37.203C128.673 36.2323 131.77 26.2621 131.277 24.7047C130.783 23.1474 122.503 16.7623 123.021 15.213C123.54 13.6638 134.006 13.5199 135.339 12.5705C136.672 11.6213 140.203 1.79549 141.841 1.80861C143.479 1.82183 146.851 11.7031 148.168 12.6738C149.485 13.6444 159.948 13.9568 160.442 15.5142C160.935 17.0715 152.553 23.3225 152.034 24.8718C151.515 26.421 154.45 36.4397 153.117 37.3891Z" fill="#C5C6E0"/>
</g>
<g clip-path="url(#clip3_1120_42656)">
<path d="M213.117 37.3891C211.785 38.3385 203.232 32.3204 201.594 32.3072C199.956 32.2941 191.308 38.1737 189.991 37.203C188.673 36.2323 191.77 26.2621 191.277 24.7047C190.783 23.1474 182.503 16.7623 183.021 15.213C183.54 13.6638 194.006 13.5199 195.339 12.5705C196.672 11.6213 200.203 1.79549 201.841 1.80861C203.479 1.82183 206.851 11.7031 208.168 12.6738C209.485 13.6444 219.948 13.9568 220.442 15.5142C220.935 17.0715 212.553 23.3225 212.034 24.8718C211.515 26.421 214.45 36.4397 213.117 37.3891Z" fill="#C5C6E0"/>
</g>
<g clip-path="url(#clip4_1120_42656)">
<path d="M273.117 37.3891C271.785 38.3385 263.232 32.3204 261.594 32.3072C259.956 32.2941 251.308 38.1737 249.991 37.203C248.673 36.2323 251.77 26.2621 251.277 24.7047C250.783 23.1474 242.503 16.7623 243.021 15.213C243.54 13.6638 254.006 13.5199 255.339 12.5705C256.672 11.6213 260.203 1.79549 261.841 1.80861C263.479 1.82183 266.851 11.7031 268.168 12.6738C269.485 13.6444 279.948 13.9568 280.442 15.5142C280.935 17.0715 272.553 23.3225 272.034 24.8718C271.515 26.421 274.45 36.4397 273.117 37.3891Z" fill="#C5C6E0"/>
</g>
<defs>
<clipPath id="clip0_1120_42656">
<rect width="40" height="40" fill="white" transform="translate(0.5)"/>
</clipPath>
<clipPath id="clip1_1120_42656">
<rect width="40" height="40" fill="white" transform="translate(60.5)"/>
</clipPath>
<clipPath id="clip2_1120_42656">
<rect width="40" height="40" fill="white" transform="translate(120.5)"/>
</clipPath>
<clipPath id="clip3_1120_42656">
<rect width="40" height="40" fill="white" transform="translate(180.5)"/>
</clipPath>
<clipPath id="clip4_1120_42656">
<rect width="40" height="40" fill="white" transform="translate(240.5)"/>
</clipPath>
</defs>
</svg>
