<svg width="28" height="28" viewBox="0 0 28 28" fill="none" xmlns="http://www.w3.org/2000/svg">
<path d="M14.0076 2.33301C15.8949 2.33301 17.7751 2.79859 19.4457 3.67938C25.1334 6.68045 27.3208 13.7494 24.3218 19.4391C22.2762 23.3189 18.2487 25.6663 13.9942 25.6663C13.163 25.6663 12.3236 25.5769 11.4883 25.3919C11.0178 25.2871 10.7208 24.8205 10.8246 24.3498C10.9284 23.8791 11.3938 23.5841 11.8674 23.6858C16.2124 24.6519 20.6981 22.5666 22.7765 18.6241C25.3266 13.7874 23.467 7.77605 18.6309 5.22514C17.211 4.4759 15.6124 4.08021 14.0065 4.08021C8.52834 4.08021 4.07963 8.5294 4.07963 13.9981C4.07757 15.5912 4.46594 17.177 5.20259 18.5861L5.42657 19.0239C5.70089 19.5378 5.76151 20.176 5.58377 20.7536C5.33821 21.4011 5.13376 22.0311 4.96526 22.6581C5.62075 22.4607 6.42111 22.1699 6.99955 21.9592L7.23688 21.8739C7.68586 21.7064 8.19032 21.9438 8.35471 22.3981C8.51909 22.8513 8.28382 23.3528 7.83072 23.5163L7.59647 23.6016C6.73139 23.915 5.54781 24.3457 4.74848 24.5245C4.68067 24.5389 4.60772 24.5481 4.54094 24.5461C4.00463 24.5461 3.67791 24.3292 3.49811 24.1463C3.22174 23.8657 3.09023 23.4721 3.10564 22.9767C3.10769 22.9202 3.11489 22.8616 3.12824 22.805C3.33578 21.9212 3.60599 21.0393 3.93271 20.1853C3.95634 20.102 3.94196 19.9509 3.87517 19.8245L3.65017 19.3877C2.78817 17.7371 2.33097 15.8697 2.33301 13.9971C2.33301 7.56536 7.56462 2.33301 13.9942 2.33301H14.0076ZM13.9946 12.6108C14.76 12.6108 15.3816 13.2336 15.3816 13.9982C15.3816 14.7629 14.76 15.3857 13.9946 15.3857C13.2292 15.3857 12.6076 14.7629 12.6076 13.9982C12.6076 13.2336 13.2292 12.6108 13.9946 12.6108ZM19.1317 12.6108C19.8971 12.6108 20.5187 13.2336 20.5187 13.9982C20.5187 14.7629 19.8971 15.3857 19.1317 15.3857C18.3663 15.3857 17.7447 14.7629 17.7447 13.9982C17.7447 13.2336 18.3663 12.6108 19.1317 12.6108ZM8.85742 12.6112C9.62285 12.6112 10.2444 13.233 10.2444 13.9986C10.2444 14.7633 9.62285 15.3851 8.85742 15.3851C8.092 15.3851 7.47041 14.7633 7.47041 13.9986C7.47041 13.233 8.092 12.6112 8.85742 12.6112Z" fill="#378CE7"/>
</svg>
