<svg width="20" height="20" viewBox="0 0 20 20" fill="none" xmlns="http://www.w3.org/2000/svg">
<path fill-rule="evenodd" clip-rule="evenodd" d="M6.875 1.25C7.22019 1.25 7.5 1.52983 7.5 1.875V2.5H10.625C10.9702 2.5 11.25 2.77982 11.25 3.125C11.25 3.47018 10.9702 3.75 10.625 3.75H7.5V4.375C7.5 4.72018 7.22019 5 6.875 5C6.52981 5 6.25 4.72018 6.25 4.375V3.75H5C3.61929 3.75 2.5 4.86929 2.5 6.25V15C2.5 16.3807 3.61929 17.5 5 17.5H8.125C8.47019 17.5 8.75 17.7798 8.75 18.125C8.75 18.4702 8.47019 18.75 8.125 18.75H5C2.92893 18.75 1.25 17.0711 1.25 15V6.25C1.25 4.17893 2.92893 2.5 5 2.5H6.25V1.875C6.25 1.52983 6.52981 1.25 6.875 1.25ZM13.125 1.25C13.4702 1.25 13.75 1.52983 13.75 1.875V2.5H15C17.0711 2.5 18.75 4.17893 18.75 6.25V7.5C18.75 7.84519 18.4702 8.125 18.125 8.125C17.7798 8.125 17.5 7.84519 17.5 7.5V6.25C17.5 4.86929 16.3807 3.75 15 3.75H13.75V4.375C13.75 4.72018 13.4702 5 13.125 5C12.7798 5 12.5 4.72018 12.5 4.375V1.875C12.5 1.52983 12.7798 1.25 13.125 1.25ZM5 6.875C4.65482 6.875 4.375 7.15481 4.375 7.5C4.375 7.84519 4.65482 8.125 5 8.125H15C15.3452 8.125 15.625 7.84519 15.625 7.5C15.625 7.15481 15.3452 6.875 15 6.875H5ZM18.1766 14.3836C18.517 14.4408 18.7466 14.763 18.6896 15.1034C18.3423 17.1731 16.5434 18.75 14.375 18.75C13.4452 18.75 12.5834 18.4598 11.875 17.9657V18.125C11.875 18.4702 11.5952 18.75 11.25 18.75C10.9048 18.75 10.625 18.4702 10.625 18.125V16.25C10.625 15.9048 10.9048 15.625 11.25 15.625H13.125C13.4702 15.625 13.75 15.9048 13.75 16.25C13.75 16.5952 13.4702 16.875 13.125 16.875H12.4995C13.0222 17.2677 13.6715 17.5 14.375 17.5C15.9228 17.5 17.2089 16.3741 17.4567 14.8966C17.5139 14.5562 17.8361 14.3265 18.1766 14.3836ZM11.2932 13.8534C11.5411 12.3759 12.8272 11.25 14.375 11.25C15.0784 11.25 15.7278 11.4823 16.2504 11.875H15.625C15.2798 11.875 15 12.1548 15 12.5C15 12.8452 15.2798 13.125 15.625 13.125H17.5C17.8451 13.125 18.125 12.8452 18.125 12.5V10.625C18.125 10.2798 17.8451 10 17.5 10C17.1548 10 16.875 10.2798 16.875 10.625V10.7843C16.1666 10.2902 15.3047 10 14.375 10C12.2066 10 10.4077 11.5769 10.0604 13.6466C10.0033 13.987 10.233 14.3092 10.5734 14.3664C10.9138 14.4235 11.2361 14.1938 11.2932 13.8534ZM5.3125 11.875C5.83027 11.875 6.25 11.4552 6.25 10.9375C6.25 10.4198 5.83027 10 5.3125 10C4.79473 10 4.375 10.4198 4.375 10.9375C4.375 11.4552 4.79473 11.875 5.3125 11.875ZM6.25 14.6875C6.25 15.2052 5.83027 15.625 5.3125 15.625C4.79473 15.625 4.375 15.2052 4.375 14.6875C4.375 14.1698 4.79473 13.75 5.3125 13.75C5.83027 13.75 6.25 14.1698 6.25 14.6875Z" fill="#EB7F00"/>
</svg>
