<svg width="28" height="28" viewBox="0 0 28 28" fill="none" xmlns="http://www.w3.org/2000/svg">
<g opacity="0.5" filter="url(#filter0_d_1120_44232)">
<path d="M9.99978 9.14995C10.4798 8.96995 11.4298 9.07995 11.6798 9.61995C11.9298 10.16 12.0798 10.86 12.0898 10.69C12.0706 10.1732 12.1143 9.65613 12.2198 9.14995C12.3309 8.82577 12.5856 8.5711 12.9098 8.45995C13.2071 8.36592 13.5228 8.34533 13.8298 8.39995C14.1402 8.46385 14.4151 8.64238 14.5998 8.89995C14.8337 9.48308 14.9657 10.1021 14.9898 10.73C15.0147 10.1942 15.1053 9.66355 15.2598 9.14995C15.4269 8.9145 15.6709 8.74474 15.9498 8.66995C16.2804 8.60951 16.6192 8.60951 16.9498 8.66995C17.2212 8.76001 17.4585 8.93101 17.6298 9.15995C17.8422 9.6901 17.9704 10.2502 18.0098 10.82C18.0098 10.96 18.0798 10.43 18.2998 10.08C18.4765 9.55528 19.0451 9.27322 19.5698 9.44995C20.0945 9.62668 20.3765 10.1953 20.1998 10.72C20.1998 11.37 20.1998 11.34 20.1998 11.78C20.1998 12.22 20.1998 12.61 20.1998 12.98C20.1638 13.5652 20.0835 14.1468 19.9598 14.72C19.7862 15.2273 19.544 15.7084 19.2398 16.15C18.7544 16.69 18.3532 17.3002 18.0498 17.96C17.9758 18.288 17.9422 18.6238 17.9498 18.96C17.9488 19.2706 17.9891 19.58 18.0698 19.88C17.6609 19.9236 17.2486 19.9236 16.8398 19.88C16.4498 19.82 15.9698 19.04 15.8398 18.8C15.7755 18.6711 15.6438 18.5897 15.4998 18.5897C15.3558 18.5897 15.2241 18.6711 15.1598 18.8C14.9398 19.18 14.4498 19.87 14.1598 19.91C13.4898 19.99 12.0998 19.91 11.0198 19.91C11.0198 19.91 11.2098 18.91 10.7898 18.55C10.3698 18.19 9.95978 17.7699 9.64978 17.49L8.81978 16.57C8.23447 16.0266 7.80616 15.3358 7.57978 14.57C7.36978 13.63 7.38978 13.18 7.57978 12.8C7.77357 12.4862 8.07617 12.2548 8.42978 12.15C8.72355 12.0967 9.02596 12.1173 9.30978 12.21C9.50605 12.2921 9.67567 12.4271 9.79978 12.6C10.0298 12.91 10.1098 13.06 10.0098 12.72C9.90978 12.38 9.68978 12.13 9.57978 11.72C9.36563 11.2357 9.23706 10.7181 9.19978 10.19C9.24076 9.71612 9.5716 9.31751 10.0298 9.18995" fill="white"/>
<path fill-rule="evenodd" clip-rule="evenodd" d="M9.99978 9.14995C10.4798 8.96995 11.4298 9.07995 11.6798 9.61995C11.9298 10.16 12.0798 10.86 12.0898 10.69C12.0706 10.1732 12.1143 9.65613 12.2198 9.14995C12.3309 8.82577 12.5856 8.5711 12.9098 8.45995C13.2071 8.36592 13.5228 8.34533 13.8298 8.39995C14.1402 8.46385 14.4151 8.64238 14.5998 8.89995C14.8337 9.48308 14.9657 10.1021 14.9898 10.73C15.0147 10.1942 15.1053 9.66355 15.2598 9.14995C15.4269 8.9145 15.6709 8.74474 15.9498 8.66995C16.2804 8.60951 16.6192 8.60951 16.9498 8.66995C17.2212 8.76001 17.4585 8.93101 17.6298 9.15995C17.8422 9.6901 17.9704 10.2502 18.0098 10.82C18.0098 10.96 18.0798 10.43 18.2998 10.08C18.4765 9.55528 19.0451 9.27322 19.5698 9.44995C20.0945 9.62668 20.3765 10.1953 20.1998 10.72C20.1998 11.37 20.1998 11.34 20.1998 11.78C20.1998 12.22 20.1998 12.61 20.1998 12.98C20.1638 13.5652 20.0835 14.1468 19.9598 14.72C19.7862 15.2273 19.544 15.7084 19.2398 16.15C18.7544 16.69 18.3532 17.3002 18.0498 17.96C17.9758 18.288 17.9422 18.6238 17.9498 18.96C17.9488 19.2706 17.9891 19.58 18.0698 19.88C17.6609 19.9236 17.2486 19.9236 16.8398 19.88C16.4498 19.82 15.9698 19.04 15.8398 18.8C15.7755 18.6711 15.6438 18.5897 15.4998 18.5897C15.3558 18.5897 15.2241 18.6711 15.1598 18.8C14.9398 19.18 14.4498 19.87 14.1598 19.91C13.4898 19.99 12.0998 19.91 11.0198 19.91C11.0198 19.91 11.2098 18.91 10.7898 18.55C10.3698 18.19 9.95978 17.77 9.64978 17.49L8.81978 16.57C8.23447 16.0266 7.80616 15.3358 7.57978 14.57C7.36978 13.63 7.38978 13.18 7.57978 12.8C7.77357 12.4862 8.07617 12.2548 8.42978 12.15C8.72355 12.0967 9.02596 12.1173 9.30978 12.21C9.50605 12.2921 9.67567 12.4271 9.79978 12.6C10.0298 12.91 10.1098 13.06 10.0098 12.72C9.90978 12.38 9.68978 12.13 9.57978 11.72C9.36563 11.2357 9.23706 10.7181 9.19978 10.19C9.22023 9.70919 9.54035 9.29303 9.99978 9.14995Z" stroke="black" stroke-width="0.75" stroke-linejoin="round"/>
<path d="M17.75 16.8259V13.3741C17.75 13.1675 17.5821 13 17.375 13C17.1679 13 17 13.1675 17 13.3741V16.8259C17 17.0325 17.1679 17.2 17.375 17.2C17.5821 17.2 17.75 17.0325 17.75 16.8259Z" fill="black"/>
<path d="M15.77 16.8246L15.75 13.3711C15.7488 13.165 15.5799 12.9988 15.3728 13C15.1657 13.0012 14.9988 13.1693 15 13.3754L15.02 16.8289C15.0212 17.035 15.1901 17.2012 15.3972 17.2C15.6043 17.1988 15.7712 17.0307 15.77 16.8246Z" fill="black"/>
<path d="M13 13.3799L13.02 16.8245C13.0212 17.0331 13.1901 17.2012 13.3972 17.2C13.6043 17.1988 13.7712 17.0287 13.77 16.8201L13.75 13.3755C13.7488 13.1669 13.5799 12.9988 13.3728 13C13.1657 13.0012 12.9988 13.1713 13 13.3799Z" fill="black"/>
</g>
<defs>
<filter id="filter0_d_1120_44232" x="-1.8" y="-0.8" width="31.6" height="31.6" filterUnits="userSpaceOnUse" color-interpolation-filters="sRGB">
<feFlood flood-opacity="0" result="BackgroundImageFix"/>
<feColorMatrix in="SourceAlpha" type="matrix" values="0 0 0 0 0 0 0 0 0 0 0 0 0 0 0 0 0 0 127 0" result="hardAlpha"/>
<feOffset dy="1"/>
<feGaussianBlur stdDeviation="0.9"/>
<feColorMatrix type="matrix" values="0 0 0 0 0 0 0 0 0 0 0 0 0 0 0 0 0 0 0.65 0"/>
<feBlend mode="normal" in2="BackgroundImageFix" result="effect1_dropShadow_1120_44232"/>
<feBlend mode="normal" in="SourceGraphic" in2="effect1_dropShadow_1120_44232" result="shape"/>
</filter>
</defs>
</svg>
