<svg width="20" height="20" viewBox="0 0 20 20" fill="none" xmlns="http://www.w3.org/2000/svg">
<path d="M10 1C8.21997 1 6.47991 1.52784 4.99987 2.51677C3.51983 3.50571 2.36628 4.91131 1.68509 6.55585C1.0039 8.20038 0.82567 10.01 1.17294 11.7558C1.5202 13.5016 2.37737 15.1053 3.63604 16.364C4.89471 17.6226 6.49836 18.4798 8.24419 18.8271C9.99002 19.1743 11.7996 18.9961 13.4442 18.3149C15.0887 17.6337 16.4943 16.4802 17.4832 15.0001C18.4722 13.5201 19 11.78 19 10C18.9974 7.61384 18.0484 5.32616 16.3611 3.63889C14.6738 1.95162 12.3862 1.00258 10 1ZM10 17.5C8.51664 17.5 7.06659 17.0601 5.83323 16.236C4.59986 15.4119 3.63856 14.2406 3.07091 12.8701C2.50325 11.4997 2.35473 9.99168 2.64411 8.53682C2.9335 7.08196 3.64781 5.74559 4.6967 4.6967C5.7456 3.6478 7.08197 2.9335 8.53683 2.64411C9.99168 2.35472 11.4997 2.50325 12.8701 3.0709C14.2406 3.63856 15.4119 4.59985 16.236 5.83322C17.0601 7.06659 17.5 8.51664 17.5 10C17.4978 11.9885 16.7069 13.8948 15.3009 15.3009C13.8948 16.7069 11.9885 17.4978 10 17.5Z" fill="black"/>
<path d="M14.572 11.6438L10.7105 9.67532V5.72666C10.7105 5.53394 10.6204 5.34911 10.46 5.21283C10.2996 5.07656 10.0821 5 9.85525 5C9.62843 5 9.41089 5.07656 9.2505 5.21283C9.09011 5.34911 9 5.53394 9 5.72666V10.0866C9.00575 10.211 9.04639 10.3324 9.11854 10.4407C9.19069 10.549 9.29226 10.6411 9.4148 10.7094L13.6911 12.8893C13.7874 12.9405 13.8947 12.9749 14.0068 12.9905C14.119 13.0061 14.2336 13.0025 14.3441 12.98C14.4546 12.9575 14.5587 12.9165 14.6503 12.8594C14.742 12.8024 14.8193 12.7304 14.8778 12.6476C14.9363 12.5649 14.9749 12.4731 14.9912 12.3775C15.0075 12.282 15.0012 12.1847 14.9727 12.0912C14.9442 11.9978 14.8941 11.9101 14.8253 11.8333C14.7565 11.7565 14.6704 11.6921 14.572 11.6438Z" fill="black"/>
</svg>
