<svg width="20" height="20" viewBox="0 0 20 20" fill="none" xmlns="http://www.w3.org/2000/svg">
<path d="M17.7879 5.93302V12.1247C17.7562 12.773 17.5896 13.4076 17.2987 13.9878C17.0079 14.5681 16.5992 15.0813 16.0987 15.4947L12.5154 18.1697C11.7828 18.6947 10.9016 18.9718 10.0004 18.9605C9.09796 18.9714 8.21575 18.6931 7.48289 18.1664L3.89956 15.4914C3.39998 15.0781 2.99198 14.5653 2.70158 13.9857C2.41118 13.406 2.24475 12.7722 2.21289 12.1247V5.93302C2.23892 5.26544 2.45489 4.61915 2.83543 4.07004C3.21597 3.52092 3.74529 3.09179 4.36122 2.83302L8.52789 1.27219C9.4878 0.961354 10.5213 0.961354 11.4812 1.27219L15.6396 2.83302C16.2555 3.09179 16.7848 3.52092 17.1654 4.07004C17.5459 4.61915 17.7619 5.26544 17.7879 5.93302Z" fill="white"/>
<path d="M15.6396 2.83302L11.4771 1.27219C10.5171 0.961354 9.48363 0.961354 8.52372 1.27219L4.36122 2.83302C3.74529 3.09179 3.21597 3.52092 2.83543 4.07004C2.45489 4.61915 2.23892 5.26544 2.21289 5.93302V12.1247C2.2446 12.773 2.4112 13.4076 2.70206 13.9878C2.99291 14.5681 3.40162 15.0813 3.90206 15.4947L7.48539 18.1697C8.21797 18.6947 9.09918 18.9718 10.0004 18.9605C10.9025 18.9723 11.7846 18.6952 12.5179 18.1697L16.1012 15.4947C16.6017 15.0813 17.0104 14.5681 17.3012 13.9878C17.5921 13.4076 17.7587 12.773 17.7904 12.1247V5.93302C17.7641 5.26516 17.5478 4.61867 17.1668 4.06953C16.7858 3.52039 16.256 3.09141 15.6396 2.83302ZM16.5379 12.1247C16.5063 12.5783 16.3851 13.0212 16.1813 13.4278C15.9775 13.8343 15.695 14.1963 15.3504 14.493L11.7671 17.168C11.2436 17.5185 10.6278 17.7056 9.99789 17.7056C9.36794 17.7056 8.75218 17.5185 8.22872 17.168L4.64539 14.493C4.30165 14.1959 4.02017 13.8336 3.81721 13.4272C3.61425 13.0207 3.49383 12.578 3.46289 12.1247V5.93302C3.48956 5.51977 3.62811 5.12155 3.86371 4.781C4.09931 4.44044 4.42309 4.17037 4.80039 3.99969L8.96206 2.43885C9.63879 2.23176 10.362 2.23176 11.0387 2.43885L15.2004 3.99969C15.5777 4.17037 15.9015 4.44044 16.1371 4.781C16.3727 5.12155 16.5112 5.51977 16.5379 5.93302V12.1247ZM12.9046 7.20802C12.9626 7.26606 13.0087 7.33498 13.0401 7.41083C13.0716 7.48669 13.0878 7.56799 13.0878 7.6501C13.0878 7.73221 13.0716 7.81352 13.0401 7.88937C13.0087 7.96523 12.9626 8.03415 12.9046 8.09219L9.32122 11.6755C9.20393 11.7924 9.04512 11.858 8.87956 11.858C8.714 11.858 8.55519 11.7924 8.43789 11.6755L7.09622 10.333C6.98243 10.2151 6.91951 10.0572 6.92101 9.89331C6.92251 9.72944 6.98831 9.57271 7.10425 9.45689C7.22018 9.34106 7.37697 9.2754 7.54085 9.27406C7.70472 9.27271 7.86257 9.33578 7.98039 9.44969L8.88122 10.3505L12.0204 7.21135C12.0784 7.15322 12.1473 7.10708 12.2231 7.07558C12.2989 7.04407 12.3802 7.02781 12.4623 7.02774C12.5444 7.02766 12.6257 7.04376 12.7016 7.07513C12.7775 7.10649 12.8465 7.1525 12.9046 7.21052V7.20802Z" fill="#656288"/>
</svg>
