<svg width="18" height="18" viewBox="0 0 18 18" fill="none" xmlns="http://www.w3.org/2000/svg">
<path d="M7.875 1.125C6.01538 1.125 4.5 2.64038 4.5 4.5V12.375C4.5 14.8579 6.51712 16.875 9 16.875C11.4829 16.875 13.5 14.8579 13.5 12.375V4.5H12.375V12.375C12.375 14.2537 10.8787 15.75 9 15.75C7.12125 15.75 5.625 14.2537 5.625 12.375V4.5C5.625 3.24338 6.61838 2.25 7.875 2.25C9.13163 2.25 10.125 3.24338 10.125 4.5V11.25C10.125 11.8834 9.63338 12.375 9 12.375C8.36663 12.375 7.875 11.8834 7.875 11.25V5.0625H6.75V11.25C6.75 12.4875 7.7625 13.5 9 13.5C10.2375 13.5 11.25 12.4875 11.25 11.25V4.5C11.25 2.64038 9.73462 1.125 7.875 1.125Z" fill="#656288"/>
</svg>
