<svg width="184" height="56" viewBox="0 0 184 56" fill="none" xmlns="http://www.w3.org/2000/svg">
<rect width="183.895" height="55.1175" rx="5.74141" fill="black"/>
<path d="M38.7485 28.7272C38.7667 27.3188 39.1408 25.9378 39.836 24.7128C40.5313 23.4879 41.5251 22.4586 42.725 21.721C41.9627 20.6323 40.9571 19.7364 39.788 19.1044C38.619 18.4723 37.3186 18.1216 35.9903 18.0801C33.1567 17.7826 30.4097 19.7756 28.9658 19.7756C27.4939 19.7756 25.2707 18.1096 22.8767 18.1589C21.3282 18.2089 19.8191 18.6592 18.4964 19.4659C17.1737 20.2725 16.0825 21.4081 15.3291 22.7619C12.0656 28.412 14.4999 36.7159 17.626 41.283C19.19 43.5194 21.018 46.0176 23.4098 45.929C25.7503 45.8319 26.6245 44.4365 29.4497 44.4365C32.2487 44.4365 33.0689 45.929 35.5092 45.8727C38.0207 45.8319 39.6031 43.6263 41.1123 41.3687C42.2361 39.7752 43.1008 38.014 43.6745 36.1504C42.2154 35.5333 40.9702 34.5003 40.0942 33.1802C39.2182 31.8602 38.7502 30.3114 38.7485 28.7272V28.7272Z" fill="white"/>
<path d="M34.1391 15.0766C35.5085 13.4327 36.1832 11.3198 36.0198 9.18652C33.9277 9.40626 31.9952 10.4061 30.6073 11.987C29.9287 12.7592 29.409 13.6577 29.0779 14.6309C28.7467 15.6042 28.6106 16.6331 28.6774 17.659C29.7238 17.6698 30.7591 17.443 31.7051 16.9957C32.6512 16.5484 33.4834 15.8922 34.1391 15.0766Z" fill="white"/>
<path d="M69.2738 36.616H62.1692L60.4631 41.5387H57.4539L64.1832 23.3262H67.3097L74.039 41.5387H70.9784L69.2738 36.616ZM62.905 34.3445H68.5366L65.7604 26.3554H65.6827L62.905 34.3445Z" fill="white"/>
<path d="M88.572 34.9004C88.572 39.0267 86.3118 41.6778 82.901 41.6778C82.0369 41.722 81.1776 41.5275 80.4215 41.1166C79.6653 40.7058 79.0428 40.0952 78.6253 39.3547H78.5608V45.9316H75.7714V28.2605H78.4714V30.469H78.5227C78.9594 29.7321 79.5924 29.1247 80.3543 28.7113C81.1163 28.2979 81.9786 28.0941 82.8497 28.1216C86.2985 28.1216 88.572 30.7856 88.572 34.9004ZM85.705 34.9004C85.705 32.2121 84.2832 30.4447 82.1138 30.4447C79.9826 30.4447 78.5491 32.2493 78.5491 34.9004C78.5491 37.5759 79.9826 39.3676 82.1138 39.3676C84.2832 39.3676 85.705 37.6131 85.705 34.9004Z" fill="white"/>
<path d="M103.529 34.9004C103.529 39.0267 101.268 41.6778 97.8576 41.6778C96.9936 41.722 96.1343 41.5275 95.3782 41.1166C94.622 40.7058 93.9995 40.0951 93.582 39.3547H93.5175V45.9315H90.7281V28.2605H93.428V30.469H93.4793C93.9161 29.7321 94.549 29.1246 95.311 28.7113C96.0729 28.2979 96.9353 28.0941 97.8063 28.1216C101.255 28.1216 103.529 30.7856 103.529 34.9004ZM100.662 34.9004C100.662 32.2121 99.2398 30.4447 97.0705 30.4447C94.9393 30.4447 93.5058 32.2493 93.5058 34.9004C93.5058 37.5758 94.9393 39.3676 97.0705 39.3676C99.2399 39.3676 100.662 37.6131 100.662 34.9004H100.662Z" fill="white"/>
<path d="M113.414 36.4642C113.62 38.2702 115.416 39.4561 117.87 39.4561C120.221 39.4561 121.912 38.2702 121.912 36.6417C121.912 35.2281 120.892 34.3816 118.477 33.8016L116.061 33.233C112.638 32.4252 111.05 30.8611 111.05 28.3232C111.05 25.1809 113.852 23.0225 117.832 23.0225C121.77 23.0225 124.47 25.1809 124.561 28.3232H121.745C121.577 26.5057 120.039 25.4086 117.792 25.4086C115.545 25.4086 114.007 26.5186 114.007 28.1342C114.007 29.4217 114.989 30.1794 117.392 30.7594L119.445 31.2521C123.27 32.1358 124.858 33.6368 124.858 36.3008C124.858 39.7081 122.081 41.8421 117.663 41.8421C113.53 41.8421 110.739 39.7582 110.558 36.464L113.414 36.4642Z" fill="white"/>
<path d="M130.878 25.1172V28.2595H133.463V30.4179H130.878V37.7381C130.878 38.8753 131.396 39.4053 132.532 39.4053C132.839 39.4001 133.145 39.379 133.449 39.3422V41.4877C132.939 41.581 132.419 41.6232 131.9 41.6138C129.149 41.6138 128.076 40.604 128.076 38.0288V30.4179H126.1V28.2595H128.076V25.1172H130.878Z" fill="white"/>
<path d="M134.959 34.8998C134.959 30.722 137.477 28.0967 141.404 28.0967C145.344 28.0967 147.851 30.7219 147.851 34.8998C147.851 39.0892 145.357 41.703 141.404 41.703C137.452 41.703 134.959 39.0892 134.959 34.8998ZM145.008 34.8998C145.008 32.0339 143.664 30.3424 141.404 30.3424C139.144 30.3424 137.801 32.0468 137.801 34.8998C137.801 37.7772 139.144 39.4558 141.404 39.4558C143.664 39.4558 145.008 37.7772 145.008 34.8998H145.008Z" fill="white"/>
<path d="M150.15 28.2604H152.811V30.5205H152.875C153.055 29.8146 153.478 29.1908 154.074 28.7539C154.669 28.317 155.4 28.0937 156.144 28.1214C156.465 28.1204 156.786 28.1545 157.099 28.2231V30.7725C156.694 30.6514 156.27 30.5957 155.846 30.6078C155.441 30.5918 155.037 30.6616 154.662 30.8125C154.287 30.9634 153.95 31.1918 153.674 31.482C153.398 31.7722 153.189 32.1174 153.062 32.4939C152.936 32.8703 152.894 33.2691 152.94 33.6628V41.5387H150.15L150.15 28.2604Z" fill="white"/>
<path d="M169.96 37.6383C169.585 40.0488 167.182 41.703 164.109 41.703C160.156 41.703 157.702 39.1149 157.702 34.9629C157.702 30.7979 160.169 28.0967 163.991 28.0967C167.751 28.0967 170.115 30.6203 170.115 34.6463V35.5802H160.518V35.7449C160.473 36.2335 160.536 36.7258 160.701 37.1891C160.867 37.6523 161.131 38.0758 161.477 38.4315C161.823 38.7873 162.242 39.067 162.707 39.2523C163.172 39.4375 163.672 39.524 164.173 39.5059C164.832 39.5663 165.494 39.4171 166.059 39.0806C166.625 38.7441 167.064 38.2383 167.311 37.6383L169.96 37.6383ZM160.531 33.6753H167.325C167.35 33.2359 167.281 32.7962 167.124 32.3837C166.967 31.9713 166.725 31.5951 166.412 31.2786C166.099 30.9622 165.722 30.7124 165.306 30.5449C164.889 30.3773 164.442 30.2958 163.991 30.3052C163.537 30.3026 163.087 30.3878 162.667 30.5561C162.246 30.7244 161.864 30.9724 161.543 31.2857C161.221 31.599 160.966 31.9715 160.792 32.3816C160.618 32.7918 160.53 33.2314 160.531 33.6753V33.6753Z" fill="white"/>
<path d="M62.5554 9.61735C63.1402 9.57635 63.727 9.66267 64.2735 9.8701C64.82 10.0775 65.3126 10.4009 65.7158 10.8169C66.1189 11.2328 66.4225 11.731 66.6047 12.2756C66.787 12.8201 66.8432 13.3973 66.7695 13.9656C66.7695 16.7614 65.2231 18.3684 62.5554 18.3684H59.3205V9.61735H62.5554ZM60.7115 17.1308H62.4C62.8179 17.1553 63.2361 17.0883 63.6241 16.9349C64.0122 16.7814 64.3604 16.5454 64.6433 16.2439C64.9262 15.9424 65.1367 15.5831 65.2596 15.1921C65.3825 14.801 65.4146 14.3882 65.3535 13.9835C65.4101 13.5804 65.3748 13.1701 65.25 12.7819C65.1253 12.3938 64.9142 12.0374 64.6319 11.7383C64.3497 11.4392 64.0032 11.2048 63.6173 11.0519C63.2315 10.8991 62.8158 10.8315 62.4 10.854H60.7115V17.1308Z" fill="white"/>
<path d="M68.3408 15.0643C68.2983 14.6303 68.3491 14.1924 68.4899 13.7787C68.6308 13.365 68.8586 12.9847 69.1587 12.662C69.4588 12.3394 69.8246 12.0816 70.2326 11.9052C70.6406 11.7288 71.0819 11.6377 71.5281 11.6377C71.9743 11.6377 72.4155 11.7288 72.8236 11.9052C73.2316 12.0816 73.5974 12.3394 73.8975 12.662C74.1976 12.9847 74.4254 13.365 74.5662 13.7787C74.7071 14.1924 74.7579 14.6303 74.7154 15.0643C74.7587 15.4987 74.7085 15.9372 74.568 16.3516C74.4275 16.7659 74.1999 17.147 73.8997 17.4702C73.5995 17.7935 73.2335 18.0518 72.825 18.2286C72.4166 18.4054 71.9748 18.4967 71.5281 18.4967C71.0814 18.4967 70.6396 18.4054 70.2311 18.2286C69.8227 18.0518 69.4566 17.7935 69.1565 17.4702C68.8563 17.147 68.6286 16.7659 68.4882 16.3516C68.3477 15.9372 68.2975 15.4987 68.3408 15.0643V15.0643ZM73.3434 15.0643C73.3434 13.6328 72.6853 12.7956 71.5303 12.7956C70.3709 12.7956 69.7186 13.6328 69.7186 15.0643C69.7186 16.5073 70.3709 17.338 71.5303 17.338C72.6853 17.338 73.3434 16.5015 73.3434 15.0643H73.3434Z" fill="white"/>
<path d="M83.189 18.3687H81.8053L80.4085 13.5048H80.3029L78.9119 18.3687H77.5414L75.6784 11.7646H77.0313L78.2421 16.804H78.3417L79.7313 11.7646H81.0109L82.4004 16.804H82.506L83.7108 11.7646H85.0447L83.189 18.3687Z" fill="white"/>
<path d="M86.6116 11.7648H87.8956V12.814H87.9953C88.1643 12.4372 88.4495 12.1213 88.8111 11.9104C89.1726 11.6995 89.5925 11.604 90.0122 11.6374C90.341 11.6132 90.6712 11.6617 90.9783 11.7791C91.2854 11.8966 91.5615 12.0801 91.7862 12.316C92.0108 12.5519 92.1783 12.8341 92.2762 13.1419C92.374 13.4496 92.3998 13.7749 92.3515 14.0937V18.3689H91.0177V14.4209C91.0177 13.3597 90.5457 12.8319 89.5592 12.8319C89.336 12.8217 89.1131 12.8588 88.9058 12.9407C88.6986 13.0226 88.512 13.1473 88.3587 13.3063C88.2054 13.4652 88.0891 13.6547 88.0178 13.8617C87.9465 14.0686 87.9218 14.2883 87.9454 14.5054V18.3689H86.6116L86.6116 11.7648Z" fill="white"/>
<path d="M94.4769 9.18652H95.8107V18.3686H94.4769V9.18652Z" fill="white"/>
<path d="M97.6649 15.0644C97.6224 14.6304 97.6733 14.1925 97.8141 13.7788C97.955 13.3651 98.1828 12.9847 98.483 12.662C98.7831 12.3394 99.1489 12.0816 99.557 11.9052C99.965 11.7288 100.406 11.6377 100.853 11.6377C101.299 11.6377 101.74 11.7288 102.148 11.9052C102.556 12.0816 102.922 12.3394 103.222 12.662C103.522 12.9847 103.75 13.3651 103.891 13.7788C104.032 14.1925 104.083 14.6304 104.04 15.0644C104.083 15.4989 104.033 15.9374 103.893 16.3517C103.752 16.7661 103.524 17.1471 103.224 17.4704C102.924 17.7936 102.558 18.0519 102.15 18.2287C101.741 18.4055 101.299 18.4968 100.853 18.4968C100.406 18.4968 99.964 18.4055 99.5556 18.2287C99.1471 18.0519 98.781 17.7936 98.4808 17.4704C98.1806 17.1471 97.9529 16.7661 97.8124 16.3517C97.6719 15.9374 97.6216 15.4989 97.6649 15.0644V15.0644ZM102.668 15.0644C102.668 13.6329 102.009 12.7957 100.854 12.7957C99.695 12.7957 99.0427 13.6329 99.0427 15.0644C99.0427 16.5074 99.695 17.3381 100.854 17.3381C102.009 17.3381 102.668 16.5017 102.668 15.0644H102.668Z" fill="white"/>
<path d="M105.444 16.5016C105.444 15.3128 106.35 14.6275 107.958 14.5301L109.789 14.427V13.857C109.789 13.1594 109.317 12.7656 108.405 12.7656C107.661 12.7656 107.145 13.0327 106.997 13.4996H105.705C105.842 12.3653 106.934 11.6377 108.467 11.6377C110.161 11.6377 111.117 12.4619 111.117 13.857V18.3692H109.833V17.4412H109.727C109.513 17.7741 109.212 18.0455 108.856 18.2276C108.499 18.4098 108.099 18.4962 107.697 18.4781C107.414 18.5069 107.127 18.4773 106.856 18.3912C106.584 18.3051 106.334 18.1645 106.122 17.9782C105.91 17.792 105.74 17.5644 105.623 17.3101C105.506 17.0557 105.446 16.7803 105.444 16.5016V16.5016ZM109.789 15.9373V15.3852L108.139 15.4883C107.208 15.5491 106.786 15.8585 106.786 16.4407C106.786 17.0351 107.313 17.381 108.039 17.381C108.251 17.402 108.466 17.381 108.67 17.3193C108.875 17.2576 109.064 17.1563 109.227 17.0217C109.39 16.887 109.524 16.7215 109.621 16.5353C109.717 16.349 109.775 16.1456 109.789 15.9373V15.9373Z" fill="white"/>
<path d="M112.87 15.0638C112.87 12.977 113.968 11.655 115.675 11.655C116.098 11.636 116.517 11.7349 116.884 11.94C117.251 12.1452 117.551 12.4482 117.748 12.8137H117.848V9.18652H119.182V18.3686H117.903V17.3253H117.798C117.585 17.6882 117.275 17.9875 116.901 18.1906C116.527 18.3937 116.103 18.4929 115.675 18.4775C113.956 18.4776 112.87 17.1556 112.87 15.0638ZM114.248 15.0638C114.248 16.4645 114.924 17.3074 116.054 17.3074C117.178 17.3074 117.873 16.4523 117.873 15.0695C117.873 13.6931 117.171 12.8259 116.054 12.8259C114.931 12.8259 114.248 13.6745 114.248 15.0638H114.248Z" fill="white"/>
<path d="M124.7 15.0643C124.658 14.6303 124.709 14.1924 124.849 13.7787C124.99 13.365 125.218 12.9847 125.518 12.662C125.818 12.3394 126.184 12.0816 126.592 11.9052C127 11.7288 127.441 11.6377 127.888 11.6377C128.334 11.6377 128.775 11.7288 129.183 11.9052C129.591 12.0816 129.957 12.3394 130.257 12.662C130.557 12.9847 130.785 13.365 130.926 13.7787C131.066 14.1924 131.117 14.6303 131.075 15.0643C131.118 15.4987 131.068 15.9372 130.927 16.3516C130.787 16.7659 130.559 17.147 130.259 17.4702C129.959 17.7935 129.593 18.0518 129.184 18.2286C128.776 18.4054 128.334 18.4967 127.888 18.4967C127.441 18.4967 126.999 18.4054 126.591 18.2286C126.182 18.0518 125.816 17.7935 125.516 17.4702C125.216 17.147 124.988 16.7659 124.848 16.3516C124.707 15.9372 124.657 15.4987 124.7 15.0643V15.0643ZM129.703 15.0643C129.703 13.6328 129.045 12.7956 127.89 12.7956C126.73 12.7956 126.078 13.6328 126.078 15.0643C126.078 16.5073 126.73 17.338 127.89 17.338C129.045 17.338 129.703 16.5015 129.703 15.0643Z" fill="white"/>
<path d="M132.864 11.7648H134.148V12.814H134.248C134.417 12.4372 134.702 12.1213 135.064 11.9104C135.425 11.6995 135.845 11.604 136.265 11.6374C136.594 11.6132 136.924 11.6617 137.231 11.7791C137.538 11.8966 137.814 12.0801 138.039 12.316C138.264 12.5519 138.431 12.8341 138.529 13.1419C138.627 13.4496 138.653 13.7749 138.604 14.0937V18.3689H137.271V14.4209C137.271 13.3597 136.799 12.8319 135.812 12.8319C135.589 12.8217 135.366 12.8588 135.159 12.9407C134.952 13.0226 134.765 13.1473 134.612 13.3063C134.458 13.4652 134.342 13.6547 134.271 13.8617C134.199 14.0686 134.175 14.2883 134.198 14.5054V18.3689H132.864V11.7648Z" fill="white"/>
<path d="M146.141 10.1211V11.7954H147.606V12.8932H146.141V16.2891C146.141 16.9808 146.433 17.2838 147.097 17.2838C147.267 17.2832 147.437 17.2732 147.606 17.2537V18.3393C147.366 18.3812 147.123 18.4035 146.88 18.4059C145.397 18.4059 144.806 17.896 144.806 16.6228V12.8932H143.733V11.7953H144.806V10.1211H146.141Z" fill="white"/>
<path d="M149.428 9.18652H150.75V12.8259H150.855C151.033 12.4455 151.326 12.1279 151.694 11.9162C152.063 11.7045 152.49 11.609 152.916 11.6428C153.243 11.6254 153.57 11.6788 153.874 11.7991C154.177 11.9195 154.45 12.1038 154.673 12.3389C154.895 12.5741 155.061 12.8543 155.16 13.1595C155.259 13.4648 155.287 13.7876 155.244 14.1049V18.3687H153.909V14.4264C153.909 13.3715 153.406 12.8373 152.463 12.8373C152.234 12.8189 152.003 12.8497 151.788 12.9275C151.572 13.0054 151.376 13.1283 151.214 13.2878C151.052 13.4472 150.927 13.6394 150.849 13.8508C150.771 14.0622 150.741 14.2877 150.762 14.5116V18.3686H149.428L149.428 9.18652Z" fill="white"/>
<path d="M163.021 16.5862C162.84 17.1898 162.447 17.7119 161.912 18.0612C161.377 18.4104 160.733 18.5646 160.093 18.4968C159.647 18.5083 159.205 18.425 158.796 18.2526C158.387 18.0802 158.021 17.823 157.724 17.4986C157.427 17.1743 157.206 16.7907 157.076 16.3744C156.945 15.9582 156.91 15.5192 156.97 15.0881C156.911 14.6556 156.948 14.2157 157.077 13.7982C157.207 13.3807 157.427 12.9953 157.723 12.6682C158.018 12.341 158.382 12.0797 158.79 11.9019C159.198 11.7242 159.64 11.6341 160.087 11.6378C161.967 11.6378 163.102 12.8932 163.102 14.967V15.4218H158.329V15.4949C158.308 15.7372 158.339 15.9812 158.421 16.211C158.502 16.4409 158.631 16.6517 158.801 16.8298C158.97 17.008 159.176 17.1495 159.405 17.2454C159.634 17.3413 159.88 17.3895 160.129 17.3868C160.448 17.4242 160.771 17.3681 161.058 17.2255C161.344 17.083 161.581 16.8604 161.737 16.5862L163.021 16.5862ZM158.329 14.4579H161.743C161.76 14.2362 161.729 14.0136 161.652 13.8043C161.576 13.595 161.455 13.4036 161.299 13.2425C161.142 13.0814 160.953 12.9541 160.743 12.8688C160.533 12.7834 160.307 12.742 160.079 12.7471C159.849 12.7443 159.62 12.7866 159.406 12.8716C159.192 12.9565 158.998 13.0825 158.835 13.2419C158.672 13.4013 158.543 13.5911 158.456 13.7999C158.369 14.0088 158.326 14.2325 158.329 14.4579H158.329Z" fill="white"/>
</svg>
