<svg width="16" height="16" viewBox="0 0 16 16" fill="none" xmlns="http://www.w3.org/2000/svg">
<rect x="0.5" y="-0.5" width="15" height="15" rx="7.5" transform="matrix(1 0 0 -1 0 15)" stroke="#687EFF"/>
<path d="M11.4979 5.04527C11.5229 4.77026 11.3203 4.52705 11.0453 4.50205L6.56375 4.09464C6.28874 4.06964 6.04553 4.27231 6.02053 4.54732C5.99553 4.82233 6.1982 5.06554 6.47321 5.09054L10.4568 5.45268L10.0946 9.43625C10.0696 9.71126 10.2723 9.95447 10.5473 9.97947C10.8223 10.0045 11.0655 9.8018 11.0905 9.52679L11.4979 5.04527ZM5.32009 10.3841L11.3201 5.38411L10.6799 4.61589L4.67991 9.61589L5.32009 10.3841Z" fill="#687EFF"/>
</svg>
