<svg width="54" height="54" viewBox="0 0 54 54" fill="none" xmlns="http://www.w3.org/2000/svg">
<g filter="url(#filter0_d_764_60314)">
<rect x="10" y="6" width="34" height="34" rx="9" fill="white"/>
<path d="M30.436 13.0009C30.8042 13.0246 31.0883 13.3492 31.0785 13.7351V14.77C34.0036 15.0619 35.5 16.7248 35.5 19.7145V27.9848C35.5 31.3106 33.657 33 30.0302 33H23.4698C19.843 33 18 31.3106 18 27.9848V19.7145C18 17.7243 18.6594 16.3002 20.0121 15.4687L20.107 15.4131C20.303 15.319 20.533 15.3276 20.7242 15.4418C20.9472 15.5749 21.0789 15.8288 21.0641 16.097C21.0494 16.3652 20.8907 16.6015 20.6546 16.7071C19.7585 17.2555 19.3357 18.2108 19.3357 19.7145V19.9798H31.6703C32.0391 19.9798 32.3382 20.2927 32.3382 20.6786C32.3382 21.0645 32.0391 21.3774 31.6703 21.3774H19.3357V27.9848C19.3357 30.5233 20.5362 31.5759 23.4698 31.5936H30.0302C32.9215 31.5936 34.1558 30.5145 34.1558 27.9759V19.7056C34.1558 17.4943 33.2174 16.424 31.0785 16.1675V16.8398C31.0292 17.1981 30.7293 17.4596 30.3836 17.446C30.0378 17.4323 29.7577 17.1479 29.7343 16.7867V13.6732L29.7467 13.5626C29.7742 13.4176 29.8452 13.2845 29.9507 13.1834C30.0826 13.0571 30.2574 12.9913 30.436 13.0009ZM30.8207 27.197L30.9283 27.2041C31.1129 27.2279 31.286 27.315 31.4197 27.4534C31.5801 27.6196 31.6703 27.8459 31.6703 28.082C31.6703 28.5706 31.2918 28.9666 30.8249 28.9666C30.358 28.9666 29.9795 28.5706 29.9795 28.082C29.9795 27.5935 30.358 27.1975 30.8249 27.1975L30.8207 27.197ZM26.7669 27.1975L26.873 27.2044C27.2898 27.259 27.6123 27.6311 27.6123 28.082C27.6123 28.5706 27.2338 28.9666 26.7669 28.9666C26.3 28.9666 25.9215 28.5706 25.9215 28.082C25.9215 27.5935 26.3 27.1975 26.7669 27.1975ZM22.7133 27.197L22.8208 27.2041C23.0054 27.2279 23.1786 27.315 23.3122 27.4534C23.4726 27.6196 23.5628 27.8459 23.5628 28.082C23.5628 28.5706 23.1843 28.9666 22.7174 28.9666C22.2505 28.9666 21.872 28.5706 21.872 28.082C21.872 27.5935 22.2505 27.1975 22.7174 27.1975L22.7133 27.197ZM30.8207 23.615L30.9283 23.6218C31.1129 23.6456 31.286 23.7327 31.4197 23.8711C31.5801 24.0373 31.6703 24.2636 31.6703 24.4997C31.6703 24.9882 31.2918 25.3843 30.8249 25.3843C30.358 25.3843 29.9795 24.9882 29.9795 24.4997C29.9795 24.0112 30.358 23.6152 30.8249 23.6152L30.8207 23.615ZM26.7669 23.6152L26.873 23.6221C27.2898 23.6767 27.6123 24.0488 27.6123 24.4997C27.6123 24.9882 27.2338 25.3843 26.7669 25.3843C26.3 25.3843 25.9215 24.9882 25.9215 24.4997C25.9215 24.0112 26.3 23.6152 26.7669 23.6152ZM22.7133 23.615L22.8208 23.6218C23.0054 23.6456 23.1786 23.7327 23.3122 23.8711C23.4726 24.0373 23.5628 24.2636 23.5628 24.4997C23.5628 24.9882 23.1843 25.3843 22.7174 25.3843C22.2505 25.3843 21.872 24.9882 21.872 24.4997C21.872 24.0112 22.2505 23.6152 22.7174 23.6152L22.7133 23.615ZM23.0936 13.1064C23.4379 13.1064 23.7273 13.3771 23.7657 13.7351V14.6992H27.587C27.9558 14.6992 28.2548 15.0121 28.2548 15.398C28.2548 15.7839 27.9558 16.0968 27.587 16.0968H23.7488V16.7955C23.7488 16.9824 23.6773 17.1615 23.5502 17.2928C23.4231 17.4241 23.2511 17.4967 23.0725 17.4943L22.9748 17.4843C22.6566 17.4267 22.4172 17.1345 22.4214 16.7867V13.7351L22.4403 13.6305C22.5184 13.3257 22.7837 13.1064 23.0936 13.1064Z" fill="#5087FA"/>
</g>
<defs>
<filter id="filter0_d_764_60314" x="0" y="0" width="54" height="54" filterUnits="userSpaceOnUse" color-interpolation-filters="sRGB">
<feFlood flood-opacity="0" result="BackgroundImageFix"/>
<feColorMatrix in="SourceAlpha" type="matrix" values="0 0 0 0 0 0 0 0 0 0 0 0 0 0 0 0 0 0 127 0" result="hardAlpha"/>
<feOffset dy="4"/>
<feGaussianBlur stdDeviation="5"/>
<feComposite in2="hardAlpha" operator="out"/>
<feColorMatrix type="matrix" values="0 0 0 0 0.680417 0 0 0 0 0.685347 0 0 0 0 0.8875 0 0 0 0.28 0"/>
<feBlend mode="normal" in2="BackgroundImageFix" result="effect1_dropShadow_764_60314"/>
<feBlend mode="normal" in="SourceGraphic" in2="effect1_dropShadow_764_60314" result="shape"/>
</filter>
</defs>
</svg>
