<svg width="18" height="19" viewBox="0 0 18 19" fill="none" xmlns="http://www.w3.org/2000/svg">
<g clip-path="url(#clip0_1120_51474)">
<path d="M1 8.25C0.585786 8.25 0.25 8.58579 0.25 9C0.25 9.41421 0.585786 9.75 1 9.75V8.25ZM17.5303 9.53033C17.8232 9.23744 17.8232 8.76256 17.5303 8.46967L12.7574 3.6967C12.4645 3.40381 11.9896 3.40381 11.6967 3.6967C11.4038 3.98959 11.4038 4.46447 11.6967 4.75736L15.9393 9L11.6967 13.2426C11.4038 13.5355 11.4038 14.0104 11.6967 14.3033C11.9896 14.5962 12.4645 14.5962 12.7574 14.3033L17.5303 9.53033ZM1 9.75H17V8.25H1V9.75Z" fill="#656288"/>
</g>
<defs>
<clipPath id="clip0_1120_51474">
<rect width="18" height="18" fill="white" transform="translate(18 0.5) rotate(90)"/>
</clipPath>
</defs>
</svg>
