<svg width="15" height="15" viewBox="0 0 15 15" fill="none" xmlns="http://www.w3.org/2000/svg">
<path d="M14.2266 6.22824L7.91155 0.614906C7.63089 0.404406 7.28005 0.404406 6.99939 0.614906L0.684386 6.22824C0.403719 6.50891 0.333552 6.92991 0.614219 7.21057C0.894886 7.49124 1.31589 7.56141 1.59655 7.28074L1.80705 7.00007V13.7361C1.80705 14.1571 2.08772 14.4377 2.50872 14.4377H12.3321C12.7531 14.4377 13.0337 14.1571 13.0337 13.7361V7.00007L13.2442 7.21057C13.5249 7.49124 13.9459 7.42107 14.2266 7.14041C14.5072 6.92991 14.5072 6.43874 14.2266 6.22824ZM8.82372 9.52607H8.12205V10.2277C8.12205 10.6487 7.84139 10.9294 7.42039 10.9294C6.99939 10.9294 6.71872 10.6487 6.71872 10.2277V9.52607H6.01705C5.59605 9.52607 5.31539 9.24541 5.31539 8.82441C5.31539 8.40341 5.59605 8.12274 6.01705 8.12274H6.71872V7.42107C6.71872 7.00007 6.99939 6.71941 7.42039 6.71941C7.84139 6.71941 8.12205 7.00007 8.12205 7.42107V8.12274H8.82372C9.24472 8.12274 9.52538 8.40341 9.52538 8.82441C9.52538 9.24541 9.24472 9.52607 8.82372 9.52607Z" fill="#687EFF"/>
</svg>
