<svg width="80" height="86" viewBox="0 0 80 86" fill="none" xmlns="http://www.w3.org/2000/svg">
<path d="M24.0208 7.5H21.6196L21.4583 7.32489V7.5H7.36458C4.58864 7.5 2.5 9.82935 2.5 12.4896V47.4062C2.5 49.9465 4.46718 52.5 7.36458 52.5H32.6875C35.6528 52.5 37.5 49.8705 37.5 47.4062V21.9792C37.5 21.4046 37.4248 20.6729 37.1005 19.9325C36.9518 19.5757 36.7241 19.1201 36.3581 18.6808L36.3215 18.6369L36.283 18.5948L27.5572 9.04639C27.0816 8.52257 26.5557 8.2045 26.1638 8.0007L26.159 7.99821C25.4183 7.61509 24.6685 7.5 24.0208 7.5Z" fill="#0FB4FD" stroke="white" stroke-width="5"/>
<mask id="path-2-outside-1_1120_26410" maskUnits="userSpaceOnUse" x="21.48" y="25.6602" width="54" height="54" fill="black">
<rect fill="white" x="21.48" y="25.6602" width="54" height="54"/>
<path d="M32.14 32.1102H29.14V30.1602C29.14 29.7623 29.298 29.3808 29.5793 29.0995C29.8606 28.8182 30.2422 28.6602 30.64 28.6602C31.0378 28.6602 31.4194 28.8182 31.7007 29.0995C31.982 29.3808 32.14 29.7623 32.14 30.1602V32.1102ZM43.71 30.1602C43.71 29.7623 43.552 29.3808 43.2707 29.0995C42.9894 28.8182 42.6078 28.6602 42.21 28.6602C41.8122 28.6602 41.4306 28.8182 41.1493 29.0995C40.868 29.3808 40.71 29.7623 40.71 30.1602V32.1102H43.71V30.1602ZM55.29 30.1602C55.29 29.7623 55.132 29.3808 54.8507 29.0995C54.5693 28.8182 54.1878 28.6602 53.79 28.6602C53.3922 28.6602 53.0106 28.8182 52.7293 29.0995C52.448 29.3808 52.29 29.7623 52.29 30.1602V32.1102H55.29V30.1602ZM66.86 30.1602C66.86 29.7623 66.702 29.3808 66.4207 29.0995C66.1394 28.8182 65.7578 28.6602 65.36 28.6602C64.9622 28.6602 64.5806 28.8182 64.2993 29.0995C64.018 29.3808 63.86 29.7623 63.86 30.1602V32.1102H66.86V30.1602ZM70.52 32.1102H66.86V34.1102C66.86 34.508 66.702 34.8895 66.4207 35.1708C66.1394 35.4521 65.7578 35.6102 65.36 35.6102C64.9622 35.6102 64.5806 35.4521 64.2993 35.1708C64.018 34.8895 63.86 34.508 63.86 34.1102V32.1102H55.29V34.1102C55.29 34.508 55.132 34.8895 54.8507 35.1708C54.5693 35.4521 54.1878 35.6102 53.79 35.6102C53.3922 35.6102 53.0106 35.4521 52.7293 35.1708C52.448 34.8895 52.29 34.508 52.29 34.1102V32.1102H43.71V34.1102C43.71 34.508 43.552 34.8895 43.2707 35.1708C42.9894 35.4521 42.6078 35.6102 42.21 35.6102C41.8122 35.6102 41.4306 35.4521 41.1493 35.1708C40.868 34.8895 40.71 34.508 40.71 34.1102V32.1102H32.14V34.1102C32.14 34.508 31.982 34.8895 31.7007 35.1708C31.4194 35.4521 31.0378 35.6102 30.64 35.6102C30.2422 35.6102 29.8606 35.4521 29.5793 35.1708C29.298 34.8895 29.14 34.508 29.14 34.1102V32.1102H25.48C25.2148 32.1102 24.9604 32.2155 24.7729 32.403C24.5854 32.5906 24.48 32.8449 24.48 33.1102V37.8802C24.48 38.1454 24.5854 38.3997 24.7729 38.5873C24.9604 38.7748 25.2148 38.8802 25.48 38.8802H70.48C70.7452 38.8802 70.9996 38.7748 71.1871 38.5873C71.3746 38.3997 71.48 38.1454 71.48 37.8802V33.1102C71.4802 32.8517 71.3804 32.6033 71.2014 32.4168C71.0224 32.2304 70.7782 32.1205 70.52 32.1102ZM24.52 41.8802H71.52V75.0002C71.52 75.2654 71.4146 75.5197 71.2271 75.7073C71.0396 75.8948 70.7852 76.0002 70.52 76.0002H25.52C25.2548 76.0002 25.0004 75.8948 24.8129 75.7073C24.6254 75.5197 24.52 75.2654 24.52 75.0002V41.8802ZM57.1 49.8802C57.1 50.278 57.258 50.6595 57.5393 50.9408C57.8206 51.2221 58.2022 51.3802 58.6 51.3802H65.68C66.0778 51.3802 66.4594 51.2221 66.7407 50.9408C67.022 50.6595 67.18 50.278 67.18 49.8802C67.18 49.4823 67.022 49.1008 66.7407 48.8195C66.4594 48.5382 66.0778 48.3802 65.68 48.3802H58.56C58.3605 48.3801 58.1629 48.4199 57.979 48.4971C57.795 48.5744 57.6283 48.6876 57.4886 48.83C57.3489 48.9725 57.239 49.1414 57.1655 49.3269C57.0919 49.5124 57.056 49.7107 57.06 49.9102L57.1 49.8802ZM57.1 58.9302C57.1 59.328 57.258 59.7095 57.5393 59.9908C57.8206 60.2721 58.2022 60.4302 58.6 60.4302H65.68C66.0778 60.4302 66.4594 60.2721 66.7407 59.9908C67.022 59.7095 67.18 59.328 67.18 58.9302C67.18 58.5323 67.022 58.1508 66.7407 57.8695C66.4594 57.5882 66.0778 57.4302 65.68 57.4302H58.56C58.357 57.4299 58.156 57.4709 57.9693 57.5506C57.7826 57.6304 57.614 57.7472 57.4738 57.8939C57.3336 58.0407 57.2246 58.2145 57.1534 58.4046C57.0823 58.5948 57.0505 58.7974 57.06 59.0002L57.1 58.9302ZM57.1 67.9302C57.1 68.328 57.258 68.7095 57.5393 68.9908C57.8206 69.2721 58.2022 69.4302 58.6 69.4302H65.68C66.0778 69.4302 66.4594 69.2721 66.7407 68.9908C67.022 68.7095 67.18 68.328 67.18 67.9302C67.18 67.5323 67.022 67.1508 66.7407 66.8695C66.4594 66.5882 66.0778 66.4302 65.68 66.4302H58.56C58.357 66.4299 58.156 66.4709 57.9693 66.5506C57.7826 66.6304 57.614 66.7472 57.4738 66.8939C57.3336 67.0407 57.2246 67.2145 57.1534 67.4046C57.0823 67.5948 57.0505 67.7974 57.06 68.0002L57.1 67.9302ZM43 49.9102C43 50.308 43.158 50.6895 43.4393 50.9708C43.7206 51.2521 44.1022 51.4102 44.5 51.4102H51.58C51.9778 51.4102 52.3594 51.2521 52.6407 50.9708C52.922 50.6895 53.08 50.308 53.08 49.9102C53.08 49.5123 52.922 49.1308 52.6407 48.8495C52.3594 48.5682 51.9778 48.4102 51.58 48.4102H44.46C44.0691 48.4206 43.6978 48.5832 43.4251 48.8634C43.1524 49.1436 42.9999 49.5192 43 49.9102ZM43 59.0002C43 59.398 43.158 59.7795 43.4393 60.0608C43.7206 60.3421 44.1022 60.5002 44.5 60.5002H51.58C51.9778 60.5002 52.3594 60.3421 52.6407 60.0608C52.922 59.7795 53.08 59.398 53.08 59.0002C53.08 58.6023 52.922 58.2208 52.6407 57.9395C52.3594 57.6582 51.9778 57.5002 51.58 57.5002H44.46C44.0691 57.5106 43.6978 57.6732 43.4251 57.9534C43.1524 58.2336 42.9999 58.6092 43 59.0002ZM43 68.0002C43 68.398 43.158 68.7795 43.4393 69.0608C43.7206 69.3421 44.1022 69.5002 44.5 69.5002H51.58C51.9778 69.5002 52.3594 69.3421 52.6407 69.0608C52.922 68.7795 53.08 68.398 53.08 68.0002C53.08 67.6023 52.922 67.2208 52.6407 66.9395C52.3594 66.6582 51.9778 66.5002 51.58 66.5002H44.46C44.0691 66.5106 43.6978 66.6732 43.4251 66.9534C43.1524 67.2336 42.9999 67.6092 43 68.0002ZM28.86 49.9102C28.86 50.308 29.018 50.6895 29.2993 50.9708C29.5806 51.2521 29.9622 51.4102 30.36 51.4102H37.44C37.8378 51.4102 38.2194 51.2521 38.5007 50.9708C38.782 50.6895 38.94 50.308 38.94 49.9102C38.94 49.5123 38.782 49.1308 38.5007 48.8495C38.2194 48.5682 37.8378 48.4102 37.44 48.4102H30.36C29.9622 48.4102 29.5806 48.5682 29.2993 48.8495C29.018 49.1308 28.86 49.5123 28.86 49.9102ZM28.86 58.9602C28.86 59.358 29.018 59.7395 29.2993 60.0208C29.5806 60.3021 29.9622 60.4602 30.36 60.4602H37.44C37.8378 60.4602 38.2194 60.3021 38.5007 60.0208C38.782 59.7395 38.94 59.358 38.94 58.9602C38.94 58.5623 38.782 58.1808 38.5007 57.8995C38.2194 57.6182 37.8378 57.4602 37.44 57.4602H30.36C30.1596 57.4601 29.9612 57.5002 29.7766 57.578C29.5919 57.6559 29.4248 57.77 29.2849 57.9135C29.1451 58.0571 29.0355 58.2272 28.9625 58.4138C28.8895 58.6005 28.8547 58.7998 28.86 59.0002V58.9602ZM28.86 67.9602C28.86 68.358 29.018 68.7395 29.2993 69.0208C29.5806 69.3021 29.9622 69.4602 30.36 69.4602H37.44C37.8378 69.4602 38.2194 69.3021 38.5007 69.0208C38.782 68.7395 38.94 68.358 38.94 67.9602C38.94 67.5623 38.782 67.1808 38.5007 66.8995C38.2194 66.6182 37.8378 66.4602 37.44 66.4602H30.36C30.1596 66.4601 29.9612 66.5002 29.7766 66.578C29.5919 66.6559 29.4248 66.77 29.2849 66.9135C29.1451 67.0571 29.0355 67.2272 28.9625 67.4138C28.8895 67.6005 28.8547 67.7998 28.86 68.0002V67.9602Z"/>
</mask>
<path d="M32.14 32.1102H29.14V30.1602C29.14 29.7623 29.298 29.3808 29.5793 29.0995C29.8606 28.8182 30.2422 28.6602 30.64 28.6602C31.0378 28.6602 31.4194 28.8182 31.7007 29.0995C31.982 29.3808 32.14 29.7623 32.14 30.1602V32.1102ZM43.71 30.1602C43.71 29.7623 43.552 29.3808 43.2707 29.0995C42.9894 28.8182 42.6078 28.6602 42.21 28.6602C41.8122 28.6602 41.4306 28.8182 41.1493 29.0995C40.868 29.3808 40.71 29.7623 40.71 30.1602V32.1102H43.71V30.1602ZM55.29 30.1602C55.29 29.7623 55.132 29.3808 54.8507 29.0995C54.5693 28.8182 54.1878 28.6602 53.79 28.6602C53.3922 28.6602 53.0106 28.8182 52.7293 29.0995C52.448 29.3808 52.29 29.7623 52.29 30.1602V32.1102H55.29V30.1602ZM66.86 30.1602C66.86 29.7623 66.702 29.3808 66.4207 29.0995C66.1394 28.8182 65.7578 28.6602 65.36 28.6602C64.9622 28.6602 64.5806 28.8182 64.2993 29.0995C64.018 29.3808 63.86 29.7623 63.86 30.1602V32.1102H66.86V30.1602ZM70.52 32.1102H66.86V34.1102C66.86 34.508 66.702 34.8895 66.4207 35.1708C66.1394 35.4521 65.7578 35.6102 65.36 35.6102C64.9622 35.6102 64.5806 35.4521 64.2993 35.1708C64.018 34.8895 63.86 34.508 63.86 34.1102V32.1102H55.29V34.1102C55.29 34.508 55.132 34.8895 54.8507 35.1708C54.5693 35.4521 54.1878 35.6102 53.79 35.6102C53.3922 35.6102 53.0106 35.4521 52.7293 35.1708C52.448 34.8895 52.29 34.508 52.29 34.1102V32.1102H43.71V34.1102C43.71 34.508 43.552 34.8895 43.2707 35.1708C42.9894 35.4521 42.6078 35.6102 42.21 35.6102C41.8122 35.6102 41.4306 35.4521 41.1493 35.1708C40.868 34.8895 40.71 34.508 40.71 34.1102V32.1102H32.14V34.1102C32.14 34.508 31.982 34.8895 31.7007 35.1708C31.4194 35.4521 31.0378 35.6102 30.64 35.6102C30.2422 35.6102 29.8606 35.4521 29.5793 35.1708C29.298 34.8895 29.14 34.508 29.14 34.1102V32.1102H25.48C25.2148 32.1102 24.9604 32.2155 24.7729 32.403C24.5854 32.5906 24.48 32.8449 24.48 33.1102V37.8802C24.48 38.1454 24.5854 38.3997 24.7729 38.5873C24.9604 38.7748 25.2148 38.8802 25.48 38.8802H70.48C70.7452 38.8802 70.9996 38.7748 71.1871 38.5873C71.3746 38.3997 71.48 38.1454 71.48 37.8802V33.1102C71.4802 32.8517 71.3804 32.6033 71.2014 32.4168C71.0224 32.2304 70.7782 32.1205 70.52 32.1102ZM24.52 41.8802H71.52V75.0002C71.52 75.2654 71.4146 75.5197 71.2271 75.7073C71.0396 75.8948 70.7852 76.0002 70.52 76.0002H25.52C25.2548 76.0002 25.0004 75.8948 24.8129 75.7073C24.6254 75.5197 24.52 75.2654 24.52 75.0002V41.8802ZM57.1 49.8802C57.1 50.278 57.258 50.6595 57.5393 50.9408C57.8206 51.2221 58.2022 51.3802 58.6 51.3802H65.68C66.0778 51.3802 66.4594 51.2221 66.7407 50.9408C67.022 50.6595 67.18 50.278 67.18 49.8802C67.18 49.4823 67.022 49.1008 66.7407 48.8195C66.4594 48.5382 66.0778 48.3802 65.68 48.3802H58.56C58.3605 48.3801 58.1629 48.4199 57.979 48.4971C57.795 48.5744 57.6283 48.6876 57.4886 48.83C57.3489 48.9725 57.239 49.1414 57.1655 49.3269C57.0919 49.5124 57.056 49.7107 57.06 49.9102L57.1 49.8802ZM57.1 58.9302C57.1 59.328 57.258 59.7095 57.5393 59.9908C57.8206 60.2721 58.2022 60.4302 58.6 60.4302H65.68C66.0778 60.4302 66.4594 60.2721 66.7407 59.9908C67.022 59.7095 67.18 59.328 67.18 58.9302C67.18 58.5323 67.022 58.1508 66.7407 57.8695C66.4594 57.5882 66.0778 57.4302 65.68 57.4302H58.56C58.357 57.4299 58.156 57.4709 57.9693 57.5506C57.7826 57.6304 57.614 57.7472 57.4738 57.8939C57.3336 58.0407 57.2246 58.2145 57.1534 58.4046C57.0823 58.5948 57.0505 58.7974 57.06 59.0002L57.1 58.9302ZM57.1 67.9302C57.1 68.328 57.258 68.7095 57.5393 68.9908C57.8206 69.2721 58.2022 69.4302 58.6 69.4302H65.68C66.0778 69.4302 66.4594 69.2721 66.7407 68.9908C67.022 68.7095 67.18 68.328 67.18 67.9302C67.18 67.5323 67.022 67.1508 66.7407 66.8695C66.4594 66.5882 66.0778 66.4302 65.68 66.4302H58.56C58.357 66.4299 58.156 66.4709 57.9693 66.5506C57.7826 66.6304 57.614 66.7472 57.4738 66.8939C57.3336 67.0407 57.2246 67.2145 57.1534 67.4046C57.0823 67.5948 57.0505 67.7974 57.06 68.0002L57.1 67.9302ZM43 49.9102C43 50.308 43.158 50.6895 43.4393 50.9708C43.7206 51.2521 44.1022 51.4102 44.5 51.4102H51.58C51.9778 51.4102 52.3594 51.2521 52.6407 50.9708C52.922 50.6895 53.08 50.308 53.08 49.9102C53.08 49.5123 52.922 49.1308 52.6407 48.8495C52.3594 48.5682 51.9778 48.4102 51.58 48.4102H44.46C44.0691 48.4206 43.6978 48.5832 43.4251 48.8634C43.1524 49.1436 42.9999 49.5192 43 49.9102ZM43 59.0002C43 59.398 43.158 59.7795 43.4393 60.0608C43.7206 60.3421 44.1022 60.5002 44.5 60.5002H51.58C51.9778 60.5002 52.3594 60.3421 52.6407 60.0608C52.922 59.7795 53.08 59.398 53.08 59.0002C53.08 58.6023 52.922 58.2208 52.6407 57.9395C52.3594 57.6582 51.9778 57.5002 51.58 57.5002H44.46C44.0691 57.5106 43.6978 57.6732 43.4251 57.9534C43.1524 58.2336 42.9999 58.6092 43 59.0002ZM43 68.0002C43 68.398 43.158 68.7795 43.4393 69.0608C43.7206 69.3421 44.1022 69.5002 44.5 69.5002H51.58C51.9778 69.5002 52.3594 69.3421 52.6407 69.0608C52.922 68.7795 53.08 68.398 53.08 68.0002C53.08 67.6023 52.922 67.2208 52.6407 66.9395C52.3594 66.6582 51.9778 66.5002 51.58 66.5002H44.46C44.0691 66.5106 43.6978 66.6732 43.4251 66.9534C43.1524 67.2336 42.9999 67.6092 43 68.0002ZM28.86 49.9102C28.86 50.308 29.018 50.6895 29.2993 50.9708C29.5806 51.2521 29.9622 51.4102 30.36 51.4102H37.44C37.8378 51.4102 38.2194 51.2521 38.5007 50.9708C38.782 50.6895 38.94 50.308 38.94 49.9102C38.94 49.5123 38.782 49.1308 38.5007 48.8495C38.2194 48.5682 37.8378 48.4102 37.44 48.4102H30.36C29.9622 48.4102 29.5806 48.5682 29.2993 48.8495C29.018 49.1308 28.86 49.5123 28.86 49.9102ZM28.86 58.9602C28.86 59.358 29.018 59.7395 29.2993 60.0208C29.5806 60.3021 29.9622 60.4602 30.36 60.4602H37.44C37.8378 60.4602 38.2194 60.3021 38.5007 60.0208C38.782 59.7395 38.94 59.358 38.94 58.9602C38.94 58.5623 38.782 58.1808 38.5007 57.8995C38.2194 57.6182 37.8378 57.4602 37.44 57.4602H30.36C30.1596 57.4601 29.9612 57.5002 29.7766 57.578C29.5919 57.6559 29.4248 57.77 29.2849 57.9135C29.1451 58.0571 29.0355 58.2272 28.9625 58.4138C28.8895 58.6005 28.8547 58.7998 28.86 59.0002V58.9602ZM28.86 67.9602C28.86 68.358 29.018 68.7395 29.2993 69.0208C29.5806 69.3021 29.9622 69.4602 30.36 69.4602H37.44C37.8378 69.4602 38.2194 69.3021 38.5007 69.0208C38.782 68.7395 38.94 68.358 38.94 67.9602C38.94 67.5623 38.782 67.1808 38.5007 66.8995C38.2194 66.6182 37.8378 66.4602 37.44 66.4602H30.36C30.1596 66.4601 29.9612 66.5002 29.7766 66.578C29.5919 66.6559 29.4248 66.77 29.2849 66.9135C29.1451 67.0571 29.0355 67.2272 28.9625 67.4138C28.8895 67.6005 28.8547 67.7998 28.86 68.0002V67.9602Z" fill="#292A78"/>
<path d="M30.64 28.6602V25.6602V28.6602ZM70.52 32.1102L70.64 29.1126L70.58 29.1102H70.52V32.1102ZM65.36 35.6102V38.6102V35.6102ZM53.79 35.6102V38.6102V35.6102ZM42.21 35.6102V38.6102V35.6102ZM30.64 35.6102V38.6102V35.6102ZM29.14 34.1102H26.14H29.14ZM71.48 33.1102L68.48 33.1078V33.1102H71.48ZM24.52 41.8802V38.8802H21.52V41.8802H24.52ZM71.52 41.8802H74.52V38.8802H71.52V41.8802ZM57.1 49.8802H60.1V43.8798L55.2999 47.4802L57.1 49.8802ZM58.56 48.3802L58.5594 51.3802H58.56V48.3802ZM57.06 49.9102L54.0606 49.9702L54.1777 55.8222L58.8601 52.3101L57.06 49.9102ZM57.1 58.9302H60.1V47.6328L54.4952 57.4418L57.1 58.9302ZM65.68 60.4302V63.4302V60.4302ZM58.56 57.4302L58.5567 60.4302H58.56V57.4302ZM57.06 59.0002L54.0633 59.1402L54.5449 69.4489L59.6648 60.4885L57.06 59.0002ZM57.1 67.9302H60.1V56.6328L54.4952 66.4418L57.1 67.9302ZM65.68 69.4302V72.4302V69.4302ZM58.56 66.4302L58.5567 69.4302H58.56V66.4302ZM57.06 68.0002L54.0633 68.1402L54.5449 78.4489L59.6648 69.4885L57.06 68.0002ZM43 49.9102H46V49.9091L43 49.9102ZM51.58 51.4102V54.4102V51.4102ZM44.46 48.4102V45.4102H44.42L44.38 45.4112L44.46 48.4102ZM43 59.0002H46V58.9991L43 59.0002ZM44.46 57.5002V54.5002H44.42L44.38 54.5012L44.46 57.5002ZM43 68.0002H46V67.9991L43 68.0002ZM44.46 66.5002V63.5002H44.42L44.38 63.5012L44.46 66.5002ZM28.86 49.9102H25.86H28.86ZM37.44 51.4102V54.4102V51.4102ZM30.36 48.4102V51.4102V48.4102ZM30.36 57.4602L30.3589 60.4602H30.36V57.4602ZM28.86 59.0002L25.8611 59.0802L31.86 59.0002H28.86ZM30.36 66.4602L30.3589 69.4602H30.36V66.4602ZM28.86 68.0002L25.8611 68.0802L31.86 68.0002H28.86ZM32.14 29.1102H29.14V35.1102H32.14V29.1102ZM32.14 32.1102V30.1602H26.14V32.1102H32.14ZM32.14 30.1602C32.14 30.558 31.982 30.9395 31.7007 31.2208L27.458 26.9782C26.6141 27.8221 26.14 28.9667 26.14 30.1602H32.14ZM31.7007 31.2208C31.4194 31.5021 31.0378 31.6602 30.64 31.6602V25.6602C29.4465 25.6602 28.3019 26.1343 27.458 26.9782L31.7007 31.2208ZM30.64 31.6602C30.2422 31.6602 29.8606 31.5021 29.5793 31.2208L33.822 26.9782C32.9781 26.1343 31.8335 25.6602 30.64 25.6602V31.6602ZM29.5793 31.2208C29.298 30.9395 29.14 30.558 29.14 30.1602H35.14C35.14 28.9667 34.6659 27.8221 33.822 26.9782L29.5793 31.2208ZM29.14 30.1602V32.1102H35.14V30.1602H29.14ZM46.71 30.1602C46.71 28.9667 46.2359 27.8221 45.392 26.9782L41.1493 31.2208C40.868 30.9395 40.71 30.558 40.71 30.1602H46.71ZM45.392 26.9782C44.5481 26.1343 43.4035 25.6602 42.21 25.6602V31.6602C41.8122 31.6602 41.4306 31.5021 41.1493 31.2208L45.392 26.9782ZM42.21 25.6602C41.0165 25.6602 39.8719 26.1343 39.028 26.9782L43.2707 31.2208C42.9894 31.5021 42.6078 31.6602 42.21 31.6602V25.6602ZM39.028 26.9782C38.1841 27.8221 37.71 28.9667 37.71 30.1602H43.71C43.71 30.558 43.552 30.9395 43.2707 31.2208L39.028 26.9782ZM37.71 30.1602V32.1102H43.71V30.1602H37.71ZM40.71 35.1102H43.71V29.1102H40.71V35.1102ZM46.71 32.1102V30.1602H40.71V32.1102H46.71ZM58.29 30.1602C58.29 28.9667 57.8159 27.8221 56.972 26.9782L52.7293 31.2208C52.448 30.9395 52.29 30.558 52.29 30.1602H58.29ZM56.972 26.9782C56.1281 26.1343 54.9835 25.6602 53.79 25.6602V31.6602C53.3922 31.6602 53.0106 31.5021 52.7293 31.2208L56.972 26.9782ZM53.79 25.6602C52.5965 25.6602 51.4519 26.1343 50.608 26.9782L54.8507 31.2208C54.5694 31.5021 54.1878 31.6602 53.79 31.6602V25.6602ZM50.608 26.9782C49.7641 27.8221 49.29 28.9667 49.29 30.1602H55.29C55.29 30.558 55.132 30.9395 54.8507 31.2208L50.608 26.9782ZM49.29 30.1602V32.1102H55.29V30.1602H49.29ZM52.29 35.1102H55.29V29.1102H52.29V35.1102ZM58.29 32.1102V30.1602H52.29V32.1102H58.29ZM69.86 30.1602C69.86 28.9667 69.3859 27.8221 68.542 26.9782L64.2993 31.2208C64.018 30.9395 63.86 30.558 63.86 30.1602H69.86ZM68.542 26.9782C67.6981 26.1343 66.5535 25.6602 65.36 25.6602V31.6602C64.9622 31.6602 64.5806 31.5021 64.2993 31.2208L68.542 26.9782ZM65.36 25.6602C64.1665 25.6602 63.0219 26.1343 62.178 26.9782L66.4207 31.2208C66.1394 31.5021 65.7578 31.6602 65.36 31.6602V25.6602ZM62.178 26.9782C61.3341 27.8221 60.86 28.9667 60.86 30.1602H66.86C66.86 30.558 66.702 30.9395 66.4207 31.2208L62.178 26.9782ZM60.86 30.1602V32.1102H66.86V30.1602H60.86ZM63.86 35.1102H66.86V29.1102H63.86V35.1102ZM69.86 32.1102V30.1602H63.86V32.1102H69.86ZM70.52 29.1102H66.86V35.1102H70.52V29.1102ZM63.86 32.1102V34.1102H69.86V32.1102H63.86ZM63.86 34.1102C63.86 33.7123 64.018 33.3308 64.2993 33.0495L68.542 37.2921C69.3859 36.4482 69.86 35.3036 69.86 34.1102H63.86ZM64.2993 33.0495C64.5806 32.7682 64.9622 32.6102 65.36 32.6102V38.6102C66.5535 38.6102 67.6981 38.1361 68.542 37.2921L64.2993 33.0495ZM65.36 32.6102C65.7578 32.6102 66.1393 32.7682 66.4207 33.0495L62.178 37.2921C63.0219 38.1361 64.1665 38.6102 65.36 38.6102V32.6102ZM66.4207 33.0495C66.702 33.3308 66.86 33.7123 66.86 34.1102H60.86C60.86 35.3036 61.3341 36.4482 62.178 37.2921L66.4207 33.0495ZM66.86 34.1102V32.1102H60.86V34.1102H66.86ZM63.86 29.1102H55.29V35.1102H63.86V29.1102ZM52.29 32.1102V34.1102H58.29V32.1102H52.29ZM52.29 34.1102C52.29 33.7123 52.448 33.3308 52.7293 33.0495L56.972 37.2921C57.8159 36.4482 58.29 35.3036 58.29 34.1102H52.29ZM52.7293 33.0495C53.0106 32.7682 53.3922 32.6102 53.79 32.6102V38.6102C54.9835 38.6102 56.1281 38.136 56.972 37.2921L52.7293 33.0495ZM53.79 32.6102C54.1878 32.6102 54.5693 32.7682 54.8507 33.0495L50.608 37.2921C51.4519 38.1361 52.5965 38.6102 53.79 38.6102V32.6102ZM54.8507 33.0495C55.132 33.3308 55.29 33.7123 55.29 34.1102H49.29C49.29 35.3036 49.7641 36.4482 50.608 37.2921L54.8507 33.0495ZM55.29 34.1102V32.1102H49.29V34.1102H55.29ZM52.29 29.1102H43.71V35.1102H52.29V29.1102ZM40.71 32.1102V34.1102H46.71V32.1102H40.71ZM40.71 34.1102C40.71 33.7123 40.868 33.3308 41.1493 33.0495L45.392 37.2921C46.2359 36.4482 46.71 35.3036 46.71 34.1102H40.71ZM41.1493 33.0495C41.4306 32.7682 41.8122 32.6102 42.21 32.6102V38.6102C43.4035 38.6102 44.5481 38.1361 45.392 37.2921L41.1493 33.0495ZM42.21 32.6102C42.6078 32.6102 42.9894 32.7682 43.2707 33.0495L39.028 37.2921C39.8719 38.1361 41.0165 38.6102 42.21 38.6102V32.6102ZM43.2707 33.0495C43.552 33.3308 43.71 33.7123 43.71 34.1102H37.71C37.71 35.3036 38.1841 36.4482 39.028 37.2921L43.2707 33.0495ZM43.71 34.1102V32.1102H37.71V34.1102H43.71ZM40.71 29.1102H32.14V35.1102H40.71V29.1102ZM29.14 32.1102V34.1102H35.14V32.1102H29.14ZM29.14 34.1102C29.14 33.7123 29.298 33.3308 29.5793 33.0495L33.822 37.2921C34.6659 36.4482 35.14 35.3036 35.14 34.1102H29.14ZM29.5793 33.0495C29.8606 32.7682 30.2422 32.6102 30.64 32.6102V38.6102C31.8335 38.6102 32.9781 38.1361 33.822 37.2921L29.5793 33.0495ZM30.64 32.6102C31.0378 32.6102 31.4194 32.7682 31.7007 33.0495L27.458 37.2921C28.3019 38.1361 29.4465 38.6102 30.64 38.6102V32.6102ZM31.7007 33.0495C31.982 33.3308 32.14 33.7123 32.14 34.1102H26.14C26.14 35.3036 26.6141 36.4482 27.458 37.2921L31.7007 33.0495ZM32.14 34.1102V32.1102H26.14V34.1102H32.14ZM29.14 29.1102H25.48V35.1102H29.14V29.1102ZM25.48 29.1102C24.4191 29.1102 23.4017 29.5316 22.6516 30.2817L26.8942 34.5244C26.5191 34.8994 26.0104 35.1102 25.48 35.1102V29.1102ZM22.6516 30.2817C21.9014 31.0319 21.48 32.0493 21.48 33.1102H27.48C27.48 33.6406 27.2693 34.1493 26.8942 34.5244L22.6516 30.2817ZM21.48 33.1102V37.8802H27.48V33.1102H21.48ZM21.48 37.8802C21.48 38.941 21.9014 39.9584 22.6516 40.7086L26.8942 36.4659C27.2693 36.841 27.48 37.3497 27.48 37.8802H21.48ZM22.6516 40.7086C23.4017 41.4587 24.4191 41.8802 25.48 41.8802V35.8802C26.0104 35.8802 26.5191 36.0909 26.8942 36.4659L22.6516 40.7086ZM25.48 41.8802H70.48V35.8802H25.48V41.8802ZM70.48 41.8802C71.5409 41.8802 72.5583 41.4587 73.3084 40.7086L69.0658 36.4659C69.4409 36.0909 69.9496 35.8802 70.48 35.8802V41.8802ZM73.3084 40.7086C74.0586 39.9584 74.48 38.941 74.48 37.8802H68.48C68.48 37.3497 68.6907 36.841 69.0658 36.4659L73.3084 40.7086ZM74.48 37.8802V33.1102H68.48V37.8802H74.48ZM74.48 33.1126C74.4808 32.0789 74.0814 31.085 73.3655 30.3392L69.0372 34.4944C68.6793 34.1216 68.4796 33.6246 68.48 33.1078L74.48 33.1126ZM73.3655 30.3392C72.6497 29.5935 71.6729 29.1539 70.64 29.1126L70.4 35.1078C69.8836 35.0871 69.3952 34.8673 69.0372 34.4944L73.3655 30.3392ZM24.52 44.8802H71.52V38.8802H24.52V44.8802ZM68.52 41.8802V75.0002H74.52V41.8802H68.52ZM68.52 75.0002C68.52 74.4697 68.7307 73.961 69.1058 73.5859L73.3484 77.8286C74.0986 77.0784 74.52 76.061 74.52 75.0002H68.52ZM69.1058 73.5859C69.4809 73.2109 69.9896 73.0002 70.52 73.0002V79.0002C71.5809 79.0002 72.5983 78.5787 73.3484 77.8286L69.1058 73.5859ZM70.52 73.0002H25.52V79.0002H70.52V73.0002ZM25.52 73.0002C26.0504 73.0002 26.5591 73.2109 26.9342 73.5859L22.6916 77.8286C23.4417 78.5787 24.4591 79.0002 25.52 79.0002V73.0002ZM26.9342 73.5859C27.3093 73.961 27.52 74.4697 27.52 75.0002H21.52C21.52 76.061 21.9414 77.0784 22.6916 77.8286L26.9342 73.5859ZM27.52 75.0002V41.8802H21.52V75.0002H27.52ZM54.1 49.8802C54.1 51.0736 54.5741 52.2182 55.418 53.0621L59.6607 48.8195C59.942 49.1008 60.1 49.4823 60.1 49.8802H54.1ZM55.418 53.0621C56.2619 53.9061 57.4065 54.3802 58.6 54.3802V48.3802C58.9978 48.3802 59.3794 48.5382 59.6607 48.8195L55.418 53.0621ZM58.6 54.3802H65.68V48.3802H58.6V54.3802ZM65.68 54.3802C66.8735 54.3802 68.0181 53.9061 68.862 53.0621L64.6193 48.8195C64.9006 48.5382 65.2822 48.3802 65.68 48.3802V54.3802ZM68.862 53.0621C69.7059 52.2182 70.18 51.0736 70.18 49.8802H64.18C64.18 49.4823 64.338 49.1008 64.6193 48.8195L68.862 53.0621ZM70.18 49.8802C70.18 48.6867 69.7059 47.5421 68.862 46.6982L64.6193 50.9408C64.338 50.6595 64.18 50.278 64.18 49.8802H70.18ZM68.862 46.6982C68.0181 45.8543 66.8735 45.3802 65.68 45.3802V51.3802C65.2822 51.3802 64.9006 51.2221 64.6193 50.9408L68.862 46.6982ZM65.68 45.3802H58.56V51.3802H65.68V45.3802ZM58.5606 45.3802C57.962 45.38 57.3694 45.4993 56.8175 45.7311L59.1404 51.2632C58.9565 51.3404 58.7589 51.3802 58.5594 51.3802L58.5606 45.3802ZM56.8175 45.7311C56.2655 45.9629 55.7654 46.3024 55.3464 46.7298L59.6308 50.9303C59.4911 51.0727 59.3244 51.1859 59.1404 51.2632L56.8175 45.7311ZM55.3464 46.7298C54.9273 47.1573 54.5977 47.664 54.377 48.2204L59.9539 50.4334C59.8804 50.6189 59.7705 50.7878 59.6308 50.9303L55.3464 46.7298ZM54.377 48.2204C54.1562 48.7768 54.0486 49.3717 54.0606 49.9702L60.0594 49.8502C60.0634 50.0496 60.0275 50.2479 59.9539 50.4334L54.377 48.2204ZM58.8601 52.3101L58.9001 52.2801L55.2999 47.4802L55.2599 47.5102L58.8601 52.3101ZM54.1 58.9302C54.1 60.1236 54.5741 61.2682 55.418 62.1121L59.6607 57.8695C59.942 58.1508 60.1 58.5323 60.1 58.9302H54.1ZM55.418 62.1121C56.2619 62.9561 57.4065 63.4302 58.6 63.4302V57.4302C58.9978 57.4302 59.3794 57.5882 59.6607 57.8695L55.418 62.1121ZM58.6 63.4302H65.68V57.4302H58.6V63.4302ZM65.68 63.4302C66.8735 63.4302 68.0181 62.9561 68.862 62.1121L64.6193 57.8695C64.9006 57.5882 65.2822 57.4302 65.68 57.4302V63.4302ZM68.862 62.1121C69.7059 61.2682 70.18 60.1236 70.18 58.9302H64.18C64.18 58.5323 64.338 58.1508 64.6193 57.8695L68.862 62.1121ZM70.18 58.9302C70.18 57.7367 69.7059 56.5921 68.862 55.7482L64.6193 59.9908C64.338 59.7095 64.18 59.328 64.18 58.9302H70.18ZM68.862 55.7482C68.0181 54.9043 66.8735 54.4302 65.68 54.4302V60.4302C65.2822 60.4302 64.9006 60.2721 64.6193 59.9908L68.862 55.7482ZM65.68 54.4302H58.56V60.4302H65.68V54.4302ZM58.5633 54.4302C57.9542 54.4295 57.3514 54.5525 56.7913 54.7916L59.1474 60.3097C58.9607 60.3894 58.7597 60.4304 58.5567 60.4302L58.5633 54.4302ZM56.7913 54.7916C56.2311 55.0308 55.7254 55.3812 55.3047 55.8215L59.6429 59.9664C59.5027 60.1132 59.3341 60.2299 59.1474 60.3097L56.7913 54.7916ZM55.3047 55.8215C54.8839 56.2619 54.557 56.7831 54.3436 57.3535L59.9633 59.4557C59.8922 59.6458 59.7832 59.8196 59.6429 59.9664L55.3047 55.8215ZM54.3436 57.3535C54.1302 57.924 54.0348 58.5318 54.0633 59.1402L60.0567 58.8602C60.0662 59.0629 60.0344 59.2656 59.9633 59.4557L54.3436 57.3535ZM59.6648 60.4885L59.7048 60.4185L54.4952 57.4418L54.4552 57.5118L59.6648 60.4885ZM54.1 67.9302C54.1 69.1236 54.5741 70.2682 55.418 71.1121L59.6607 66.8695C59.942 67.1508 60.1 67.5323 60.1 67.9302H54.1ZM55.418 71.1121C56.2619 71.9561 57.4065 72.4302 58.6 72.4302V66.4302C58.9978 66.4302 59.3794 66.5882 59.6607 66.8695L55.418 71.1121ZM58.6 72.4302H65.68V66.4302H58.6V72.4302ZM65.68 72.4302C66.8735 72.4302 68.0181 71.9561 68.862 71.1121L64.6193 66.8695C64.9006 66.5882 65.2822 66.4302 65.68 66.4302V72.4302ZM68.862 71.1121C69.7059 70.2682 70.18 69.1236 70.18 67.9302H64.18C64.18 67.5323 64.338 67.1508 64.6193 66.8695L68.862 71.1121ZM70.18 67.9302C70.18 66.7367 69.7059 65.5921 68.862 64.7482L64.6193 68.9908C64.338 68.7095 64.18 68.328 64.18 67.9302H70.18ZM68.862 64.7482C68.0181 63.9043 66.8735 63.4302 65.68 63.4302V69.4302C65.2822 69.4302 64.9006 69.2721 64.6193 68.9908L68.862 64.7482ZM65.68 63.4302H58.56V69.4302H65.68V63.4302ZM58.5633 63.4302C57.9542 63.4295 57.3514 63.5525 56.7913 63.7916L59.1474 69.3097C58.9607 69.3894 58.7597 69.4304 58.5567 69.4302L58.5633 63.4302ZM56.7913 63.7916C56.2311 64.0308 55.7254 64.3812 55.3047 64.8215L59.6429 68.9664C59.5027 69.1132 59.3341 69.2299 59.1474 69.3097L56.7913 63.7916ZM55.3047 64.8215C54.8839 65.2619 54.557 65.7831 54.3436 66.3535L59.9633 68.4557C59.8922 68.6458 59.7832 68.8196 59.6429 68.9664L55.3047 64.8215ZM54.3436 66.3535C54.1302 66.924 54.0348 67.5318 54.0633 68.1402L60.0567 67.8602C60.0662 68.0629 60.0344 68.2656 59.9633 68.4557L54.3436 66.3535ZM59.6648 69.4885L59.7048 69.4185L54.4952 66.4418L54.4552 66.5118L59.6648 69.4885ZM40 49.9102C40 51.1036 40.4741 52.2482 41.318 53.0921L45.5607 48.8495C45.842 49.1308 46 49.5123 46 49.9102H40ZM41.318 53.0921C42.1619 53.936 43.3065 54.4102 44.5 54.4102V48.4102C44.8978 48.4102 45.2794 48.5682 45.5607 48.8495L41.318 53.0921ZM44.5 54.4102H51.58V48.4102H44.5V54.4102ZM51.58 54.4102C52.7735 54.4102 53.9181 53.936 54.762 53.0921L50.5193 48.8495C50.8006 48.5682 51.1822 48.4102 51.58 48.4102V54.4102ZM54.762 53.0921C55.6059 52.2482 56.08 51.1036 56.08 49.9102H50.08C50.08 49.5123 50.238 49.1308 50.5193 48.8495L54.762 53.0921ZM56.08 49.9102C56.08 48.7167 55.6059 47.5721 54.762 46.7282L50.5193 50.9708C50.238 50.6895 50.08 50.308 50.08 49.9102H56.08ZM54.762 46.7282C53.9181 45.8843 52.7735 45.4102 51.58 45.4102V51.4102C51.1822 51.4102 50.8006 51.2521 50.5193 50.9708L54.762 46.7282ZM51.58 45.4102H44.46V51.4102H51.58V45.4102ZM44.38 45.4112C43.2074 45.4425 42.0934 45.9304 41.2753 46.7709L45.5749 50.9559C45.3022 51.236 44.9308 51.3987 44.54 51.4091L44.38 45.4112ZM41.2753 46.7709C40.4572 47.6115 39.9996 48.7383 40 49.9112L46 49.9091C46.0001 50.3001 45.8476 50.6757 45.5749 50.9559L41.2753 46.7709ZM40 59.0002C40 60.1936 40.4741 61.3382 41.318 62.1821L45.5607 57.9395C45.842 58.2208 46 58.6023 46 59.0002H40ZM41.318 62.1821C42.1619 63.0261 43.3065 63.5002 44.5 63.5002V57.5002C44.8978 57.5002 45.2794 57.6582 45.5607 57.9395L41.318 62.1821ZM44.5 63.5002H51.58V57.5002H44.5V63.5002ZM51.58 63.5002C52.7735 63.5002 53.9181 63.0261 54.762 62.1821L50.5193 57.9395C50.8006 57.6582 51.1822 57.5002 51.58 57.5002V63.5002ZM54.762 62.1821C55.6059 61.3382 56.08 60.1936 56.08 59.0002H50.08C50.08 58.6023 50.238 58.2208 50.5193 57.9395L54.762 62.1821ZM56.08 59.0002C56.08 57.8067 55.6059 56.6621 54.762 55.8182L50.5193 60.0608C50.238 59.7795 50.08 59.398 50.08 59.0002H56.08ZM54.762 55.8182C53.9181 54.9743 52.7735 54.5002 51.58 54.5002V60.5002C51.1822 60.5002 50.8006 60.3421 50.5193 60.0608L54.762 55.8182ZM51.58 54.5002H44.46V60.5002H51.58V54.5002ZM44.38 54.5012C43.2074 54.5325 42.0934 55.0204 41.2753 55.8609L45.5749 60.0459C45.3022 60.326 44.9308 60.4887 44.54 60.4991L44.38 54.5012ZM41.2753 55.8609C40.4572 56.7015 39.9996 57.8283 40 59.0012L46 58.9991C46.0001 59.3901 45.8476 59.7657 45.5749 60.0459L41.2753 55.8609ZM40 68.0002C40 69.1936 40.4741 70.3382 41.318 71.1821L45.5607 66.9395C45.842 67.2208 46 67.6023 46 68.0002H40ZM41.318 71.1821C42.1619 72.0261 43.3065 72.5002 44.5 72.5002V66.5002C44.8978 66.5002 45.2794 66.6582 45.5607 66.9395L41.318 71.1821ZM44.5 72.5002H51.58V66.5002H44.5V72.5002ZM51.58 72.5002C52.7735 72.5002 53.9181 72.0261 54.762 71.1821L50.5193 66.9395C50.8006 66.6582 51.1822 66.5002 51.58 66.5002V72.5002ZM54.762 71.1821C55.6059 70.3382 56.08 69.1936 56.08 68.0002H50.08C50.08 67.6023 50.238 67.2208 50.5193 66.9395L54.762 71.1821ZM56.08 68.0002C56.08 66.8067 55.6059 65.6621 54.762 64.8182L50.5193 69.0608C50.238 68.7795 50.08 68.398 50.08 68.0002H56.08ZM54.762 64.8182C53.9181 63.9743 52.7735 63.5002 51.58 63.5002V69.5002C51.1822 69.5002 50.8006 69.3421 50.5193 69.0608L54.762 64.8182ZM51.58 63.5002H44.46V69.5002H51.58V63.5002ZM44.38 63.5012C43.2074 63.5325 42.0934 64.0204 41.2753 64.8609L45.5749 69.0459C45.3022 69.326 44.9308 69.4887 44.54 69.4991L44.38 63.5012ZM41.2753 64.8609C40.4572 65.7015 39.9996 66.8283 40 68.0012L46 67.9991C46.0001 68.3901 45.8476 68.7657 45.5749 69.0459L41.2753 64.8609ZM25.86 49.9102C25.86 51.1036 26.3341 52.2482 27.178 53.0921L31.4207 48.8495C31.702 49.1308 31.86 49.5123 31.86 49.9102H25.86ZM27.178 53.0921C28.0219 53.936 29.1665 54.4102 30.36 54.4102V48.4102C30.7578 48.4102 31.1394 48.5682 31.4207 48.8495L27.178 53.0921ZM30.36 54.4102H37.44V48.4102H30.36V54.4102ZM37.44 54.4102C38.6335 54.4102 39.7781 53.936 40.622 53.0921L36.3793 48.8495C36.6606 48.5682 37.0422 48.4102 37.44 48.4102V54.4102ZM40.622 53.0921C41.4659 52.2482 41.94 51.1036 41.94 49.9102H35.94C35.94 49.5123 36.098 49.1308 36.3793 48.8495L40.622 53.0921ZM41.94 49.9102C41.94 48.7167 41.4659 47.5721 40.622 46.7282L36.3793 50.9708C36.098 50.6895 35.94 50.308 35.94 49.9102H41.94ZM40.622 46.7282C39.7781 45.8843 38.6335 45.4102 37.44 45.4102V51.4102C37.0422 51.4102 36.6606 51.2521 36.3793 50.9708L40.622 46.7282ZM37.44 45.4102H30.36V51.4102H37.44V45.4102ZM30.36 45.4102C29.1665 45.4102 28.0219 45.8843 27.178 46.7282L31.4207 50.9708C31.1394 51.2521 30.7578 51.4102 30.36 51.4102V45.4102ZM27.178 46.7282C26.3341 47.5721 25.86 48.7167 25.86 49.9102H31.86C31.86 50.308 31.702 50.6895 31.4207 50.9708L27.178 46.7282ZM25.86 58.9602C25.86 60.1536 26.3341 61.2982 27.178 62.1421L31.4207 57.8995C31.702 58.1808 31.86 58.5623 31.86 58.9602H25.86ZM27.178 62.1421C28.0219 62.9861 29.1665 63.4602 30.36 63.4602V57.4602C30.7578 57.4602 31.1393 57.6182 31.4207 57.8995L27.178 62.1421ZM30.36 63.4602H37.44V57.4602H30.36V63.4602ZM37.44 63.4602C38.6335 63.4602 39.7781 62.9861 40.622 62.1421L36.3793 57.8995C36.6606 57.6182 37.0422 57.4602 37.44 57.4602V63.4602ZM40.622 62.1421C41.4659 61.2982 41.94 60.1536 41.94 58.9602H35.94C35.94 58.5623 36.098 58.1808 36.3793 57.8995L40.622 62.1421ZM41.94 58.9602C41.94 57.7667 41.4659 56.6221 40.622 55.7782L36.3793 60.0208C36.098 59.7395 35.94 59.358 35.94 58.9602H41.94ZM40.622 55.7782C39.7781 54.9343 38.6335 54.4602 37.44 54.4602V60.4602C37.0422 60.4602 36.6606 60.3021 36.3793 60.0208L40.622 55.7782ZM37.44 54.4602H30.36V60.4602H37.44V54.4602ZM30.3611 54.4602C29.7599 54.4599 29.1647 54.5802 28.6108 54.8138L30.9423 60.3423C30.7577 60.4201 30.5593 60.4602 30.3589 60.4602L30.3611 54.4602ZM28.6108 54.8138C28.0569 55.0474 27.5554 55.3897 27.1359 55.8203L31.434 60.0068C31.2942 60.1503 31.127 60.2644 30.9423 60.3423L28.6108 54.8138ZM27.1359 55.8203C26.7164 56.251 26.3875 56.7613 26.1685 57.3212L31.7564 59.5065C31.6835 59.6931 31.5738 59.8632 31.434 60.0068L27.1359 55.8203ZM26.1685 57.3212C25.9496 57.8811 25.845 58.4792 25.8611 59.0802L31.8589 58.9202C31.8643 59.1205 31.8294 59.3199 31.7564 59.5065L26.1685 57.3212ZM31.86 59.0002V58.9602H25.86V59.0002H31.86ZM25.86 67.9602C25.86 69.1536 26.3341 70.2982 27.178 71.1421L31.4207 66.8995C31.702 67.1808 31.86 67.5623 31.86 67.9602H25.86ZM27.178 71.1421C28.0219 71.9861 29.1665 72.4602 30.36 72.4602V66.4602C30.7578 66.4602 31.1393 66.6182 31.4207 66.8995L27.178 71.1421ZM30.36 72.4602H37.44V66.4602H30.36V72.4602ZM37.44 72.4602C38.6335 72.4602 39.7781 71.9861 40.622 71.1421L36.3793 66.8995C36.6606 66.6182 37.0422 66.4602 37.44 66.4602V72.4602ZM40.622 71.1421C41.4659 70.2982 41.94 69.1536 41.94 67.9602H35.94C35.94 67.5623 36.098 67.1808 36.3793 66.8995L40.622 71.1421ZM41.94 67.9602C41.94 66.7667 41.4659 65.6221 40.622 64.7782L36.3793 69.0208C36.098 68.7395 35.94 68.358 35.94 67.9602H41.94ZM40.622 64.7782C39.7781 63.9343 38.6335 63.4602 37.44 63.4602V69.4602C37.0422 69.4602 36.6606 69.3021 36.3793 69.0208L40.622 64.7782ZM37.44 63.4602H30.36V69.4602H37.44V63.4602ZM30.3611 63.4602C29.7599 63.4599 29.1647 63.5802 28.6108 63.8138L30.9423 69.3423C30.7577 69.4201 30.5593 69.4602 30.3589 69.4602L30.3611 63.4602ZM28.6108 63.8138C28.0569 64.0474 27.5554 64.3897 27.1359 64.8203L31.434 69.0068C31.2942 69.1503 31.127 69.2644 30.9423 69.3423L28.6108 63.8138ZM27.1359 64.8203C26.7164 65.251 26.3875 65.7613 26.1685 66.3212L31.7564 68.5065C31.6835 68.6931 31.5738 68.8632 31.434 69.0068L27.1359 64.8203ZM26.1685 66.3212C25.9496 66.8811 25.845 67.4792 25.8611 68.0802L31.8589 67.9202C31.8643 68.1205 31.8294 68.3199 31.7564 68.5065L26.1685 66.3212ZM31.86 68.0002V67.9602H25.86V68.0002H31.86Z" fill="white" mask="url(#path-2-outside-1_1120_26410)"/>
</svg>
