<svg width="16" height="18" viewBox="0 0 16 18" fill="none" xmlns="http://www.w3.org/2000/svg">
<path d="M11.1594 0.66776C11.475 0.687501 11.7185 0.958018 11.7101 1.27956V2.14197C14.2174 2.38521 15.5 3.77096 15.5 6.26237V13.1543C15.5 15.9258 13.9203 17.3337 10.8116 17.3337H5.18841C2.07971 17.3337 0.5 15.9258 0.5 13.1543V6.26237C0.5 4.60389 1.06522 3.41715 2.22464 2.72428L2.30596 2.67793C2.47404 2.59948 2.67116 2.60667 2.83501 2.70179C3.02617 2.81277 3.13906 3.02429 3.12641 3.24781C3.11377 3.47133 2.97777 3.66828 2.77536 3.75622C2.00725 4.21323 1.64493 5.0093 1.64493 6.26237V6.4835H12.2174C12.5336 6.4835 12.7899 6.74421 12.7899 7.06581C12.7899 7.38742 12.5336 7.64812 12.2174 7.64812H1.64493V13.1543C1.64493 15.2698 2.67391 16.1469 5.18841 16.1617H10.8116C13.2899 16.1617 14.3478 15.2624 14.3478 13.1469V6.255C14.3478 4.41224 13.5435 3.52035 11.7101 3.30659V3.86679C11.6679 4.16538 11.4109 4.38336 11.1145 4.37198C10.8181 4.36061 10.578 4.12354 10.558 3.82256V1.22796L10.5686 1.13579C10.5922 1.01501 10.653 0.904072 10.7435 0.819836C10.8565 0.714541 11.0063 0.65976 11.1594 0.66776ZM11.4892 12.4978L11.5814 12.5038C11.7397 12.5236 11.888 12.5962 12.0026 12.7115C12.1401 12.85 12.2174 13.0386 12.2174 13.2354C12.2174 13.6425 11.893 13.9725 11.4928 13.9725C11.0925 13.9725 10.7681 13.6425 10.7681 13.2354C10.7681 12.8283 11.0925 12.4983 11.4928 12.4983L11.4892 12.4978ZM8.01449 12.4983L8.10539 12.504C8.46269 12.5495 8.73913 12.8596 8.73913 13.2354C8.73913 13.6425 8.4147 13.9725 8.01449 13.9725C7.61429 13.9725 7.28986 13.6425 7.28986 13.2354C7.28986 12.8283 7.61429 12.4983 8.01449 12.4983ZM4.54 12.4978L4.63215 12.5038C4.79038 12.5236 4.93876 12.5962 5.05332 12.7115C5.19079 12.85 5.26812 13.0386 5.26812 13.2354C5.26812 13.6425 4.94368 13.9725 4.54348 13.9725C4.14327 13.9725 3.81884 13.6425 3.81884 13.2354C3.81884 12.8283 4.14327 12.4983 4.54348 12.4983L4.54 12.4978ZM11.4892 9.51283L11.5814 9.5185C11.7397 9.53834 11.888 9.61089 12.0026 9.72626C12.1401 9.86471 12.2174 10.0533 12.2174 10.2501C12.2174 10.6572 11.893 10.9872 11.4928 10.9872C11.0925 10.9872 10.7681 10.6572 10.7681 10.2501C10.7681 9.84301 11.0925 9.513 11.4928 9.513L11.4892 9.51283ZM8.01449 9.513L8.10539 9.51874C8.46269 9.56422 8.73913 9.87432 8.73913 10.2501C8.73913 10.6572 8.4147 10.9872 8.01449 10.9872C7.61429 10.9872 7.28986 10.6572 7.28986 10.2501C7.28986 9.84301 7.61429 9.513 8.01449 9.513ZM4.54 9.51283L4.63215 9.5185C4.79038 9.53834 4.93876 9.61089 5.05332 9.72626C5.19079 9.86471 5.26812 10.0533 5.26812 10.2501C5.26812 10.6572 4.94368 10.9872 4.54348 10.9872C4.14327 10.9872 3.81884 10.6572 3.81884 10.2501C3.81884 9.84301 4.14327 9.513 4.54348 9.513L4.54 9.51283ZM4.86594 0.755698C5.16107 0.755698 5.40908 0.981231 5.44203 1.27956V2.083H8.71739C9.03355 2.083 9.28986 2.34371 9.28986 2.66531C9.28986 2.98691 9.03355 3.24762 8.71739 3.24762H5.42754V3.82993C5.42755 3.98566 5.36624 4.1349 5.25731 4.24432C5.14838 4.35374 5.0009 4.41421 4.84783 4.41224L4.76412 4.40388C4.49137 4.35595 4.28615 4.11237 4.28981 3.82256V1.27956L4.30599 1.19239C4.37287 0.93838 4.60033 0.755698 4.86594 0.755698Z" fill="#6B7A8B"/>
</svg>
