<svg width="144" height="144" viewBox="0 0 144 144" fill="none" xmlns="http://www.w3.org/2000/svg">
<g filter="url(#filter0_d_0_19)">
<rect x="20" y="10" width="104" height="104" rx="10" fill="white"/>
<path d="M88.2211 87.9448C88.2211 89.2654 87.3711 90.146 86.0203 90.146H57.1598C55.809 90.146 54.9589 89.3238 54.9589 87.9448V36.0301C54.9589 34.7077 55.985 33.8286 57.1598 33.8286H86.0203C87.2531 33.8286 88.2211 34.7658 88.2211 36.0301V87.9448Z" fill="#F4F4F4"/>
<path d="M57.8556 87.9448V36.0301C57.8556 34.7077 58.8813 33.8286 60.0564 33.8286H57.1598C55.985 33.8286 54.9589 34.7077 54.9589 36.0301V87.9448C54.9589 89.3238 55.809 90.146 57.1598 90.146H60.0564C58.7056 90.1463 57.8556 89.3238 57.8556 87.9448Z" fill="#F9F9F9"/>
<path d="M88.2211 38.1691H54.9589V83.0473H88.2211V38.1691Z" fill="#4D8BF2"/>
<path d="M72.6463 86.5664C72.6463 87.1496 72.174 87.6227 71.59 87.6227C71.006 87.6227 70.5337 87.1496 70.5337 86.5664C70.5337 85.9839 71.006 85.5104 71.59 85.5104C72.174 85.5104 72.6463 85.9836 72.6463 86.5664Z" fill="#4D8BF2"/>
<path d="M49.3747 63.6818C48.8825 63.6818 48.4102 63.4078 48.1791 62.9361C46.1959 58.8893 48.1263 55.3124 48.2093 55.1619C48.5654 54.518 49.3765 54.2869 50.0186 54.6421C50.6589 54.997 50.8927 55.8022 50.5419 56.4443C50.4794 56.5614 49.2145 59.0016 50.5689 61.7645C50.893 62.4242 50.6199 63.2218 49.9599 63.5451C49.7716 63.6381 49.5712 63.6818 49.3747 63.6818Z" fill="#4D8BF2"/>
<path d="M44.6781 68.1415C44.1478 68.1415 43.6471 67.8221 43.44 67.2988C39.5859 57.5358 43.3699 50.9458 43.5327 50.6703C43.9061 50.0373 44.7233 49.829 45.3558 50.2016C45.9864 50.575 46.197 51.3881 45.8263 52.0208C45.6799 52.2743 42.57 57.8458 45.9163 66.3214C46.1859 67.0052 45.8506 67.7781 45.1668 68.048C45.0067 68.1116 44.8412 68.1415 44.6781 68.1415Z" fill="#4D8BF2"/>
<path d="M40.0895 72.1899C39.5592 72.1899 39.0585 71.8704 38.8514 71.3471C33.1023 56.7852 38.7024 47.0304 38.9441 46.6223C39.3175 45.9896 40.1347 45.7811 40.7671 46.1536C41.3987 46.527 41.6084 47.341 41.2368 47.9737C41.1693 48.0916 36.089 57.102 41.3277 70.37C41.5973 71.0538 41.2617 71.8264 40.5782 72.0966C40.4178 72.1599 40.2523 72.1899 40.0895 72.1899Z" fill="#4D8BF2"/>
<path d="M93.6252 63.6818C93.4287 63.6818 93.2292 63.638 93.0403 63.5454C92.38 63.2221 92.1072 62.4245 92.431 61.7648C93.7898 58.9928 92.5126 56.5464 92.4572 56.4435C92.1125 55.7987 92.3498 54.992 92.9919 54.6424C93.6358 54.2924 94.4363 54.5218 94.7906 55.1622C94.8739 55.3127 96.8044 58.8893 94.8211 62.9364C94.5906 63.4075 94.1174 63.6818 93.6252 63.6818Z" fill="#4D8BF2"/>
<path d="M98.3215 68.1416C98.1587 68.1416 97.9932 68.1117 97.8328 68.048C97.149 67.7781 96.8137 67.0052 97.0833 66.3214C100.437 57.8291 97.3077 52.2526 97.1725 52.0191C96.8058 51.3852 97.0191 50.5712 97.6515 50.2013C98.2825 49.8332 99.0941 50.0403 99.4666 50.6706C99.6294 50.9461 103.413 57.5361 99.5593 67.2991C99.3528 67.8224 98.8518 68.1416 98.3215 68.1416Z" fill="#4D8BF2"/>
<path d="M102.91 72.1899C102.748 72.1899 102.582 72.1599 102.422 72.0963C101.738 71.8264 101.403 71.0535 101.672 70.3697C106.949 57.0057 101.817 48.0652 101.765 47.9767C101.391 47.3442 101.6 46.5279 102.233 46.1536C102.867 45.7811 103.682 45.9896 104.056 46.6223C104.298 47.0304 109.898 56.7852 104.149 71.3471C103.941 71.8704 103.441 72.1899 102.91 72.1899Z" fill="#4D8BF2"/>
<path d="M57.8556 38.1691H54.9589V83.0473H57.8556V38.1691Z" fill="#5356FF"/>
<path d="M86.0202 91.4771H84.2673C83.5325 91.4771 82.9364 90.8814 82.9364 90.1463C82.9364 89.4112 83.5325 88.8154 84.2673 88.8154H86.0202C86.6216 88.8154 86.8903 88.5467 86.8903 87.9451V36.0301C86.8903 35.5176 86.5324 35.1598 86.0202 35.1598H57.1598C56.7403 35.1598 56.2897 35.4323 56.2897 36.0301V42.8081C56.2897 43.5432 55.6937 44.139 54.9589 44.139C54.2241 44.139 53.628 43.5432 53.628 42.8081V36.0301C53.628 34.0492 55.1789 32.498 57.1598 32.498H86.0202C88.0011 32.498 89.552 34.0495 89.552 36.0301V87.9448C89.552 90.0242 88.1 91.4771 86.0202 91.4771Z" fill="black"/>
<path d="M77.9456 91.4771H57.1598C55.0472 91.4771 53.628 90.0577 53.628 87.9448V49.1297C53.628 48.3946 54.2241 47.7989 54.9589 47.7989C55.6937 47.7989 56.2897 48.3946 56.2897 49.1297V87.9448C56.2897 88.5713 56.5332 88.8151 57.1598 88.8151H77.9456C78.6804 88.8151 79.2765 89.4109 79.2765 90.146C79.2765 90.8811 78.6804 91.4771 77.9456 91.4771Z" fill="black"/>
<path d="M88.2211 84.3778H54.9589C54.2241 84.3778 53.628 83.7821 53.628 83.047V49.1297C53.628 48.3946 54.2241 47.7989 54.9589 47.7989C55.6937 47.7989 56.2897 48.3946 56.2897 49.1297V81.7161H86.89V39.4999H56.29V42.8081C56.29 43.5432 55.694 44.139 54.9592 44.139C54.2244 44.139 53.6283 43.5432 53.6283 42.8081V38.169C53.6283 37.434 54.2244 36.8382 54.9592 36.8382H88.2214C88.9562 36.8382 89.5523 37.434 89.5523 38.169V83.047C89.552 83.7824 88.9559 84.3778 88.2211 84.3778Z" fill="black"/>
<path d="M72.6463 86.5664C72.6463 87.1496 72.174 87.6227 71.59 87.6227C71.006 87.6227 70.5337 87.1496 70.5337 86.5664C70.5337 85.9839 71.006 85.5104 71.59 85.5104C72.174 85.5104 72.6463 85.9836 72.6463 86.5664Z" fill="black"/>
<path d="M49.3747 63.6817C48.8825 63.6817 48.4102 63.4077 48.1791 62.936C46.1959 58.8892 48.1263 55.3123 48.2093 55.1618C48.5654 54.518 49.3765 54.2868 50.0186 54.642C50.6589 54.997 50.8927 55.8022 50.5419 56.4443C50.4794 56.5613 49.2145 59.0016 50.5689 61.7645C50.893 62.4242 50.6199 63.2218 49.9599 63.545C49.7716 63.638 49.5712 63.6817 49.3747 63.6817Z" fill="black"/>
<path d="M44.6781 68.1415C44.1478 68.1415 43.6471 67.8221 43.44 67.2988C39.5859 57.5358 43.3699 50.9458 43.5327 50.6703C43.9061 50.0373 44.7233 49.829 45.3558 50.2016C45.9864 50.575 46.197 51.3881 45.8263 52.0208C45.6799 52.2743 42.57 57.8458 45.9163 66.3214C46.1859 67.0052 45.8506 67.7781 45.1668 68.048C45.0067 68.1116 44.8412 68.1415 44.6781 68.1415Z" fill="black"/>
<path d="M40.0895 72.1899C39.5592 72.1899 39.0585 71.8704 38.8514 71.3471C33.1023 56.7852 38.7024 47.0304 38.9441 46.6223C39.3175 45.9896 40.1347 45.7811 40.7671 46.1536C41.3987 46.527 41.6084 47.341 41.2368 47.9737C41.1693 48.0916 36.089 57.102 41.3277 70.37C41.5973 71.0538 41.2617 71.8264 40.5782 72.0966C40.4178 72.1599 40.2523 72.1899 40.0895 72.1899Z" fill="black"/>
<path d="M93.6252 63.6818C93.4287 63.6818 93.2292 63.638 93.0403 63.5454C92.38 63.2221 92.1072 62.4245 92.431 61.7648C93.7898 58.9928 92.5126 56.5464 92.4572 56.4435C92.1125 55.7987 92.3498 54.992 92.9919 54.6424C93.6358 54.2924 94.4363 54.5218 94.7906 55.1622C94.8739 55.3127 96.8044 58.8893 94.8211 62.9364C94.5906 63.4075 94.1174 63.6818 93.6252 63.6818Z" fill="black"/>
<path d="M98.3215 68.1416C98.1587 68.1416 97.9932 68.1117 97.8328 68.048C97.149 67.7781 96.8137 67.0052 97.0833 66.3214C100.437 57.8291 97.3077 52.2526 97.1725 52.0191C96.8058 51.3852 97.0191 50.5712 97.6515 50.2013C98.2825 49.8332 99.0941 50.0403 99.4666 50.6706C99.6294 50.9461 103.413 57.5361 99.5593 67.2991C99.3528 67.8224 98.8518 68.1416 98.3215 68.1416Z" fill="black"/>
<path d="M102.91 72.1899C102.748 72.1899 102.582 72.1599 102.422 72.0963C101.738 71.8264 101.403 71.0535 101.672 70.3697C106.949 57.0057 101.817 48.0652 101.765 47.9767C101.391 47.3442 101.6 46.5279 102.233 46.1536C102.867 45.7811 103.682 45.9896 104.056 46.6223C104.298 47.0304 109.898 56.7852 104.149 71.3471C103.941 71.8704 103.441 72.1899 102.91 72.1899Z" fill="black"/>
</g>
<defs>
<filter id="filter0_d_0_19" x="0" y="0" width="144" height="144" filterUnits="userSpaceOnUse" color-interpolation-filters="sRGB">
<feFlood flood-opacity="0" result="BackgroundImageFix"/>
<feColorMatrix in="SourceAlpha" type="matrix" values="0 0 0 0 0 0 0 0 0 0 0 0 0 0 0 0 0 0 127 0" result="hardAlpha"/>
<feOffset dy="10"/>
<feGaussianBlur stdDeviation="10"/>
<feComposite in2="hardAlpha" operator="out"/>
<feColorMatrix type="matrix" values="0 0 0 0 0.680417 0 0 0 0 0.685347 0 0 0 0 0.8875 0 0 0 0.34 0"/>
<feBlend mode="normal" in2="BackgroundImageFix" result="effect1_dropShadow_0_19"/>
<feBlend mode="normal" in="SourceGraphic" in2="effect1_dropShadow_0_19" result="shape"/>
</filter>
</defs>
</svg>
