<svg width="68" height="68" viewBox="0 0 68 68" fill="none" xmlns="http://www.w3.org/2000/svg">
<g clip-path="url(#clip0_1120_26414)">
<path d="M19.72 41.4804V20.4004H6.8C3.06 20.4004 0 23.4604 0 27.2004V47.6004C0 51.3404 3.06 54.4004 6.8 54.4004H10.2V64.6004L20.4 54.4004H37.4C41.14 54.4004 44.2 51.3404 44.2 47.6004V41.4124C43.9765 41.4604 43.7486 41.4843 43.52 41.4838H19.72V41.4804Z" fill="#292A78"/>
<path d="M61.4 4H30.8C27.06 4 24 7.06 24 10.8V38H47.8L58 48.2V38H61.4C65.14 38 68.2 34.9434 68.2 31.2V10.8C68.2 7.06 65.14 4 61.4 4Z" fill="#0FB4FD"/>
</g>
<defs>
<clipPath id="clip0_1120_26414">
<rect width="68" height="68" fill="white"/>
</clipPath>
</defs>
</svg>
