<svg width="80" height="80" viewBox="0 0 80 80" fill="none" xmlns="http://www.w3.org/2000/svg">
<path d="M70.0606 30.4244C69.4545 28.7275 68.8485 27.0305 68 25.4547C66.303 26.6668 64.3636 27.2729 62.303 27.2729C54.4242 27.2729 49.8182 18.3032 54.5455 11.879C52.9697 11.0305 51.2727 10.3032 49.5758 9.81836C47.8788 20.7275 32.1212 20.7275 30.5455 9.81836C28.8485 10.4244 27.1515 11.0305 25.5758 11.879C32.1212 20.7275 20.8485 31.879 12.1212 25.3335C11.2727 26.9093 10.5455 28.6062 10.0606 30.3032C20.9697 32.0002 20.9697 47.7578 10.0606 49.3335C10.6667 51.0305 11.2727 52.7274 12.1212 54.3032C13.8182 53.0911 15.7576 52.485 17.8182 52.485C25.697 52.485 30.303 61.4547 25.5758 67.879C27.1515 68.7275 28.8485 69.4547 30.5455 69.9396C32.2424 59.0305 48 59.0305 49.5758 69.9396C51.2727 69.3335 52.9697 68.7275 54.5455 67.879C49.9394 61.5759 54.4242 52.485 62.303 52.485C64.3636 52.485 66.303 53.0911 68 54.3032C68.8485 52.7274 69.5758 51.0305 70.0606 49.3335C59.1515 47.879 59.1515 32.1214 70.0606 30.4244ZM40 59.3941C29.3333 59.3941 20.6061 50.6668 20.6061 40.0002C20.6061 29.3335 29.3333 20.6062 40 20.6062C50.6667 20.6062 59.3939 29.3335 59.3939 40.0002C59.3939 50.6668 50.6667 59.3941 40 59.3941Z" fill="#292A78"/>
<path d="M40 15.7574C44.0166 15.7574 47.2727 12.5013 47.2727 8.48464C47.2727 4.46802 44.0166 1.21191 40 1.21191C35.9834 1.21191 32.7273 4.46802 32.7273 8.48464C32.7273 12.5013 35.9834 15.7574 40 15.7574Z" fill="#0FB4FD"/>
<path d="M40 78.7876C44.0166 78.7876 47.2727 75.5315 47.2727 71.5149C47.2727 67.4983 44.0166 64.2422 40 64.2422C35.9834 64.2422 32.7273 67.4983 32.7273 71.5149C32.7273 75.5315 35.9834 78.7876 40 78.7876Z" fill="#0FB4FD"/>
<path d="M62.303 24.9693C66.3196 24.9693 69.5758 21.7132 69.5758 17.6966C69.5758 13.6799 66.3196 10.4238 62.303 10.4238C58.2864 10.4238 55.0303 13.6799 55.0303 17.6966C55.0303 21.7132 58.2864 24.9693 62.303 24.9693Z" fill="#0FB4FD"/>
<path d="M17.697 69.5757C21.7136 69.5757 24.9697 66.3196 24.9697 62.303C24.9697 58.2864 21.7136 55.0303 17.697 55.0303C13.6804 55.0303 10.4243 58.2864 10.4243 62.303C10.4243 66.3196 13.6804 69.5757 17.697 69.5757Z" fill="#0FB4FD"/>
<path d="M71.5152 47.273C75.5318 47.273 78.7879 44.0169 78.7879 40.0003C78.7879 35.9836 75.5318 32.7275 71.5152 32.7275C67.4985 32.7275 64.2424 35.9836 64.2424 40.0003C64.2424 44.0169 67.4985 47.273 71.5152 47.273Z" fill="#0FB4FD"/>
<path d="M8.48486 47.273C12.5015 47.273 15.7576 44.0169 15.7576 40.0003C15.7576 35.9836 12.5015 32.7275 8.48486 32.7275C4.46824 32.7275 1.21213 35.9836 1.21213 40.0003C1.21213 44.0169 4.46824 47.273 8.48486 47.273Z" fill="#0FB4FD"/>
<path d="M62.303 69.5757C66.3196 69.5757 69.5758 66.3196 69.5758 62.303C69.5758 58.2864 66.3196 55.0303 62.303 55.0303C58.2864 55.0303 55.0303 58.2864 55.0303 62.303C55.0303 66.3196 58.2864 69.5757 62.303 69.5757Z" fill="#0FB4FD"/>
<path d="M17.697 24.9693C21.7136 24.9693 24.9697 21.7132 24.9697 17.6966C24.9697 13.6799 21.7136 10.4238 17.697 10.4238C13.6804 10.4238 10.4243 13.6799 10.4243 17.6966C10.4243 21.7132 13.6804 24.9693 17.697 24.9693Z" fill="#0FB4FD"/>
<g clip-path="url(#clip0_1120_26398)">
<path d="M51 45.5L49.075 36.2875C48.8 35.325 47.8375 34.5 46.7375 34.5H44.125V32.85C44.125 31.475 43.025 30.375 41.65 30.375H38.35C36.975 30.375 35.875 31.475 35.875 32.85V34.5H33.2625C32.1625 34.5 31.2 35.325 30.925 36.2875L29 45.5C28.725 46.875 29.825 48.25 31.3375 48.25H48.525C50.175 48.25 51.275 46.875 51 45.5ZM37.25 32.85C37.25 32.3 37.8 31.75 38.35 31.75H41.65C42.2 31.75 42.75 32.3 42.75 32.85V34.5H37.25V32.85ZM44.125 42.75H41.375V45.5H38.625V42.75H35.875V40H38.625V37.25H41.375V40H44.125V42.75Z" fill="#0FB4FD"/>
</g>
<defs>
<clipPath id="clip0_1120_26398">
<rect width="22" height="22" fill="white" transform="translate(29 29)"/>
</clipPath>
</defs>
</svg>
