<svg width="91" height="90" viewBox="0 0 91 90" fill="none" xmlns="http://www.w3.org/2000/svg">
<g clip-path="url(#clip0_1120_42060)">
<path d="M88.5 7H75.5V2C75.5 0.896 74.604 0 73.5 0H65.5C64.396 0 63.5 0.896 63.5 2V7H27.5V2C27.5 0.896 26.604 0 25.5 0H17.5C16.396 0 15.5 0.896 15.5 2V7H2.5C1.396 7 0.5 7.896 0.5 9V23V66V84C0.5 86.645 4.267 90 8.5 90H82.5C86.911 90 90.5 86.411 90.5 82V75V23V9C90.5 7.896 89.604 7 88.5 7ZM67.5 4H71.5V7H67.5V4ZM19.5 4H23.5V7H19.5V4ZM15.5 11V16C15.5 17.104 16.396 18 17.5 18C18.604 18 19.5 17.104 19.5 16V11H63.5V16C63.5 17.104 64.396 18 65.5 18C66.604 18 67.5 17.104 67.5 16V11H86.5V21H4.5V11H15.5ZM86.5 75C86.5 77.206 84.706 79 82.5 79H19.5V66C19.5 64.896 18.604 64 17.5 64H4.5V25H86.5V75ZM7.328 68H15.5V76.172L7.328 68ZM82.5 86H8.5C6.429 86 4.783 84.471 4.5 83.857V70.828L16.085 82.413C16.177 82.506 16.279 82.589 16.388 82.662C16.415 82.68 16.445 82.691 16.472 82.708C16.556 82.759 16.64 82.808 16.731 82.846C16.769 82.862 16.81 82.869 16.849 82.883C16.933 82.912 17.015 82.943 17.104 82.96C17.234 82.986 17.366 83 17.5 83H82.5C83.958 83 85.322 82.602 86.5 81.918V82C86.5 84.206 84.706 86 82.5 86Z" fill="black"/>
<path d="M6 62.5V26.5H85V77H21.5V62.5H6Z" fill="#D8F7FF"/>
<path d="M25 49.5L37.5 62.5L63 37.5" stroke="#687EFF" stroke-width="3.5" stroke-linecap="round"/>
</g>
<defs>
<clipPath id="clip0_1120_42060">
<rect width="90" height="90" fill="white" transform="translate(0.5)"/>
</clipPath>
</defs>
</svg>
