<svg width="48" height="48" viewBox="0 0 48 48" fill="none" xmlns="http://www.w3.org/2000/svg">
<rect x="0.5" y="0.5" width="47" height="47" rx="8.5" fill="#FFF7E3"/>
<rect x="0.5" y="0.5" width="47" height="47" rx="8.5" stroke="#FFB600"/>
<path fill-rule="evenodd" clip-rule="evenodd" d="M29.1942 14.1906C29.206 13.7404 28.865 13.3617 28.4232 13.3341C28.2089 13.3229 27.9991 13.3996 27.8408 13.547C27.7142 13.6649 27.629 13.8202 27.596 13.9893L27.5812 14.1184V17.7508C27.6092 18.1722 27.9454 18.5041 28.3603 18.52C28.7752 18.5359 29.135 18.2307 29.1942 17.8127V17.0284C31.7609 17.3277 32.887 18.5764 32.887 21.1562V27H34.5V21.1665C34.5 17.6786 32.7043 15.7385 29.1942 15.398V14.1906ZM26 36.6663V35.0255H20.0638C16.5435 35.0049 15.1029 33.7769 15.1029 30.8152V23.1066H29.9043C30.347 23.1066 30.7058 22.7416 30.7058 22.2914C30.7058 21.8411 30.347 21.4761 29.9043 21.4761H15.1029V21.1665C15.1029 19.4122 15.6101 18.2977 16.6855 17.6579C16.9689 17.5348 17.1593 17.2591 17.177 16.9462C17.1947 16.6332 17.0366 16.3371 16.769 16.1817C16.5396 16.0486 16.2637 16.0385 16.0283 16.1483L15.9145 16.2132C14.2913 17.1832 13.5 18.8447 13.5 21.1665V30.8152C13.5 34.6953 15.7116 36.6663 20.0638 36.6663H26ZM29.8742 27H27.9055C27.8858 26.9198 27.8754 26.8358 27.8754 26.7494C27.8754 26.1798 28.329 25.718 28.8887 25.7174L29.014 25.7251C29.2355 25.7529 29.4433 25.8545 29.6036 26.016C29.7961 26.2098 29.9043 26.4739 29.9043 26.7494C29.9043 26.8358 29.8939 26.9198 29.8742 27ZM28.8887 25.7174C28.8891 25.7174 28.8895 25.7174 28.8899 25.7174L28.8848 25.7172L28.8887 25.7174ZM19.285 29.9045L19.156 29.8962L19.1609 29.8968C18.6006 29.8968 18.1464 30.3588 18.1464 30.9287C18.1464 31.4987 18.6006 31.9607 19.1609 31.9607C19.7212 31.9607 20.1754 31.4987 20.1754 30.9287C20.1754 30.6532 20.0671 30.3892 19.8746 30.1954C19.7143 30.0338 19.5065 29.9323 19.285 29.9045ZM24.1475 25.7255L24.0203 25.7174C23.46 25.7174 23.0058 26.1794 23.0058 26.7494C23.0058 27.3193 23.46 27.7813 24.0203 27.7813C24.5806 27.7813 25.0348 27.3193 25.0348 26.7494C25.0348 26.2233 24.6478 25.7891 24.1475 25.7255ZM19.1599 25.7174L19.156 25.7172L19.1609 25.7174C19.1605 25.7174 19.1602 25.7174 19.1599 25.7174ZM19.285 25.7251L19.1599 25.7174C18.6 25.718 18.1464 26.1798 18.1464 26.7494C18.1464 27.3193 18.6006 27.7813 19.1609 27.7813C19.7212 27.7813 20.1754 27.3193 20.1754 26.7494C20.1754 26.4739 20.0671 26.2098 19.8746 26.016C19.7143 25.8545 19.5065 25.7529 19.285 25.7251ZM20.4188 14.1906C20.3727 13.7729 20.0255 13.4572 19.6123 13.4572C19.2405 13.4572 18.922 13.713 18.8284 14.0686L18.8057 14.1906V17.7508C18.8006 18.1565 19.0879 18.4975 19.4698 18.5647L19.587 18.5764C19.8013 18.5791 20.0077 18.4944 20.1602 18.3413C20.3127 18.1881 20.3986 17.9791 20.3986 17.7611V16.9459H25.0043C25.447 16.9459 25.8058 16.5809 25.8058 16.1307C25.8058 15.6804 25.447 15.3154 25.0043 15.3154H20.4188V14.1906Z" fill="#F4AE00"/>
<path d="M37.9151 28.7138C37.859 28.5725 37.7768 28.4441 37.6732 28.3359V28.3406C37.5696 28.2325 37.4466 28.1467 37.3112 28.0883C37.1759 28.0299 37.0308 27.9999 36.8843 28C36.7379 28.0001 36.5929 28.0304 36.4576 28.0891C36.3224 28.1478 36.1995 28.2338 36.0961 28.3421L30.4966 34.1912L28.8897 32.5127C28.6796 32.3005 28.398 32.183 28.1057 32.1855C27.8134 32.188 27.5337 32.3103 27.3269 32.5262C27.1201 32.742 27.0027 33.034 27 33.3393C26.9974 33.6447 27.1096 33.9389 27.3126 34.1586L29.7058 36.6601C29.915 36.8778 30.1983 37 30.4936 37C30.7889 37 31.0722 36.8778 31.2814 36.6601L37.6732 29.9834C37.7768 29.8752 37.859 29.7468 37.9151 29.6055C37.9711 29.4641 38 29.3126 38 29.1596C38 29.0066 37.9711 28.8552 37.9151 28.7138Z" fill="#F4AE00"/>
</svg>
