<svg width="28" height="28" viewBox="0 0 28 28" fill="none" xmlns="http://www.w3.org/2000/svg">
<rect width="28" height="28" rx="14" fill="white"/>
<path d="M20.0275 10.7002L19.7334 19.5727C19.7084 20.3325 19.3873 21.0528 18.8383 21.5805C18.2893 22.1082 17.5556 22.4019 16.793 22.3992H11.2062C10.4441 22.4019 9.71087 22.1086 9.16196 21.5815C8.61306 21.0544 8.29164 20.3349 8.26584 19.5756L7.9718 10.7002C7.96537 10.5059 8.03665 10.3169 8.16996 10.1749C8.30327 10.033 8.48769 9.94961 8.68265 9.94319C8.87761 9.93678 9.06714 10.0078 9.20955 10.1407C9.35195 10.2736 9.43557 10.4575 9.44201 10.6518L9.73605 19.5265C9.75069 19.9053 9.91202 20.2638 10.1862 20.5266C10.4603 20.7894 10.8259 20.936 11.2062 20.9357H16.793C17.1738 20.936 17.5399 20.7889 17.8141 20.5255C18.0883 20.2621 18.2493 19.9029 18.2632 19.5236L18.5573 10.6518C18.5637 10.4575 18.6473 10.2736 18.7897 10.1407C18.9321 10.0078 19.1217 9.93678 19.3166 9.94319C19.5116 9.94961 19.696 10.033 19.8293 10.1749C19.9626 10.3169 20.0339 10.5059 20.0275 10.7002ZM21 7.74762C21 7.94198 20.9226 8.12838 20.7847 8.26581C20.6468 8.40324 20.4599 8.48045 20.2649 8.48045H7.7351C7.54014 8.48045 7.35316 8.40324 7.21531 8.26581C7.07745 8.12838 7 7.94198 7 7.74762C7 7.55326 7.07745 7.36686 7.21531 7.22942C7.35316 7.09199 7.54014 7.01478 7.7351 7.01478H10.0139C10.2468 7.01541 10.4716 6.92962 10.6446 6.77411C10.8176 6.61861 10.9263 6.40451 10.9497 6.17349C11.0039 5.63154 11.2586 5.12914 11.6641 4.76417C12.0696 4.39921 12.5969 4.19781 13.1432 4.19923H14.856C15.4023 4.19781 15.9296 4.39921 16.3351 4.76417C16.7406 5.12914 16.9953 5.63154 17.0496 6.17349C17.0729 6.40451 17.1817 6.61861 17.3546 6.77411C17.5276 6.92962 17.7524 7.01541 17.9854 7.01478H20.2642C20.4591 7.01478 20.6461 7.09199 20.784 7.22942C20.9218 7.36686 20.9993 7.55326 20.9993 7.74762H21ZM12.2258 7.01478H15.7749C15.6783 6.79474 15.6151 6.56158 15.5875 6.32298C15.5692 6.14235 15.4844 5.97488 15.3494 5.85302C15.2144 5.73117 15.0389 5.66361 14.8568 5.66343H13.144C12.9619 5.66361 12.7863 5.73117 12.6513 5.85302C12.5163 5.97488 12.4315 6.14235 12.4133 6.32298C12.3854 6.56162 12.3227 6.79478 12.2258 7.01478ZM12.9661 18.118V11.8779C12.9661 11.6835 12.8886 11.4971 12.7508 11.3597C12.6129 11.2223 12.4259 11.145 12.231 11.145C12.036 11.145 11.849 11.2223 11.7112 11.3597C11.5733 11.4971 11.4959 11.6835 11.4959 11.8779V18.1209C11.4959 18.3153 11.5733 18.5017 11.7112 18.6391C11.849 18.7765 12.036 18.8537 12.231 18.8537C12.4259 18.8537 12.6129 18.7765 12.7508 18.6391C12.8886 18.5017 12.9661 18.3153 12.9661 18.1209V18.118ZM16.5049 18.118V11.8779C16.5049 11.6835 16.4274 11.4971 16.2895 11.3597C16.1517 11.2223 15.9647 11.145 15.7698 11.145C15.5748 11.145 15.3878 11.2223 15.25 11.3597C15.1121 11.4971 15.0347 11.6835 15.0347 11.8779V18.1209C15.0347 18.3153 15.1121 18.5017 15.25 18.6391C15.3878 18.7765 15.5748 18.8537 15.7698 18.8537C15.9647 18.8537 16.1517 18.7765 16.2895 18.6391C16.4274 18.5017 16.5049 18.3153 16.5049 18.1209V18.118Z" fill="#687EFF"/>
</svg>
