<svg width="19" height="21" viewBox="0 0 19 21" fill="none" xmlns="http://www.w3.org/2000/svg">
<path fill-rule="evenodd" clip-rule="evenodd" d="M2.5 6.5V19C2.5 19.3978 2.65804 19.7794 2.93934 20.0607C3.22064 20.342 3.60218 20.5 4 20.5H15C15.3978 20.5 15.7794 20.342 16.0607 20.0607C16.342 19.7794 16.5 19.3978 16.5 19V6.5H2.5Z" stroke="#F04B55"/>
<path d="M5.5 9.41V17.59M9.5 9.41V17.59M13.5 9.41V17.59M6 3.333V2.244C6 1.557 6.627 1 7.4 1H11.6C12.373 1 13 1.557 13 2.244V3.334" stroke="#F04B55" stroke-linecap="round"/>
<path d="M17 3.5H2C1.17157 3.5 0.5 4.17157 0.5 5C0.5 5.82843 1.17157 6.5 2 6.5H17C17.8284 6.5 18.5 5.82843 18.5 5C18.5 4.17157 17.8284 3.5 17 3.5Z" stroke="#F04B55"/>
</svg>
