<svg width="125" height="124" viewBox="0 0 125 124" fill="none" xmlns="http://www.w3.org/2000/svg">
<rect x="2.1" y="1.6" width="120.8" height="120.8" rx="60.4" fill="#F9F9FC"/>
<rect x="2.1" y="1.6" width="120.8" height="120.8" rx="60.4" stroke="#C5C6E0" stroke-width="3.2"/>
<circle cx="96.5" cy="90.5" r="4.5" fill="#D8F7FF"/>
<path d="M37.5002 33.0833C39.9395 33.0833 41.9168 31.1059 41.9168 28.6667C41.9168 26.2274 39.9395 24.25 37.5002 24.25C35.8653 24.25 34.4381 25.1382 33.6744 26.4583H33.0835C29.4246 26.4583 26.4585 29.4245 26.4585 33.0833V52.9583H30.8752V33.0833C30.8752 31.8637 31.8639 30.875 33.0835 30.875H33.6744C34.4381 32.1951 35.8653 33.0833 37.5002 33.0833Z" fill="#C5C6E0"/>
<path d="M33 55H26.5C27.7 69.4 42 74.6667 49 75.5C63 75.1 69.1667 62 70.5 55.5H63.5C60.7 64.7 52.6667 67.3333 49 67.5C39.8 67.9 34.5 59.3333 33 55Z" fill="#D8F7FF"/>
<path fill-rule="evenodd" clip-rule="evenodd" d="M33.4372 52.9583H30.8751H26.4584C25.2388 52.9583 24.2398 53.9492 24.3504 55.1638C24.8638 60.7977 27.3322 66.1023 31.365 70.1352C34.3223 73.0924 37.9634 75.2084 41.9168 76.3291V81.6667C41.9168 84.5516 43.7607 87.0057 46.3343 87.9149C46.4284 96.6765 53.5602 103.75 62.3439 103.75C71.1862 103.75 78.3543 96.582 78.3543 87.7396V78.9062C78.3543 74.3326 82.0618 70.625 86.6355 70.625C91.2092 70.625 94.9168 74.3326 94.9168 78.9062V84.252C92.3436 85.1614 90.5001 87.6155 90.5001 90.5C90.5001 94.159 93.4661 97.125 97.1251 97.125C100.784 97.125 103.75 94.159 103.75 90.5C103.75 87.6155 101.907 85.1614 99.3334 84.252V78.9062C99.3334 71.8935 93.6483 66.2083 86.6355 66.2083C79.6227 66.2083 73.9376 71.8935 73.9376 78.9062V87.7396C73.9376 94.1426 68.7469 99.3333 62.3439 99.3333C55.9991 99.3333 50.8448 94.2367 50.7514 87.9143C53.3239 87.0044 55.1668 84.5507 55.1668 81.6667V76.3291C59.1201 75.2084 62.7615 73.0924 65.7186 70.1352C69.7515 66.1023 72.2197 60.7977 72.7332 55.1638C72.844 53.9492 71.8448 52.9583 70.6251 52.9583V33.0833C70.6251 29.4245 67.6591 26.4583 64.0001 26.4583H63.4092C62.6455 25.1382 61.2183 24.25 59.5834 24.25C57.1441 24.25 55.1668 26.2274 55.1668 28.6667C55.1668 31.1059 57.1441 33.0833 59.5834 33.0833C61.2183 33.0833 62.6455 32.1951 63.4092 30.875H64.0001C65.2198 30.875 66.2084 31.8637 66.2084 33.0833V52.9583H63.6466C62.4269 52.9583 61.4574 53.9541 61.2496 55.1561C60.7991 57.7606 59.5552 60.1833 57.6609 62.0774C55.2425 64.496 51.9623 65.8548 48.5418 65.8548C45.1215 65.8548 41.8412 64.496 39.4227 62.0774C37.5286 60.1833 36.2844 57.7606 35.8339 55.1561C35.6261 53.9541 34.6567 52.9583 33.4372 52.9583ZM65.282 57.375H67.9199C67.0946 60.9958 65.2635 64.3443 62.5956 67.0122C58.8684 70.7394 53.8131 72.8333 48.5418 72.8333C43.2707 72.8333 38.2154 70.7394 34.4882 67.0122C31.8202 64.3443 29.9891 60.9958 29.1637 57.375H31.8016C32.5761 60.3101 34.1161 63.0168 36.2997 65.2004C39.5466 68.4474 43.9502 70.2714 48.5418 70.2714C53.1336 70.2714 57.5372 68.4474 60.7841 65.2004C62.9677 63.0168 64.5076 60.3101 65.282 57.375ZM97.1251 88.2917C98.3448 88.2917 99.3334 89.2803 99.3334 90.5C99.3334 91.7197 98.3448 92.7083 97.1251 92.7083C95.9054 92.7083 94.9168 91.7197 94.9168 90.5C94.9168 89.2803 95.9054 88.2917 97.1251 88.2917ZM50.7501 77.25V81.6667C50.7501 82.8863 49.7614 83.875 48.5418 83.875C47.3221 83.875 46.3334 82.8863 46.3334 81.6667V77.25H50.7501Z" fill="#C5C6E0"/>
<line x1="106.252" y1="20.058" x2="15.4814" y2="101.808" stroke="#C5C6E0" stroke-width="3.2"/>
</svg>
