<svg width="48" height="48" viewBox="0 0 48 48" fill="none" xmlns="http://www.w3.org/2000/svg">
<rect width="48" height="48" rx="24" fill="#687EFF"/>
<path d="M22.9123 8.09872C20.8727 8.47688 19.0753 9.89147 18.0937 11.8943C17.1122 13.9252 17.0739 16.5443 18.0172 18.6031C19.496 21.8665 23.0016 23.4492 26.1247 22.2867C28.1006 21.5444 29.6558 19.8356 30.306 17.6927C30.9816 15.4798 30.7012 13.1969 29.5156 11.208C29.2224 10.7038 28.2026 9.58334 27.7437 9.26121C26.2905 8.21077 24.5568 7.79059 22.9123 8.09872Z" fill="white"/>
<path d="M23.0275 25.3411C21.8919 25.3937 19.9721 25.5907 19.607 25.7089C19.4989 25.7352 19.4989 25.9191 19.4989 28.2571V30.7659L19.7152 30.871C20.6075 31.2913 21.0131 32.3816 20.621 33.2747C20.4182 33.7213 19.9045 34.1679 19.4448 34.2993C18.7147 34.5094 17.9306 34.2993 17.4439 33.7476C17.1329 33.4061 16.9977 33.0252 16.9977 32.4998C16.9977 31.8167 17.4168 31.1731 18.0387 30.8842L18.2415 30.7922V28.4279C18.2415 26.7072 18.228 26.0504 18.1739 26.0504C17.9847 26.0504 16.7003 26.5233 16.0513 26.8123C12.8877 28.2965 11.0491 30.8842 10.7246 34.3518C10.684 34.759 10.657 35.928 10.6705 37.0051C10.684 38.8309 10.6975 38.936 10.8327 39.1593C10.995 39.4482 11.2924 39.7372 11.6034 39.8948C11.8197 39.9999 12.2388 39.9999 24.0009 39.9999H36.1822L36.4391 39.8686C36.7365 39.7109 37.0339 39.422 37.1962 39.1199C37.3043 38.9228 37.3178 38.7127 37.3314 36.992C37.3584 33.7607 37.1556 32.5392 36.2768 30.8185C35.398 29.0978 33.9244 27.7317 31.9505 26.8123C31.3016 26.5102 30.0172 26.0504 29.8279 26.0504C29.7738 26.0504 29.7603 26.4576 29.7738 27.5216L29.7874 28.9927L30.1254 29.0715C31.3556 29.3736 32.2885 30.3325 32.6941 31.7117C32.978 32.6968 32.9239 34.2205 32.5454 35.2056C32.4507 35.442 32.4102 35.6522 32.4372 35.8098C32.4778 36.1645 32.3967 36.4403 32.1804 36.6899C31.7477 37.1759 31.0717 37.2021 30.6121 36.7818C30.3552 36.5454 30.2606 36.3352 30.2606 36.0068C30.2606 35.5077 30.585 35.0743 31.0447 34.9692C31.3286 34.9035 31.3692 34.851 31.4908 34.3781C31.6396 33.8396 31.6531 32.6968 31.5179 32.2108C31.1934 30.9498 30.4633 30.2931 29.3007 30.2274C28.2056 30.1617 27.4755 30.5558 27.0023 31.4752C26.6373 32.1845 26.5156 33.301 26.7184 34.1942C26.8536 34.7853 26.9212 34.956 27.0834 34.956C27.3268 34.956 27.7053 35.2187 27.854 35.4946C28.3678 36.4403 27.3403 37.4517 26.3669 36.9526C25.9478 36.7293 25.7044 36.2433 25.7991 35.7967C25.8261 35.6522 25.7991 35.4946 25.7044 35.2581C25.434 34.6145 25.3529 33.984 25.3799 33.012C25.4205 32.0006 25.5016 31.6329 25.8802 30.8842C26.3128 29.991 27.1916 29.2948 28.138 29.0846L28.4624 29.0058L28.476 27.3902C28.4895 26.011 28.476 25.7615 28.3948 25.7352C28.2326 25.6695 27.0429 25.5119 26.2858 25.4594C25.4746 25.3543 23.7441 25.3149 23.0275 25.3411Z" fill="white"/>
</svg>
