<svg width="18" height="19" viewBox="0 0 18 19" fill="none" xmlns="http://www.w3.org/2000/svg">
<path d="M16.3167 15.9549L13.7386 13.4344L13.6782 13.3425C13.5658 13.2306 13.4122 13.1676 13.2519 13.1676C13.0915 13.1676 12.9379 13.2306 12.8256 13.3425C10.6346 15.3525 7.25861 15.4618 4.9365 13.5978C2.6144 11.7338 2.06675 8.47502 3.65676 5.98263C5.24678 3.49023 8.48105 2.53764 11.2146 3.7566C13.9482 4.97557 15.3329 7.98784 14.4503 10.7957C14.3867 10.9985 14.4387 11.2191 14.5866 11.3744C14.7345 11.5296 14.9558 11.5959 15.1673 11.5483C15.3787 11.5007 15.5482 11.3464 15.6117 11.1436C16.6668 7.81148 15.0733 4.22567 11.8621 2.70579C8.65087 1.18592 4.78563 2.18812 2.76679 5.06406C0.747953 7.94001 1.18138 11.8266 3.7867 14.2096C6.39201 16.5926 10.3873 16.7569 13.1881 14.5962L15.4707 16.8279C15.7065 17.0574 16.0876 17.0574 16.3234 16.8279C16.5589 16.5952 16.5589 16.2204 16.3234 15.9877L16.3167 15.9549Z" fill="#656288"/>
</svg>
