<svg width="20" height="20" viewBox="0 0 20 20" fill="none" xmlns="http://www.w3.org/2000/svg">
<path d="M9.98547 2.00012C9.86864 2.00197 9.75332 2.0268 9.6461 2.07318C9.53888 2.11956 9.44186 2.1866 9.36057 2.27045C9.27928 2.3543 9.21533 2.45333 9.17235 2.56188C9.12938 2.67043 9.10823 2.78638 9.11012 2.90309V3.86295C7.395 4.23801 6.00013 5.4805 6.00013 7.2278C6.00013 9.29505 7.85047 10.8806 9.9997 10.8806C11.2985 10.8806 12.2201 11.7622 12.2201 12.7559C12.2201 13.7495 11.2985 14.6276 9.9997 14.6276C8.70091 14.6276 7.7793 13.7495 7.7793 12.7559C7.79709 11.5543 5.98234 11.5543 6.00013 12.7559C6.00013 14.505 7.39322 15.7492 9.11012 16.1225V17.1001C9.09232 18.3 10.9071 18.3 10.8893 17.1001V16.3074C12.6329 15.9412 14.0366 14.5316 13.9993 12.7594C13.9993 10.3918 12.4727 9.10663 9.9997 9.10663C8.70091 9.10663 7.7793 8.22498 7.7793 7.23135C7.7793 6.25194 8.67956 5.39162 9.94988 5.36851C9.98363 5.37103 10.0175 5.37162 10.0513 5.37029C11.3216 5.39695 12.2201 6.25194 12.2201 7.23135C12.2023 8.43473 14.0171 8.43473 13.9993 7.23135C13.9993 5.45739 12.6329 4.04604 10.8893 3.67987V2.90309C10.8912 2.78398 10.8691 2.6657 10.8244 2.55528C10.7797 2.44486 10.7132 2.34455 10.6288 2.26031C10.5445 2.17608 10.4441 2.10964 10.3336 2.06494C10.2231 2.02024 10.1047 1.99819 9.98547 2.00012Z" fill="#6B7A8B"/>
</svg>
