<svg width="4" height="4" viewBox="0 0 4 4" fill="none" xmlns="http://www.w3.org/2000/svg">
<path d="M1.99087 3.768C2.30021 3.768 2.58821 3.69333 2.85487 3.544C3.12154 3.384 3.33487 3.176 3.49487 2.92C3.64421 2.65333 3.71887 2.36533 3.71887 2.056C3.71887 1.736 3.64421 1.448 3.49487 1.192C3.33487 0.925333 3.12154 0.717333 2.85487 0.568C2.58821 0.408 2.30021 0.328 1.99087 0.328C1.67087 0.328 1.38287 0.408 1.12687 0.568C0.870875 0.717333 0.668208 0.925333 0.518875 1.192C0.358875 1.448 0.278875 1.736 0.278875 2.056C0.278875 2.36533 0.358875 2.65333 0.518875 2.92C0.668208 3.176 0.870875 3.384 1.12687 3.544C1.38287 3.69333 1.67087 3.768 1.99087 3.768Z" fill="#6B7A8B"/>
</svg>
