<svg width="797" height="202" viewBox="0 0 797 202" fill="none" xmlns="http://www.w3.org/2000/svg">
<rect x="0.5" y="0.5" width="796" height="200.704" rx="19.5" fill="white"/>
<rect x="0.5" y="0.5" width="796" height="200.704" rx="19.5" stroke="#EAEEF1"/>
<g clip-path="url(#clip0_1120_75073)">
<mask id="path-2-inside-1_1120_75073" fill="white">
<path d="M26 18H771V85.7037H26V18Z"/>
</mask>
<rect width="759" height="47.7037" transform="translate(26 18)" fill="white"/>
<path d="M52.6202 41.6813C53.0373 41.4273 53.3893 41.0794 53.6481 40.6653C53.907 40.2511 54.0654 39.7823 54.111 39.2961C54.1189 38.8564 54.0401 38.4195 53.8791 38.0103C53.7181 37.6011 53.4781 37.2276 53.1728 36.9112C52.8674 36.5948 52.5027 36.3416 52.0995 36.1662C51.6963 35.9907 51.2625 35.8964 50.8228 35.8887H45.2943V47.8146H51.2573C51.6757 47.8101 52.0891 47.7233 52.4739 47.5591C52.8587 47.3949 53.2075 47.1564 53.5001 46.8574C53.7928 46.5584 54.0237 46.2047 54.1797 45.8164C54.3357 45.4282 54.4136 45.013 54.4091 44.5946V44.4924C54.4094 43.9021 54.2412 43.3241 53.9244 42.8261C53.6075 42.3282 53.155 41.931 52.6202 41.6813ZM46.998 37.5924H50.5758C50.9388 37.5811 51.2966 37.6812 51.6011 37.8792C51.9057 38.0771 52.1424 38.3634 52.2795 38.6998C52.4182 39.1494 52.3734 39.6356 52.1547 40.0522C51.936 40.4688 51.5613 40.7819 51.1125 40.9231C50.9382 40.9742 50.7574 41 50.5758 40.9998H46.998V37.5924ZM50.9165 46.1109H46.998V42.7035H50.9165C51.2796 42.6923 51.6374 42.7923 51.9419 42.9903C52.2464 43.1882 52.4831 43.4746 52.6202 43.8109C52.759 44.2605 52.7141 44.7467 52.4954 45.1633C52.2767 45.58 51.902 45.8931 51.4532 46.0342C51.2789 46.0853 51.0982 46.1111 50.9165 46.1109Z" fill="black"/>
<path d="M90.5363 39.2961H92.24L90.3659 47.8146H88.6622L90.5363 39.2961ZM91.9674 35.8887C91.7989 35.8887 91.6342 35.9386 91.4942 36.0322C91.3541 36.1258 91.2449 36.2589 91.1804 36.4145C91.1159 36.5702 91.0991 36.7415 91.1319 36.9067C91.1648 37.072 91.2459 37.2237 91.3651 37.3429C91.4842 37.462 91.636 37.5431 91.8012 37.576C91.9665 37.6089 92.1378 37.592 92.2934 37.5275C92.4491 37.4631 92.5821 37.3539 92.6757 37.2138C92.7693 37.0737 92.8193 36.909 92.8193 36.7405C92.8193 36.5146 92.7295 36.2979 92.5698 36.1382C92.41 35.9784 92.1933 35.8887 91.9674 35.8887Z" fill="black"/>
<path d="M137.593 48.6664V50.3702H125.667V48.6664H137.593ZM135.037 42.8866C135.009 43.4488 134.842 43.9953 134.551 44.4773C134.26 44.9593 133.855 45.3617 133.37 45.6485C132.886 45.9354 132.338 46.0978 131.776 46.1213C131.213 46.1447 130.654 46.0285 130.147 45.7829C129.564 45.5304 129.068 45.1092 128.725 44.5735C128.382 44.0378 128.207 43.4118 128.222 42.7759V35.8929H126.518V42.8866C126.547 43.6886 126.765 44.4725 127.153 45.1748C127.541 45.8772 128.089 46.4784 128.752 46.9296C129.416 47.3808 130.176 47.6695 130.972 47.7722C131.768 47.8749 132.577 47.7887 133.333 47.5207C134.339 47.1854 135.212 46.5378 135.825 45.6722C136.438 44.8066 136.759 43.7681 136.741 42.7077V35.8929H135.037V42.8866ZM135.037 35.8887H136.741H135.037ZM128.222 35.8887H126.518H128.222Z" fill="black"/>
<path d="M173.839 47.8146H175.543L171.283 35.8887H169.58L165.32 47.8146H167.024L168.217 44.4072H172.561L173.839 47.8146ZM168.813 42.7035L170.431 38.2739L172.05 42.7035H168.813ZM179.717 46.5368C179.717 46.7895 179.642 47.0366 179.501 47.2467C179.361 47.4568 179.161 47.6206 178.928 47.7173C178.694 47.814 178.437 47.8393 178.19 47.79C177.942 47.7407 177.714 47.619 177.535 47.4403C177.357 47.2616 177.235 47.034 177.186 46.7861C177.136 46.5382 177.162 46.2813 177.258 46.0478C177.355 45.8144 177.519 45.6148 177.729 45.4744C177.939 45.334 178.186 45.259 178.439 45.259C178.778 45.259 179.103 45.3937 179.342 45.6333C179.582 45.8729 179.717 46.1979 179.717 46.5368ZM179.717 43.1294C179.717 43.3821 179.642 43.6292 179.501 43.8393C179.361 44.0494 179.161 44.2132 178.928 44.3099C178.694 44.4066 178.437 44.4319 178.19 44.3826C177.942 44.3333 177.714 44.2116 177.535 44.0329C177.357 43.8542 177.235 43.6266 177.186 43.3787C177.136 43.1308 177.162 42.8739 177.258 42.6404C177.355 42.4069 177.519 42.2074 177.729 42.067C177.939 41.9266 178.186 41.8516 178.439 41.8516C178.778 41.8516 179.103 41.9863 179.342 42.2259C179.582 42.4655 179.717 42.7905 179.717 43.1294ZM179.717 39.722C179.717 39.9747 179.642 40.2218 179.501 40.4319C179.361 40.642 179.161 40.8058 178.928 40.9025C178.694 40.9992 178.437 41.0245 178.19 40.9752C177.942 40.9259 177.714 40.8042 177.535 40.6255C177.357 40.4468 177.235 40.2192 177.186 39.9713C177.136 39.7234 177.162 39.4665 177.258 39.233C177.355 38.9995 177.519 38.8 177.729 38.6596C177.939 38.5192 178.186 38.4442 178.439 38.4442C178.778 38.4442 179.103 38.5788 179.342 38.8185C179.582 39.0581 179.717 39.3831 179.717 39.722Z" fill="black"/>
<path d="M226.185 46.9625H231.296V45.2588H226.185V46.9625ZM226.185 40.9995V42.7032H236.407V40.9995H226.185ZM226.185 36.7402V38.4439H241.519V36.7402H226.185Z" fill="black"/>
<path d="M272.185 46.9625H277.296V45.2588H272.185V46.9625ZM269.63 40.9995V42.7032H279.852V40.9995H269.63ZM267.074 36.7402V38.4439H282.407V36.7402H267.074Z" fill="black"/>
<path d="M307.537 45.259H309.241V45.685H308.389V46.5368H309.241V46.9627H307.537V47.8146H310.093V44.4072H307.537V45.259ZM308.389 39.2961H309.241V35.8887H307.537V36.7405H308.389V39.2961ZM307.537 40.9998H309.07L307.537 42.7887V43.5553H310.093V42.7035H308.559L310.093 40.9146V40.1479H307.537V40.9998ZM311.796 36.7405V38.4442H323.722V36.7405H311.796ZM311.796 46.9627H323.722V45.259H311.796V46.9627ZM311.796 42.7035H323.722V40.9998H311.796V42.7035Z" fill="black"/>
<path d="M352.84 35.8891C352.039 35.8762 351.259 36.138 350.628 36.6309C349.997 37.1239 349.554 37.8181 349.373 38.598C349.19 39.4831 349.367 40.4043 349.864 41.1592C350.361 41.914 351.137 42.4406 352.022 42.623L352.045 42.6273C352.274 42.6783 352.509 42.704 352.744 42.7039V47.8151H354.447V37.5928H356.151V47.8151H357.855V37.5928H359.558V35.8891H352.84ZM351.008 39.2965C351.008 38.8447 351.188 38.4113 351.507 38.0918C351.827 37.7723 352.26 37.5928 352.712 37.5928V41.0002C352.26 41.0002 351.827 40.8207 351.507 40.5012C351.188 40.1817 351.008 39.7484 351.008 39.2965ZM363.735 46.5296C363.735 46.7823 363.66 47.0294 363.52 47.2395C363.379 47.4496 363.18 47.6134 362.946 47.7101C362.713 47.8068 362.456 47.8321 362.208 47.7828C361.96 47.7335 361.733 47.6118 361.554 47.4331C361.375 47.2544 361.253 47.0268 361.204 46.7789C361.155 46.531 361.18 46.2741 361.277 46.0406C361.374 45.8071 361.537 45.6076 361.747 45.4672C361.958 45.3268 362.205 45.2518 362.457 45.2518C362.796 45.2518 363.121 45.3865 363.361 45.6261C363.6 45.8657 363.735 46.1907 363.735 46.5296ZM363.735 43.1222C363.735 43.3749 363.66 43.622 363.52 43.8321C363.379 44.0422 363.18 44.206 362.946 44.3027C362.713 44.3994 362.456 44.4247 362.208 44.3754C361.96 44.3261 361.733 44.2044 361.554 44.0257C361.375 43.847 361.253 43.6194 361.204 43.3715C361.155 43.1236 361.18 42.8667 361.277 42.6332C361.374 42.3997 361.537 42.2002 361.747 42.0598C361.958 41.9194 362.205 41.8444 362.457 41.8444C362.796 41.8444 363.121 41.979 363.361 42.2187C363.6 42.4583 363.735 42.7833 363.735 43.1222ZM363.735 39.7148C363.735 39.9675 363.66 40.2146 363.52 40.4247C363.379 40.6348 363.18 40.7986 362.946 40.8953C362.713 40.992 362.456 41.0173 362.208 40.968C361.96 40.9187 361.733 40.797 361.554 40.6183C361.375 40.4396 361.253 40.2119 361.204 39.9641C361.155 39.7162 361.18 39.4593 361.277 39.2258C361.374 38.9923 361.537 38.7928 361.747 38.6524C361.958 38.512 362.205 38.437 362.457 38.437C362.796 38.437 363.121 38.5716 363.361 38.8113C363.6 39.0509 363.735 39.3759 363.735 39.7148Z" fill="black"/>
<path d="M417 46.1103H413.593C412.463 46.1103 411.38 45.6616 410.581 44.8628C409.782 44.064 409.333 42.9807 409.333 41.8511C409.333 40.7214 409.782 39.6381 410.581 38.8393C411.38 38.0405 412.463 37.5918 413.593 37.5918H417V39.2955H413.593C412.915 39.2955 412.265 39.5647 411.785 40.044C411.306 40.5233 411.037 41.1733 411.037 41.8511C411.037 42.5288 411.306 43.1788 411.785 43.6581C412.265 44.1374 412.915 44.4066 413.593 44.4066H417V46.1103ZM422.111 37.5918H418.704V39.2955H422.111C422.789 39.2955 423.439 39.5647 423.918 40.044C424.397 40.5233 424.667 41.1733 424.667 41.8511C424.667 42.5288 424.397 43.1788 423.918 43.6581C423.439 44.1374 422.789 44.4066 422.111 44.4066H418.704V46.1103H422.111C423.241 46.1103 424.324 45.6616 425.123 44.8628C425.922 44.064 426.37 42.9807 426.37 41.8511C426.37 40.7214 425.922 39.6381 425.123 38.8393C424.324 38.0405 423.241 37.5918 422.111 37.5918ZM421.259 40.9992H414.444V42.7029H421.259V40.9992Z" fill="black"/>
<path d="M460.615 41.0001L463.852 45.2593H453.63L456.185 41.9371L457.974 44.2371L460.444 41.0001H460.615ZM455.759 41.0001C456.441 41.0001 457.037 40.4038 457.037 39.7223C457.037 39.0408 456.441 38.4445 455.759 38.4445C455.078 38.4445 454.481 39.0408 454.481 39.7223C454.481 40.4038 455.078 41.0001 455.759 41.0001ZM467.259 36.7408V46.963C467.259 47.9001 466.493 48.6667 465.556 48.6667H451.926C450.989 48.6667 450.222 47.9001 450.222 46.963V36.7408C450.222 35.8038 450.989 35.0371 451.926 35.0371H465.556C466.493 35.0371 467.259 35.8038 467.259 36.7408ZM465.556 39.126V36.7408H451.926V46.963H465.556V39.126Z" fill="black"/>
<path d="M499.622 34.1856C498.106 34.1871 496.624 34.638 495.365 35.4813C494.105 36.3247 493.123 37.5226 492.544 38.9236C491.965 40.3247 491.814 41.8659 492.111 43.3526C492.408 44.8393 493.139 46.2046 494.211 47.2761C495.284 48.3475 496.65 49.0769 498.137 49.3721C499.624 49.6673 501.165 49.5151 502.565 48.9346C503.966 48.3541 505.163 47.3714 506.005 46.1108C506.847 44.8502 507.296 43.3682 507.296 41.8522C507.297 40.8446 507.099 39.8468 506.713 38.916C506.327 37.9851 505.762 37.1394 505.049 36.4272C504.336 35.7151 503.49 35.1506 502.559 34.7659C501.627 34.3813 500.629 34.1841 499.622 34.1856ZM499.63 47.8152C498.45 47.8152 497.297 47.4655 496.317 46.8102C495.336 46.155 494.572 45.2237 494.121 44.1341C493.669 43.0446 493.551 41.8456 493.781 40.6889C494.011 39.5322 494.579 38.4697 495.413 37.6358C496.247 36.8018 497.31 36.2339 498.466 36.0038C499.623 35.7738 500.822 35.8918 501.911 36.3432C503.001 36.7945 503.932 37.5588 504.588 38.5394C505.243 39.52 505.593 40.6729 505.593 41.8522C505.593 42.6354 505.439 43.4108 505.139 44.1344C504.839 44.858 504.4 45.5154 503.846 46.0692C503.293 46.6229 502.635 47.0621 501.912 47.3617C501.188 47.6613 500.413 47.8154 499.63 47.8152ZM502.275 43.3856H503.555C503.247 44.1761 502.707 44.8552 502.007 45.334C501.307 45.8127 500.478 46.0689 499.63 46.0689C498.781 46.0689 497.953 45.8127 497.252 45.334C496.552 44.8552 496.012 44.1761 495.704 43.3856H496.985C497.251 43.8514 497.636 44.2386 498.101 44.5078C498.565 44.7771 499.093 44.9189 499.63 44.9189C500.166 44.9189 500.694 44.7771 501.158 44.5078C501.623 44.2386 502.008 43.8514 502.275 43.3856ZM495.796 39.9356C495.796 39.7081 495.864 39.4858 495.99 39.2966C496.116 39.1075 496.296 38.9601 496.506 38.8731C496.716 38.7861 496.948 38.7633 497.171 38.8077C497.394 38.852 497.599 38.9616 497.759 39.1224C497.92 39.2832 498.03 39.4881 498.074 39.7112C498.119 39.9343 498.096 40.1655 498.009 40.3756C497.922 40.5858 497.774 40.7654 497.585 40.8917C497.396 41.0181 497.174 41.0856 496.946 41.0856C496.641 41.0856 496.349 40.9644 496.133 40.7487C495.917 40.5331 495.796 40.2406 495.796 39.9356ZM501.163 39.9356C501.163 39.7081 501.23 39.4858 501.357 39.2966C501.483 39.1075 501.663 38.9601 501.873 38.8731C502.083 38.7861 502.314 38.7633 502.537 38.8077C502.76 38.852 502.965 38.9616 503.126 39.1224C503.287 39.2832 503.396 39.4881 503.441 39.7112C503.485 39.9343 503.462 40.1655 503.375 40.3756C503.288 40.5858 503.141 40.7654 502.952 40.8917C502.763 41.0181 502.54 41.0856 502.313 41.0856C502.008 41.0856 501.715 40.9644 501.5 40.7487C501.284 40.5331 501.163 40.2406 501.163 39.9356Z" fill="black"/>
<path d="M544.352 42.7035H539.241V47.8146H537.537V42.7035H532.426V40.9998H537.537V35.8887H539.241V40.9998H544.352V42.7035ZM548.611 46.5368C548.611 46.7895 548.536 47.0366 548.396 47.2467C548.255 47.4568 548.056 47.6206 547.822 47.7173C547.589 47.814 547.332 47.8393 547.084 47.79C546.836 47.7407 546.609 47.619 546.43 47.4403C546.251 47.2616 546.13 47.034 546.08 46.7861C546.031 46.5382 546.056 46.2813 546.153 46.0478C546.25 45.8144 546.413 45.6148 546.624 45.4744C546.834 45.334 547.081 45.259 547.333 45.259C547.672 45.259 547.997 45.3937 548.237 45.6333C548.477 45.8729 548.611 46.1979 548.611 46.5368ZM548.611 43.1294C548.611 43.3821 548.536 43.6292 548.396 43.8393C548.255 44.0494 548.056 44.2132 547.822 44.3099C547.589 44.4066 547.332 44.4319 547.084 44.3826C546.836 44.3333 546.609 44.2116 546.43 44.0329C546.251 43.8542 546.13 43.6266 546.08 43.3787C546.031 43.1308 546.056 42.8739 546.153 42.6404C546.25 42.4069 546.413 42.2074 546.624 42.067C546.834 41.9266 547.081 41.8516 547.333 41.8516C547.672 41.8516 547.997 41.9863 548.237 42.2259C548.477 42.4655 548.611 42.7905 548.611 43.1294ZM548.611 39.722C548.611 39.9747 548.536 40.2218 548.396 40.4319C548.255 40.642 548.056 40.8058 547.822 40.9025C547.589 40.9992 547.332 41.0245 547.084 40.9752C546.836 40.9259 546.609 40.8042 546.43 40.6255C546.251 40.4468 546.13 40.2192 546.08 39.9713C546.031 39.7234 546.056 39.4665 546.153 39.233C546.25 38.9995 546.413 38.8 546.624 38.6596C546.834 38.5192 547.081 38.4442 547.333 38.4442C547.672 38.4442 547.997 38.5788 548.237 38.8185C548.477 39.0581 548.611 39.3831 548.611 39.722Z" fill="black"/>
<path d="M762.426 46.1107C762.426 46.7922 761.83 47.3885 761.148 47.3885C760.467 47.3885 759.871 46.7922 759.871 46.1107C759.871 45.4293 760.467 44.833 761.148 44.833C761.83 44.833 762.426 45.4293 762.426 46.1107ZM762.426 41.8515C762.426 42.533 761.83 43.1293 761.148 43.1293C760.467 43.1293 759.871 42.533 759.871 41.8515C759.871 41.17 760.467 40.5737 761.148 40.5737C761.83 40.5737 762.426 41.17 762.426 41.8515ZM762.426 37.5922C762.426 38.2737 761.83 38.87 761.148 38.87C760.467 38.87 759.871 38.2737 759.871 37.5922C759.871 36.9107 760.467 36.3145 761.148 36.3145C761.83 36.3145 762.426 36.9107 762.426 37.5922Z" fill="black"/>
</g>
<path d="M771 84.7037H26V86.7037H771V84.7037Z" fill="#EAEEF1" mask="url(#path-2-inside-1_1120_75073)"/>
<path d="M27.76 124.703C27.6427 124.703 27.552 124.671 27.488 124.607C27.424 124.532 27.392 124.442 27.392 124.335V113.887C27.392 113.77 27.424 113.679 27.488 113.615C27.552 113.54 27.6427 113.503 27.76 113.503H34.368C34.4853 113.503 34.576 113.54 34.64 113.615C34.704 113.679 34.736 113.77 34.736 113.887V114.495C34.736 114.612 34.704 114.703 34.64 114.767C34.576 114.831 34.4853 114.863 34.368 114.863H28.928V118.367H34.016C34.1333 118.367 34.224 118.404 34.288 118.479C34.352 118.543 34.384 118.634 34.384 118.751V119.343C34.384 119.45 34.352 119.54 34.288 119.615C34.224 119.679 34.1333 119.711 34.016 119.711H28.928V123.343H34.496C34.6133 123.343 34.704 123.375 34.768 123.439C34.832 123.503 34.864 123.594 34.864 123.711V124.335C34.864 124.442 34.832 124.532 34.768 124.607C34.704 124.671 34.6133 124.703 34.496 124.703H27.76ZM37.2551 124.703C37.1485 124.703 37.0578 124.671 36.9831 124.607C36.9191 124.532 36.8871 124.442 36.8871 124.335V116.751C36.8871 116.644 36.9191 116.559 36.9831 116.495C37.0578 116.42 37.1485 116.383 37.2551 116.383H38.0071C38.1138 116.383 38.1991 116.42 38.2631 116.495C38.3378 116.559 38.3751 116.644 38.3751 116.751V117.455C38.6525 117.092 38.9991 116.799 39.4151 116.575C39.8418 116.34 40.3858 116.223 41.0471 116.223C41.7405 116.223 42.3271 116.378 42.8071 116.687C43.2978 116.986 43.6658 117.407 43.9111 117.951C44.1671 118.484 44.2951 119.108 44.2951 119.823V124.335C44.2951 124.442 44.2578 124.532 44.1831 124.607C44.1191 124.671 44.0338 124.703 43.9271 124.703H43.1271C43.0205 124.703 42.9298 124.671 42.8551 124.607C42.7911 124.532 42.7591 124.442 42.7591 124.335V119.903C42.7591 119.156 42.5778 118.575 42.2151 118.159C41.8525 117.732 41.3191 117.519 40.6151 117.519C39.9538 117.519 39.4205 117.732 39.0151 118.159C38.6205 118.575 38.4231 119.156 38.4231 119.903V124.335C38.4231 124.442 38.3858 124.532 38.3111 124.607C38.2471 124.671 38.1618 124.703 38.0551 124.703H37.2551ZM49.7289 124.703C49.1315 124.703 48.6462 124.591 48.2729 124.367C47.8995 124.132 47.6275 123.807 47.4569 123.391C47.2862 122.964 47.2009 122.463 47.2009 121.887V117.663H45.9529C45.8462 117.663 45.7555 117.631 45.6809 117.567C45.6169 117.492 45.5849 117.402 45.5849 117.295V116.751C45.5849 116.644 45.6169 116.559 45.6809 116.495C45.7555 116.42 45.8462 116.383 45.9529 116.383H47.2009V113.711C47.2009 113.604 47.2329 113.519 47.2969 113.455C47.3715 113.38 47.4622 113.343 47.5689 113.343H48.3209C48.4275 113.343 48.5129 113.38 48.5769 113.455C48.6515 113.519 48.6889 113.604 48.6889 113.711V116.383H50.6729C50.7902 116.383 50.8809 116.42 50.9449 116.495C51.0089 116.559 51.0409 116.644 51.0409 116.751V117.295C51.0409 117.402 51.0089 117.492 50.9449 117.567C50.8809 117.631 50.7902 117.663 50.6729 117.663H48.6889V121.775C48.6889 122.276 48.7742 122.671 48.9449 122.959C49.1155 123.247 49.4195 123.391 49.8569 123.391H50.8329C50.9395 123.391 51.0249 123.428 51.0889 123.503C51.1635 123.567 51.2009 123.652 51.2009 123.759V124.335C51.2009 124.442 51.1635 124.532 51.0889 124.607C51.0249 124.671 50.9395 124.703 50.8329 124.703H49.7289ZM56.0589 124.863C54.9495 124.863 54.0695 124.527 53.4189 123.855C52.7682 123.172 52.4109 122.244 52.3469 121.071C52.3362 120.932 52.3309 120.756 52.3309 120.543C52.3309 120.319 52.3362 120.138 52.3469 119.999C52.3895 119.242 52.5655 118.58 52.8749 118.015C53.1842 117.439 53.6055 116.996 54.1389 116.687C54.6829 116.378 55.3175 116.223 56.0429 116.223C56.8535 116.223 57.5309 116.394 58.0749 116.735C58.6295 117.076 59.0509 117.562 59.3389 118.191C59.6269 118.82 59.7709 119.556 59.7709 120.399V120.671C59.7709 120.788 59.7335 120.879 59.6589 120.943C59.5949 121.007 59.5095 121.039 59.4029 121.039H53.8669C53.8669 121.05 53.8669 121.071 53.8669 121.103C53.8669 121.135 53.8669 121.162 53.8669 121.183C53.8882 121.62 53.9842 122.031 54.1549 122.415C54.3255 122.788 54.5709 123.092 54.8909 123.327C55.2215 123.562 55.6055 123.679 56.0429 123.679C56.4269 123.679 56.7469 123.62 57.0029 123.503C57.2589 123.386 57.4669 123.258 57.6269 123.119C57.7869 122.97 57.8935 122.852 57.9469 122.767C58.0429 122.639 58.1175 122.564 58.1709 122.543C58.2242 122.511 58.3095 122.495 58.4269 122.495H59.2109C59.3069 122.495 59.3869 122.527 59.4509 122.591C59.5255 122.644 59.5575 122.724 59.5469 122.831C59.5362 122.991 59.4509 123.188 59.2909 123.423C59.1309 123.647 58.9015 123.871 58.6029 124.095C58.3149 124.319 57.9522 124.506 57.5149 124.655C57.0882 124.794 56.6029 124.863 56.0589 124.863ZM53.8669 119.935H58.2509V119.887C58.2509 119.407 58.1602 118.98 57.9789 118.607C57.8082 118.234 57.5575 117.94 57.2269 117.727C56.8962 117.503 56.5015 117.391 56.0429 117.391C55.5842 117.391 55.1895 117.503 54.8589 117.727C54.5389 117.94 54.2935 118.234 54.1229 118.607C53.9522 118.98 53.8669 119.407 53.8669 119.887V119.935ZM62.052 124.703C61.9453 124.703 61.8547 124.671 61.78 124.607C61.716 124.532 61.684 124.442 61.684 124.335V116.767C61.684 116.66 61.716 116.57 61.78 116.495C61.8547 116.42 61.9453 116.383 62.052 116.383H62.788C62.8947 116.383 62.9853 116.42 63.06 116.495C63.1347 116.57 63.172 116.66 63.172 116.767V117.471C63.3853 117.108 63.6787 116.836 64.052 116.655C64.4253 116.474 64.8787 116.383 65.412 116.383H66.036C66.1427 116.383 66.228 116.42 66.292 116.495C66.3667 116.559 66.404 116.644 66.404 116.751V117.407C66.404 117.514 66.3667 117.599 66.292 117.663C66.228 117.727 66.1427 117.759 66.036 117.759H65.076C64.5 117.759 64.0467 117.93 63.716 118.271C63.3853 118.602 63.22 119.055 63.22 119.631V124.335C63.22 124.442 63.1827 124.532 63.108 124.607C63.0333 124.671 62.9427 124.703 62.836 124.703H62.052ZM74.2133 124.703C73.6159 124.703 73.1306 124.591 72.7573 124.367C72.3839 124.132 72.1119 123.807 71.9413 123.391C71.7706 122.964 71.6853 122.463 71.6853 121.887V117.663H70.4373C70.3306 117.663 70.2399 117.631 70.1653 117.567C70.1013 117.492 70.0693 117.402 70.0693 117.295V116.751C70.0693 116.644 70.1013 116.559 70.1653 116.495C70.2399 116.42 70.3306 116.383 70.4373 116.383H71.6853V113.711C71.6853 113.604 71.7173 113.519 71.7812 113.455C71.8559 113.38 71.9466 113.343 72.0533 113.343H72.8053C72.9119 113.343 72.9973 113.38 73.0613 113.455C73.1359 113.519 73.1733 113.604 73.1733 113.711V116.383H75.1573C75.2746 116.383 75.3653 116.42 75.4293 116.495C75.4933 116.559 75.5253 116.644 75.5253 116.751V117.295C75.5253 117.402 75.4933 117.492 75.4293 117.567C75.3653 117.631 75.2746 117.663 75.1573 117.663H73.1733V121.775C73.1733 122.276 73.2586 122.671 73.4293 122.959C73.5999 123.247 73.9039 123.391 74.3413 123.391H75.3173C75.4239 123.391 75.5093 123.428 75.5733 123.503C75.6479 123.567 75.6853 123.652 75.6853 123.759V124.335C75.6853 124.442 75.6479 124.532 75.5733 124.607C75.5093 124.671 75.4239 124.703 75.3173 124.703H74.2133ZM77.5993 124.703C77.4926 124.703 77.4019 124.671 77.3273 124.607C77.2633 124.532 77.2313 124.442 77.2313 124.335V113.711C77.2313 113.604 77.2633 113.519 77.3273 113.455C77.4019 113.38 77.4926 113.343 77.5993 113.343H78.3993C78.5166 113.343 78.6073 113.38 78.6713 113.455C78.7353 113.519 78.7673 113.604 78.7673 113.711V117.439C79.0553 117.076 79.4073 116.783 79.8233 116.559C80.2393 116.335 80.7673 116.223 81.4073 116.223C82.1006 116.223 82.6873 116.378 83.1673 116.687C83.6579 116.986 84.0259 117.407 84.2713 117.951C84.5273 118.484 84.6553 119.108 84.6553 119.823V124.335C84.6553 124.442 84.6233 124.532 84.5593 124.607C84.4953 124.671 84.4046 124.703 84.2873 124.703H83.4873C83.3806 124.703 83.2899 124.671 83.2153 124.607C83.1513 124.532 83.1193 124.442 83.1193 124.335V119.903C83.1193 119.156 82.9379 118.575 82.5753 118.159C82.2126 117.732 81.6793 117.519 80.9753 117.519C80.3139 117.519 79.7806 117.732 79.3753 118.159C78.9699 118.575 78.7673 119.156 78.7673 119.903V124.335C78.7673 124.442 78.7353 124.532 78.6713 124.607C78.6073 124.671 78.5166 124.703 78.3993 124.703H77.5993ZM90.2933 124.863C89.1839 124.863 88.3039 124.527 87.6533 123.855C87.0026 123.172 86.6453 122.244 86.5813 121.071C86.5706 120.932 86.5653 120.756 86.5653 120.543C86.5653 120.319 86.5706 120.138 86.5813 119.999C86.6239 119.242 86.7999 118.58 87.1093 118.015C87.4186 117.439 87.8399 116.996 88.3733 116.687C88.9173 116.378 89.5519 116.223 90.2773 116.223C91.0879 116.223 91.7653 116.394 92.3093 116.735C92.8639 117.076 93.2853 117.562 93.5733 118.191C93.8613 118.82 94.0052 119.556 94.0052 120.399V120.671C94.0052 120.788 93.9679 120.879 93.8933 120.943C93.8293 121.007 93.7439 121.039 93.6373 121.039H88.1013C88.1013 121.05 88.1013 121.071 88.1013 121.103C88.1013 121.135 88.1013 121.162 88.1013 121.183C88.1226 121.62 88.2186 122.031 88.3893 122.415C88.5599 122.788 88.8053 123.092 89.1253 123.327C89.4559 123.562 89.8399 123.679 90.2773 123.679C90.6613 123.679 90.9813 123.62 91.2373 123.503C91.4933 123.386 91.7013 123.258 91.8613 123.119C92.0213 122.97 92.1279 122.852 92.1813 122.767C92.2773 122.639 92.3519 122.564 92.4053 122.543C92.4586 122.511 92.5439 122.495 92.6613 122.495H93.4453C93.5413 122.495 93.6213 122.527 93.6853 122.591C93.7599 122.644 93.7919 122.724 93.7812 122.831C93.7706 122.991 93.6853 123.188 93.5253 123.423C93.3653 123.647 93.1359 123.871 92.8373 124.095C92.5493 124.319 92.1866 124.506 91.7493 124.655C91.3226 124.794 90.8373 124.863 90.2933 124.863ZM88.1013 119.935H92.4853V119.887C92.4853 119.407 92.3946 118.98 92.2133 118.607C92.0426 118.234 91.7919 117.94 91.4613 117.727C91.1306 117.503 90.7359 117.391 90.2773 117.391C89.8186 117.391 89.4239 117.503 89.0933 117.727C88.7733 117.94 88.5279 118.234 88.3573 118.607C88.1866 118.98 88.1013 119.407 88.1013 119.887V119.935ZM102.16 124.863C101.627 124.863 101.142 124.756 100.704 124.543C100.267 124.33 99.9149 124.042 99.6483 123.679C99.3816 123.316 99.2483 122.906 99.2483 122.447C99.2483 121.711 99.5469 121.124 100.144 120.687C100.742 120.25 101.52 119.962 102.48 119.823L104.864 119.487V119.023C104.864 118.511 104.715 118.111 104.416 117.823C104.128 117.535 103.654 117.391 102.992 117.391C102.523 117.391 102.139 117.487 101.84 117.679C101.542 117.871 101.334 118.116 101.216 118.415C101.152 118.575 101.04 118.655 100.88 118.655H100.16C100.043 118.655 99.9523 118.623 99.8883 118.559C99.8349 118.484 99.8083 118.399 99.8083 118.303C99.8083 118.143 99.8669 117.946 99.9843 117.711C100.112 117.476 100.304 117.247 100.56 117.023C100.816 116.799 101.142 116.612 101.536 116.463C101.942 116.303 102.432 116.223 103.008 116.223C103.648 116.223 104.187 116.308 104.624 116.479C105.062 116.639 105.403 116.858 105.648 117.135C105.904 117.412 106.086 117.727 106.192 118.079C106.31 118.431 106.368 118.788 106.368 119.151V124.335C106.368 124.442 106.331 124.532 106.256 124.607C106.192 124.671 106.107 124.703 106 124.703H105.264C105.147 124.703 105.056 124.671 104.992 124.607C104.928 124.532 104.896 124.442 104.896 124.335V123.647C104.758 123.839 104.571 124.031 104.336 124.223C104.102 124.404 103.808 124.559 103.456 124.687C103.104 124.804 102.672 124.863 102.16 124.863ZM102.496 123.663C102.934 123.663 103.334 123.572 103.696 123.391C104.059 123.199 104.342 122.906 104.544 122.511C104.758 122.116 104.864 121.62 104.864 121.023V120.575L103.008 120.847C102.251 120.954 101.68 121.135 101.296 121.391C100.912 121.636 100.72 121.951 100.72 122.335C100.72 122.634 100.806 122.884 100.976 123.087C101.158 123.279 101.382 123.423 101.648 123.519C101.926 123.615 102.208 123.663 102.496 123.663ZM109.036 124.703C108.93 124.703 108.839 124.671 108.764 124.607C108.7 124.532 108.668 124.442 108.668 124.335V116.751C108.668 116.644 108.7 116.559 108.764 116.495C108.839 116.42 108.93 116.383 109.036 116.383H109.788C109.895 116.383 109.98 116.42 110.044 116.495C110.119 116.559 110.156 116.644 110.156 116.751V117.455C110.434 117.092 110.78 116.799 111.196 116.575C111.623 116.34 112.167 116.223 112.828 116.223C113.522 116.223 114.108 116.378 114.588 116.687C115.079 116.986 115.447 117.407 115.692 117.951C115.948 118.484 116.076 119.108 116.076 119.823V124.335C116.076 124.442 116.039 124.532 115.964 124.607C115.9 124.671 115.815 124.703 115.708 124.703H114.908C114.802 124.703 114.711 124.671 114.636 124.607C114.572 124.532 114.54 124.442 114.54 124.335V119.903C114.54 119.156 114.359 118.575 113.996 118.159C113.634 117.732 113.1 117.519 112.396 117.519C111.735 117.519 111.202 117.732 110.796 118.159C110.402 118.575 110.204 119.156 110.204 119.903V124.335C110.204 124.442 110.167 124.532 110.092 124.607C110.028 124.671 109.943 124.703 109.836 124.703H109.036ZM121.252 124.863C120.654 124.863 120.142 124.788 119.716 124.639C119.289 124.49 118.942 124.308 118.676 124.095C118.409 123.882 118.206 123.668 118.068 123.455C117.94 123.242 117.87 123.071 117.86 122.943C117.849 122.826 117.886 122.735 117.972 122.671C118.057 122.607 118.142 122.575 118.228 122.575H118.948C119.001 122.575 119.044 122.586 119.076 122.607C119.118 122.618 119.172 122.66 119.236 122.735C119.374 122.884 119.529 123.034 119.7 123.183C119.87 123.332 120.078 123.455 120.324 123.551C120.58 123.647 120.894 123.695 121.268 123.695C121.812 123.695 122.26 123.594 122.612 123.391C122.964 123.178 123.14 122.868 123.14 122.463C123.14 122.196 123.065 121.983 122.916 121.823C122.777 121.663 122.521 121.519 122.148 121.391C121.785 121.263 121.284 121.13 120.644 120.991C120.004 120.842 119.497 120.66 119.124 120.447C118.75 120.223 118.484 119.962 118.324 119.663C118.164 119.354 118.084 119.007 118.084 118.623C118.084 118.228 118.201 117.85 118.436 117.487C118.67 117.114 119.012 116.81 119.46 116.575C119.918 116.34 120.489 116.223 121.172 116.223C121.726 116.223 122.201 116.292 122.596 116.431C122.99 116.57 123.316 116.746 123.572 116.959C123.828 117.162 124.02 117.364 124.148 117.567C124.276 117.77 124.345 117.94 124.356 118.079C124.366 118.186 124.334 118.276 124.26 118.351C124.185 118.415 124.1 118.447 124.004 118.447H123.332C123.257 118.447 123.193 118.431 123.14 118.399C123.097 118.367 123.054 118.33 123.012 118.287C122.905 118.148 122.777 118.01 122.628 117.871C122.489 117.732 122.302 117.62 122.068 117.535C121.844 117.439 121.545 117.391 121.172 117.391C120.638 117.391 120.238 117.503 119.972 117.727C119.705 117.951 119.572 118.234 119.572 118.575C119.572 118.778 119.63 118.959 119.748 119.119C119.865 119.279 120.089 119.423 120.42 119.551C120.75 119.679 121.241 119.818 121.891 119.967C122.596 120.106 123.15 120.292 123.556 120.527C123.961 120.762 124.249 121.034 124.42 121.343C124.59 121.652 124.676 122.01 124.676 122.415C124.676 122.863 124.548 123.274 124.292 123.647C124.036 124.02 123.652 124.319 123.14 124.543C122.628 124.756 121.998 124.863 121.252 124.863ZM128.517 124.703C128.378 124.703 128.272 124.671 128.197 124.607C128.122 124.532 128.058 124.431 128.005 124.303L125.733 116.879C125.712 116.826 125.701 116.772 125.701 116.719C125.701 116.623 125.733 116.543 125.797 116.479C125.872 116.415 125.952 116.383 126.037 116.383H126.741C126.858 116.383 126.949 116.415 127.013 116.479C127.077 116.543 127.12 116.602 127.141 116.655L128.917 122.687L130.821 116.719C130.842 116.644 130.885 116.57 130.949 116.495C131.024 116.42 131.13 116.383 131.269 116.383H131.813C131.952 116.383 132.058 116.42 132.133 116.495C132.208 116.57 132.25 116.644 132.261 116.719L134.165 122.687L135.941 116.655C135.952 116.602 135.989 116.543 136.053 116.479C136.117 116.415 136.208 116.383 136.325 116.383H137.045C137.13 116.383 137.205 116.415 137.269 116.479C137.333 116.543 137.365 116.623 137.365 116.719C137.365 116.772 137.354 116.826 137.333 116.879L135.077 124.303C135.034 124.431 134.976 124.532 134.901 124.607C134.826 124.671 134.709 124.703 134.549 124.703H133.925C133.786 124.703 133.669 124.671 133.573 124.607C133.488 124.532 133.429 124.431 133.397 124.303L131.541 118.575L129.685 124.303C129.642 124.431 129.578 124.532 129.493 124.607C129.408 124.671 129.29 124.703 129.141 124.703H128.517ZM142.246 124.863C141.137 124.863 140.257 124.527 139.606 123.855C138.956 123.172 138.598 122.244 138.534 121.071C138.524 120.932 138.518 120.756 138.518 120.543C138.518 120.319 138.524 120.138 138.534 119.999C138.577 119.242 138.753 118.58 139.062 118.015C139.372 117.439 139.793 116.996 140.326 116.687C140.87 116.378 141.505 116.223 142.23 116.223C143.041 116.223 143.718 116.394 144.262 116.735C144.817 117.076 145.238 117.562 145.526 118.191C145.814 118.82 145.958 119.556 145.958 120.399V120.671C145.958 120.788 145.921 120.879 145.846 120.943C145.782 121.007 145.697 121.039 145.59 121.039H140.054C140.054 121.05 140.054 121.071 140.054 121.103C140.054 121.135 140.054 121.162 140.054 121.183C140.076 121.62 140.172 122.031 140.342 122.415C140.513 122.788 140.758 123.092 141.078 123.327C141.409 123.562 141.793 123.679 142.23 123.679C142.614 123.679 142.934 123.62 143.19 123.503C143.446 123.386 143.654 123.258 143.814 123.119C143.974 122.97 144.081 122.852 144.134 122.767C144.23 122.639 144.305 122.564 144.358 122.543C144.412 122.511 144.497 122.495 144.614 122.495H145.398C145.494 122.495 145.574 122.527 145.638 122.591C145.713 122.644 145.745 122.724 145.734 122.831C145.724 122.991 145.638 123.188 145.478 123.423C145.318 123.647 145.089 123.871 144.79 124.095C144.502 124.319 144.14 124.506 143.702 124.655C143.276 124.794 142.79 124.863 142.246 124.863ZM140.054 119.935H144.438V119.887C144.438 119.407 144.348 118.98 144.166 118.607C143.996 118.234 143.745 117.94 143.414 117.727C143.084 117.503 142.689 117.391 142.23 117.391C141.772 117.391 141.377 117.503 141.046 117.727C140.726 117.94 140.481 118.234 140.31 118.607C140.14 118.98 140.054 119.407 140.054 119.887V119.935ZM148.24 124.703C148.133 124.703 148.042 124.671 147.968 124.607C147.904 124.532 147.872 124.442 147.872 124.335V116.767C147.872 116.66 147.904 116.57 147.968 116.495C148.042 116.42 148.133 116.383 148.24 116.383H148.976C149.082 116.383 149.173 116.42 149.248 116.495C149.322 116.57 149.36 116.66 149.36 116.767V117.471C149.573 117.108 149.866 116.836 150.24 116.655C150.613 116.474 151.066 116.383 151.6 116.383H152.224C152.33 116.383 152.416 116.42 152.48 116.495C152.554 116.559 152.592 116.644 152.592 116.751V117.407C152.592 117.514 152.554 117.599 152.48 117.663C152.416 117.727 152.33 117.759 152.224 117.759H151.264C150.688 117.759 150.234 117.93 149.904 118.271C149.573 118.602 149.408 119.055 149.408 119.631V124.335C149.408 124.442 149.37 124.532 149.296 124.607C149.221 124.671 149.13 124.703 149.024 124.703H148.24ZM156.83 124.863C156.232 124.863 155.72 124.788 155.294 124.639C154.867 124.49 154.52 124.308 154.254 124.095C153.987 123.882 153.784 123.668 153.646 123.455C153.518 123.242 153.448 123.071 153.438 122.943C153.427 122.826 153.464 122.735 153.55 122.671C153.635 122.607 153.72 122.575 153.806 122.575H154.526C154.579 122.575 154.622 122.586 154.654 122.607C154.696 122.618 154.75 122.66 154.814 122.735C154.952 122.884 155.107 123.034 155.278 123.183C155.448 123.332 155.656 123.455 155.902 123.551C156.158 123.647 156.472 123.695 156.846 123.695C157.39 123.695 157.838 123.594 158.19 123.391C158.542 123.178 158.718 122.868 158.718 122.463C158.718 122.196 158.643 121.983 158.494 121.823C158.355 121.663 158.099 121.519 157.726 121.391C157.363 121.263 156.862 121.13 156.222 120.991C155.582 120.842 155.075 120.66 154.702 120.447C154.328 120.223 154.062 119.962 153.902 119.663C153.742 119.354 153.662 119.007 153.662 118.623C153.662 118.228 153.779 117.85 154.014 117.487C154.248 117.114 154.59 116.81 155.038 116.575C155.496 116.34 156.067 116.223 156.75 116.223C157.304 116.223 157.779 116.292 158.174 116.431C158.568 116.57 158.894 116.746 159.15 116.959C159.406 117.162 159.598 117.364 159.726 117.567C159.854 117.77 159.923 117.94 159.934 118.079C159.944 118.186 159.912 118.276 159.838 118.351C159.763 118.415 159.678 118.447 159.582 118.447H158.91C158.835 118.447 158.771 118.431 158.718 118.399C158.675 118.367 158.632 118.33 158.59 118.287C158.483 118.148 158.355 118.01 158.206 117.871C158.067 117.732 157.88 117.62 157.646 117.535C157.422 117.439 157.123 117.391 156.75 117.391C156.216 117.391 155.816 117.503 155.55 117.727C155.283 117.951 155.15 118.234 155.15 118.575C155.15 118.778 155.208 118.959 155.326 119.119C155.443 119.279 155.667 119.423 155.998 119.551C156.328 119.679 156.819 119.818 157.47 119.967C158.174 120.106 158.728 120.292 159.134 120.527C159.539 120.762 159.827 121.034 159.998 121.343C160.168 121.652 160.254 122.01 160.254 122.415C160.254 122.863 160.126 123.274 159.87 123.647C159.614 124.02 159.23 124.319 158.718 124.543C158.206 124.756 157.576 124.863 156.83 124.863ZM168.932 124.703C168.335 124.703 167.849 124.591 167.476 124.367C167.103 124.132 166.831 123.807 166.66 123.391C166.489 122.964 166.404 122.463 166.404 121.887V117.663H165.156C165.049 117.663 164.959 117.631 164.884 117.567C164.82 117.492 164.788 117.402 164.788 117.295V116.751C164.788 116.644 164.82 116.559 164.884 116.495C164.959 116.42 165.049 116.383 165.156 116.383H166.404V113.711C166.404 113.604 166.436 113.519 166.5 113.455C166.575 113.38 166.665 113.343 166.772 113.343H167.524C167.631 113.343 167.716 113.38 167.78 113.455C167.855 113.519 167.892 113.604 167.892 113.711V116.383H169.876C169.993 116.383 170.084 116.42 170.148 116.495C170.212 116.559 170.244 116.644 170.244 116.751V117.295C170.244 117.402 170.212 117.492 170.148 117.567C170.084 117.631 169.993 117.663 169.876 117.663H167.892V121.775C167.892 122.276 167.977 122.671 168.148 122.959C168.319 123.247 168.623 123.391 169.06 123.391H170.036C170.143 123.391 170.228 123.428 170.292 123.503C170.367 123.567 170.404 123.652 170.404 123.759V124.335C170.404 124.442 170.367 124.532 170.292 124.607C170.228 124.671 170.143 124.703 170.036 124.703H168.932ZM175.342 124.863C174.531 124.863 173.854 124.708 173.31 124.399C172.766 124.09 172.35 123.663 172.062 123.119C171.774 122.564 171.614 121.935 171.582 121.231C171.571 121.05 171.566 120.82 171.566 120.543C171.566 120.255 171.571 120.026 171.582 119.855C171.614 119.14 171.774 118.511 172.062 117.967C172.361 117.423 172.782 116.996 173.326 116.687C173.87 116.378 174.542 116.223 175.342 116.223C176.142 116.223 176.814 116.378 177.358 116.687C177.902 116.996 178.318 117.423 178.606 117.967C178.905 118.511 179.07 119.14 179.102 119.855C179.113 120.026 179.118 120.255 179.118 120.543C179.118 120.82 179.113 121.05 179.102 121.231C179.07 121.935 178.91 122.564 178.622 123.119C178.334 123.663 177.918 124.09 177.374 124.399C176.83 124.708 176.153 124.863 175.342 124.863ZM175.342 123.631C176.003 123.631 176.531 123.423 176.926 123.007C177.321 122.58 177.534 121.962 177.566 121.151C177.577 120.991 177.582 120.788 177.582 120.543C177.582 120.298 177.577 120.095 177.566 119.935C177.534 119.124 177.321 118.511 176.926 118.095C176.531 117.668 176.003 117.455 175.342 117.455C174.681 117.455 174.147 117.668 173.742 118.095C173.347 118.511 173.139 119.124 173.118 119.935C173.107 120.095 173.102 120.298 173.102 120.543C173.102 120.788 173.107 120.991 173.118 121.151C173.139 121.962 173.347 122.58 173.742 123.007C174.147 123.423 174.681 123.631 175.342 123.631ZM186.062 127.743C185.977 127.743 185.902 127.711 185.838 127.647C185.774 127.583 185.742 127.508 185.742 127.423C185.742 127.38 185.747 127.338 185.758 127.295C185.769 127.252 185.79 127.199 185.822 127.135L187.054 124.207L183.998 116.991C183.945 116.863 183.918 116.772 183.918 116.719C183.918 116.623 183.95 116.543 184.014 116.479C184.078 116.415 184.158 116.383 184.254 116.383H185.038C185.155 116.383 185.241 116.41 185.294 116.463C185.358 116.516 185.401 116.58 185.422 116.655L187.854 122.479L190.35 116.655C190.382 116.58 190.425 116.516 190.478 116.463C190.542 116.41 190.633 116.383 190.75 116.383H191.502C191.598 116.383 191.678 116.415 191.742 116.479C191.806 116.543 191.838 116.618 191.838 116.703C191.838 116.756 191.811 116.852 191.758 116.991L187.214 127.471C187.182 127.546 187.134 127.61 187.07 127.663C187.017 127.716 186.931 127.743 186.814 127.743H186.062ZM196.561 124.863C195.75 124.863 195.073 124.708 194.529 124.399C193.985 124.09 193.569 123.663 193.281 123.119C192.993 122.564 192.833 121.935 192.801 121.231C192.79 121.05 192.785 120.82 192.785 120.543C192.785 120.255 192.79 120.026 192.801 119.855C192.833 119.14 192.993 118.511 193.281 117.967C193.579 117.423 194.001 116.996 194.545 116.687C195.089 116.378 195.761 116.223 196.561 116.223C197.361 116.223 198.033 116.378 198.577 116.687C199.121 116.996 199.537 117.423 199.825 117.967C200.123 118.511 200.289 119.14 200.321 119.855C200.331 120.026 200.337 120.255 200.337 120.543C200.337 120.82 200.331 121.05 200.321 121.231C200.289 121.935 200.129 122.564 199.841 123.119C199.553 123.663 199.137 124.09 198.593 124.399C198.049 124.708 197.371 124.863 196.561 124.863ZM196.561 123.631C197.222 123.631 197.75 123.423 198.145 123.007C198.539 122.58 198.753 121.962 198.785 121.151C198.795 120.991 198.801 120.788 198.801 120.543C198.801 120.298 198.795 120.095 198.785 119.935C198.753 119.124 198.539 118.511 198.145 118.095C197.75 117.668 197.222 117.455 196.561 117.455C195.899 117.455 195.366 117.668 194.961 118.095C194.566 118.511 194.358 119.124 194.337 119.935C194.326 120.095 194.321 120.298 194.321 120.543C194.321 120.788 194.326 120.991 194.337 121.151C194.358 121.962 194.566 122.58 194.961 123.007C195.366 123.423 195.899 123.631 196.561 123.631ZM205.444 124.863C204.762 124.863 204.18 124.714 203.7 124.415C203.231 124.106 202.874 123.679 202.628 123.135C202.383 122.591 202.26 121.967 202.26 121.263V116.751C202.26 116.644 202.292 116.559 202.356 116.495C202.431 116.42 202.522 116.383 202.628 116.383H203.428C203.535 116.383 203.62 116.42 203.684 116.495C203.759 116.559 203.796 116.644 203.796 116.751V121.183C203.796 122.772 204.49 123.567 205.876 123.567C206.538 123.567 207.066 123.359 207.46 122.943C207.866 122.516 208.068 121.93 208.068 121.183V116.751C208.068 116.644 208.1 116.559 208.164 116.495C208.239 116.42 208.33 116.383 208.436 116.383H209.236C209.343 116.383 209.428 116.42 209.492 116.495C209.556 116.559 209.588 116.644 209.588 116.751V124.335C209.588 124.442 209.556 124.532 209.492 124.607C209.428 124.671 209.343 124.703 209.236 124.703H208.484C208.378 124.703 208.287 124.671 208.212 124.607C208.148 124.532 208.116 124.442 208.116 124.335V123.631C207.828 124.004 207.476 124.303 207.06 124.527C206.655 124.751 206.116 124.863 205.444 124.863ZM212.333 124.703C212.227 124.703 212.136 124.671 212.061 124.607C211.997 124.532 211.965 124.442 211.965 124.335V116.767C211.965 116.66 211.997 116.57 212.061 116.495C212.136 116.42 212.227 116.383 212.333 116.383H213.069C213.176 116.383 213.267 116.42 213.341 116.495C213.416 116.57 213.453 116.66 213.453 116.767V117.471C213.667 117.108 213.96 116.836 214.333 116.655C214.707 116.474 215.16 116.383 215.693 116.383H216.317C216.424 116.383 216.509 116.42 216.573 116.495C216.648 116.559 216.685 116.644 216.685 116.751V117.407C216.685 117.514 216.648 117.599 216.573 117.663C216.509 117.727 216.424 117.759 216.317 117.759H215.357C214.781 117.759 214.328 117.93 213.997 118.271C213.667 118.602 213.501 119.055 213.501 119.631V124.335C213.501 124.442 213.464 124.532 213.389 124.607C213.315 124.671 213.224 124.703 213.117 124.703H212.333ZM227.606 127.743C227.489 127.743 227.398 127.706 227.334 127.631C227.27 127.567 227.238 127.482 227.238 127.375V123.663C226.972 124.004 226.625 124.292 226.198 124.527C225.782 124.751 225.265 124.863 224.646 124.863C224.06 124.863 223.553 124.762 223.126 124.559C222.7 124.346 222.348 124.068 222.07 123.727C221.804 123.375 221.601 122.975 221.462 122.527C221.334 122.068 221.26 121.588 221.238 121.087C221.228 120.916 221.222 120.735 221.222 120.543C221.222 120.351 221.228 120.17 221.238 119.999C221.26 119.487 221.334 119.007 221.462 118.559C221.601 118.111 221.804 117.711 222.07 117.359C222.348 117.007 222.7 116.73 223.126 116.527C223.553 116.324 224.06 116.223 224.646 116.223C225.286 116.223 225.82 116.34 226.246 116.575C226.673 116.81 227.014 117.103 227.27 117.455V116.751C227.27 116.644 227.302 116.559 227.366 116.495C227.441 116.42 227.532 116.383 227.638 116.383H228.374C228.481 116.383 228.566 116.42 228.63 116.495C228.705 116.559 228.742 116.644 228.742 116.751V127.375C228.742 127.482 228.705 127.567 228.63 127.631C228.566 127.706 228.481 127.743 228.374 127.743H227.606ZM224.982 123.567C225.494 123.567 225.91 123.45 226.23 123.215C226.561 122.98 226.806 122.682 226.966 122.319C227.137 121.956 227.228 121.588 227.238 121.215C227.249 121.034 227.254 120.826 227.254 120.591C227.254 120.356 227.249 120.154 227.238 119.983C227.228 119.588 227.142 119.204 226.982 118.831C226.822 118.447 226.577 118.132 226.246 117.887C225.926 117.642 225.505 117.519 224.982 117.519C224.438 117.519 224.006 117.642 223.686 117.887C223.366 118.122 223.137 118.436 222.998 118.831C222.86 119.215 222.78 119.631 222.758 120.079C222.748 120.388 222.748 120.698 222.758 121.007C222.78 121.455 222.86 121.876 222.998 122.271C223.137 122.655 223.366 122.97 223.686 123.215C224.006 123.45 224.438 123.567 224.982 123.567ZM234.226 124.863C233.543 124.863 232.962 124.714 232.482 124.415C232.012 124.106 231.655 123.679 231.41 123.135C231.164 122.591 231.042 121.967 231.042 121.263V116.751C231.042 116.644 231.074 116.559 231.138 116.495C231.212 116.42 231.303 116.383 231.41 116.383H232.21C232.316 116.383 232.402 116.42 232.466 116.495C232.54 116.559 232.578 116.644 232.578 116.751V121.183C232.578 122.772 233.271 123.567 234.658 123.567C235.319 123.567 235.847 123.359 236.242 122.943C236.647 122.516 236.85 121.93 236.85 121.183V116.751C236.85 116.644 236.882 116.559 236.946 116.495C237.02 116.42 237.111 116.383 237.218 116.383H238.017C238.124 116.383 238.21 116.42 238.274 116.495C238.338 116.559 238.37 116.644 238.37 116.751V124.335C238.37 124.442 238.338 124.532 238.274 124.607C238.21 124.671 238.124 124.703 238.017 124.703H237.266C237.159 124.703 237.068 124.671 236.994 124.607C236.93 124.532 236.898 124.442 236.898 124.335V123.631C236.61 124.004 236.258 124.303 235.842 124.527C235.436 124.751 234.898 124.863 234.226 124.863ZM244.075 124.863C242.965 124.863 242.085 124.527 241.435 123.855C240.784 123.172 240.427 122.244 240.363 121.071C240.352 120.932 240.347 120.756 240.347 120.543C240.347 120.319 240.352 120.138 240.363 119.999C240.405 119.242 240.581 118.58 240.891 118.015C241.2 117.439 241.621 116.996 242.155 116.687C242.699 116.378 243.333 116.223 244.059 116.223C244.869 116.223 245.547 116.394 246.091 116.735C246.645 117.076 247.067 117.562 247.355 118.191C247.643 118.82 247.786 119.556 247.786 120.399V120.671C247.786 120.788 247.749 120.879 247.675 120.943C247.611 121.007 247.525 121.039 247.419 121.039H241.883C241.883 121.05 241.883 121.071 241.883 121.103C241.883 121.135 241.883 121.162 241.883 121.183C241.904 121.62 242 122.031 242.171 122.415C242.341 122.788 242.587 123.092 242.907 123.327C243.237 123.562 243.621 123.679 244.059 123.679C244.443 123.679 244.763 123.62 245.019 123.503C245.275 123.386 245.483 123.258 245.643 123.119C245.803 122.97 245.909 122.852 245.963 122.767C246.059 122.639 246.133 122.564 246.187 122.543C246.24 122.511 246.325 122.495 246.443 122.495H247.227C247.323 122.495 247.403 122.527 247.467 122.591C247.541 122.644 247.573 122.724 247.562 122.831C247.552 122.991 247.467 123.188 247.307 123.423C247.147 123.647 246.917 123.871 246.619 124.095C246.331 124.319 245.968 124.506 245.531 124.655C245.104 124.794 244.619 124.863 244.075 124.863ZM241.883 119.935H246.267V119.887C246.267 119.407 246.176 118.98 245.995 118.607C245.824 118.234 245.573 117.94 245.243 117.727C244.912 117.503 244.517 117.391 244.059 117.391C243.6 117.391 243.205 117.503 242.875 117.727C242.555 117.94 242.309 118.234 242.139 118.607C241.968 118.98 241.883 119.407 241.883 119.887V119.935ZM252.58 124.863C251.982 124.863 251.47 124.788 251.044 124.639C250.617 124.49 250.27 124.308 250.004 124.095C249.737 123.882 249.534 123.668 249.396 123.455C249.268 123.242 249.198 123.071 249.188 122.943C249.177 122.826 249.214 122.735 249.3 122.671C249.385 122.607 249.47 122.575 249.556 122.575H250.276C250.329 122.575 250.372 122.586 250.404 122.607C250.446 122.618 250.5 122.66 250.564 122.735C250.702 122.884 250.857 123.034 251.028 123.183C251.198 123.332 251.406 123.455 251.652 123.551C251.908 123.647 252.222 123.695 252.596 123.695C253.14 123.695 253.588 123.594 253.94 123.391C254.292 123.178 254.468 122.868 254.468 122.463C254.468 122.196 254.393 121.983 254.244 121.823C254.105 121.663 253.849 121.519 253.476 121.391C253.113 121.263 252.612 121.13 251.972 120.991C251.332 120.842 250.825 120.66 250.452 120.447C250.078 120.223 249.812 119.962 249.652 119.663C249.492 119.354 249.412 119.007 249.412 118.623C249.412 118.228 249.529 117.85 249.764 117.487C249.998 117.114 250.34 116.81 250.788 116.575C251.246 116.34 251.817 116.223 252.5 116.223C253.054 116.223 253.529 116.292 253.924 116.431C254.318 116.57 254.644 116.746 254.9 116.959C255.156 117.162 255.348 117.364 255.476 117.567C255.604 117.77 255.673 117.94 255.684 118.079C255.694 118.186 255.662 118.276 255.588 118.351C255.513 118.415 255.428 118.447 255.332 118.447H254.66C254.585 118.447 254.521 118.431 254.468 118.399C254.425 118.367 254.382 118.33 254.34 118.287C254.233 118.148 254.105 118.01 253.956 117.871C253.817 117.732 253.63 117.62 253.396 117.535C253.172 117.439 252.873 117.391 252.5 117.391C251.966 117.391 251.566 117.503 251.3 117.727C251.033 117.951 250.9 118.234 250.9 118.575C250.9 118.778 250.958 118.959 251.076 119.119C251.193 119.279 251.417 119.423 251.748 119.551C252.078 119.679 252.569 119.818 253.22 119.967C253.924 120.106 254.478 120.292 254.884 120.527C255.289 120.762 255.577 121.034 255.748 121.343C255.918 121.652 256.004 122.01 256.004 122.415C256.004 122.863 255.876 123.274 255.62 123.647C255.364 124.02 254.98 124.319 254.468 124.543C253.956 124.756 253.326 124.863 252.58 124.863ZM261.088 124.703C260.491 124.703 260.006 124.591 259.632 124.367C259.259 124.132 258.987 123.807 258.816 123.391C258.646 122.964 258.56 122.463 258.56 121.887V117.663H257.312C257.206 117.663 257.115 117.631 257.04 117.567C256.976 117.492 256.944 117.402 256.944 117.295V116.751C256.944 116.644 256.976 116.559 257.04 116.495C257.115 116.42 257.206 116.383 257.312 116.383H258.56V113.711C258.56 113.604 258.592 113.519 258.656 113.455C258.731 113.38 258.822 113.343 258.928 113.343H259.68C259.787 113.343 259.872 113.38 259.936 113.455C260.011 113.519 260.048 113.604 260.048 113.711V116.383H262.032C262.15 116.383 262.24 116.42 262.304 116.495C262.368 116.559 262.4 116.644 262.4 116.751V117.295C262.4 117.402 262.368 117.492 262.304 117.567C262.24 117.631 262.15 117.663 262.032 117.663H260.048V121.775C260.048 122.276 260.134 122.671 260.304 122.959C260.475 123.247 260.779 123.391 261.216 123.391H262.192C262.299 123.391 262.384 123.428 262.448 123.503C262.523 123.567 262.56 123.652 262.56 123.759V124.335C262.56 124.442 262.523 124.532 262.448 124.607C262.384 124.671 262.299 124.703 262.192 124.703H261.088ZM264.458 124.703C264.352 124.703 264.261 124.671 264.186 124.607C264.122 124.532 264.09 124.442 264.09 124.335V116.751C264.09 116.644 264.122 116.559 264.186 116.495C264.261 116.42 264.352 116.383 264.458 116.383H265.226C265.333 116.383 265.418 116.42 265.482 116.495C265.557 116.559 265.594 116.644 265.594 116.751V124.335C265.594 124.442 265.557 124.532 265.482 124.607C265.418 124.671 265.333 124.703 265.226 124.703H264.458ZM264.33 114.831C264.224 114.831 264.133 114.799 264.058 114.735C263.994 114.66 263.962 114.57 263.962 114.463V113.599C263.962 113.492 263.994 113.402 264.058 113.327C264.133 113.252 264.224 113.215 264.33 113.215H265.338C265.445 113.215 265.536 113.252 265.61 113.327C265.685 113.402 265.722 113.492 265.722 113.599V114.463C265.722 114.57 265.685 114.66 265.61 114.735C265.536 114.799 265.445 114.831 265.338 114.831H264.33ZM271.373 124.863C270.563 124.863 269.885 124.708 269.341 124.399C268.797 124.09 268.381 123.663 268.093 123.119C267.805 122.564 267.645 121.935 267.613 121.231C267.603 121.05 267.597 120.82 267.597 120.543C267.597 120.255 267.603 120.026 267.613 119.855C267.645 119.14 267.805 118.511 268.093 117.967C268.392 117.423 268.813 116.996 269.357 116.687C269.901 116.378 270.573 116.223 271.373 116.223C272.173 116.223 272.845 116.378 273.389 116.687C273.933 116.996 274.349 117.423 274.637 117.967C274.936 118.511 275.101 119.14 275.133 119.855C275.144 120.026 275.149 120.255 275.149 120.543C275.149 120.82 275.144 121.05 275.133 121.231C275.101 121.935 274.941 122.564 274.653 123.119C274.365 123.663 273.949 124.09 273.405 124.399C272.861 124.708 272.184 124.863 271.373 124.863ZM271.373 123.631C272.035 123.631 272.563 123.423 272.957 123.007C273.352 122.58 273.565 121.962 273.597 121.151C273.608 120.991 273.613 120.788 273.613 120.543C273.613 120.298 273.608 120.095 273.597 119.935C273.565 119.124 273.352 118.511 272.957 118.095C272.563 117.668 272.035 117.455 271.373 117.455C270.712 117.455 270.179 117.668 269.773 118.095C269.379 118.511 269.171 119.124 269.149 119.935C269.139 120.095 269.133 120.298 269.133 120.543C269.133 120.788 269.139 120.991 269.149 121.151C269.171 121.962 269.379 122.58 269.773 123.007C270.179 123.423 270.712 123.631 271.373 123.631ZM277.521 124.703C277.414 124.703 277.323 124.671 277.249 124.607C277.185 124.532 277.153 124.442 277.153 124.335V116.751C277.153 116.644 277.185 116.559 277.249 116.495C277.323 116.42 277.414 116.383 277.521 116.383H278.273C278.379 116.383 278.465 116.42 278.529 116.495C278.603 116.559 278.641 116.644 278.641 116.751V117.455C278.918 117.092 279.265 116.799 279.681 116.575C280.107 116.34 280.651 116.223 281.313 116.223C282.006 116.223 282.593 116.378 283.073 116.687C283.563 116.986 283.931 117.407 284.177 117.951C284.433 118.484 284.561 119.108 284.561 119.823V124.335C284.561 124.442 284.523 124.532 284.449 124.607C284.385 124.671 284.299 124.703 284.193 124.703H283.393C283.286 124.703 283.195 124.671 283.121 124.607C283.057 124.532 283.025 124.442 283.025 124.335V119.903C283.025 119.156 282.843 118.575 282.481 118.159C282.118 117.732 281.585 117.519 280.881 117.519C280.219 117.519 279.686 117.732 279.281 118.159C278.886 118.575 278.689 119.156 278.689 119.903V124.335C278.689 124.442 278.651 124.532 278.577 124.607C278.513 124.671 278.427 124.703 278.321 124.703H277.521ZM287.224 124.703C287.117 124.703 287.027 124.671 286.952 124.607C286.888 124.532 286.856 124.442 286.856 124.335V116.751C286.856 116.644 286.888 116.559 286.952 116.495C287.027 116.42 287.117 116.383 287.224 116.383H287.992C288.099 116.383 288.184 116.42 288.248 116.495C288.323 116.559 288.36 116.644 288.36 116.751V124.335C288.36 124.442 288.323 124.532 288.248 124.607C288.184 124.671 288.099 124.703 287.992 124.703H287.224ZM287.096 114.831C286.989 114.831 286.899 114.799 286.824 114.735C286.76 114.66 286.728 114.57 286.728 114.463V113.599C286.728 113.492 286.76 113.402 286.824 113.327C286.899 113.252 286.989 113.215 287.096 113.215H288.104C288.211 113.215 288.301 113.252 288.376 113.327C288.451 113.402 288.488 113.492 288.488 113.599V114.463C288.488 114.57 288.451 114.66 288.376 114.735C288.301 114.799 288.211 114.831 288.104 114.831H287.096ZM291.099 124.703C290.992 124.703 290.902 124.671 290.827 124.607C290.763 124.532 290.731 124.442 290.731 124.335V116.751C290.731 116.644 290.763 116.559 290.827 116.495C290.902 116.42 290.992 116.383 291.099 116.383H291.851C291.958 116.383 292.043 116.42 292.107 116.495C292.182 116.559 292.219 116.644 292.219 116.751V117.455C292.496 117.092 292.843 116.799 293.259 116.575C293.686 116.34 294.23 116.223 294.891 116.223C295.584 116.223 296.171 116.378 296.651 116.687C297.142 116.986 297.51 117.407 297.755 117.951C298.011 118.484 298.139 119.108 298.139 119.823V124.335C298.139 124.442 298.102 124.532 298.027 124.607C297.963 124.671 297.878 124.703 297.771 124.703H296.971C296.864 124.703 296.774 124.671 296.699 124.607C296.635 124.532 296.603 124.442 296.603 124.335V119.903C296.603 119.156 296.422 118.575 296.059 118.159C295.696 117.732 295.163 117.519 294.459 117.519C293.798 117.519 293.264 117.732 292.859 118.159C292.464 118.575 292.267 119.156 292.267 119.903V124.335C292.267 124.442 292.23 124.532 292.155 124.607C292.091 124.671 292.006 124.703 291.899 124.703H291.099ZM303.842 128.223C303.117 128.223 302.519 128.127 302.05 127.935C301.591 127.743 301.229 127.508 300.962 127.231C300.706 126.964 300.519 126.692 300.402 126.415C300.295 126.148 300.237 125.935 300.226 125.775C300.215 125.668 300.247 125.578 300.322 125.503C300.407 125.428 300.498 125.391 300.594 125.391H301.362C301.458 125.391 301.538 125.412 301.602 125.455C301.666 125.498 301.719 125.588 301.762 125.727C301.826 125.887 301.922 126.063 302.05 126.255C302.178 126.458 302.375 126.628 302.642 126.767C302.909 126.916 303.282 126.991 303.762 126.991C304.263 126.991 304.685 126.922 305.026 126.783C305.367 126.644 305.623 126.41 305.794 126.079C305.975 125.748 306.066 125.29 306.066 124.703V123.615C305.81 123.946 305.474 124.223 305.058 124.447C304.642 124.66 304.119 124.767 303.49 124.767C302.893 124.767 302.381 124.666 301.954 124.463C301.527 124.25 301.175 123.967 300.898 123.615C300.631 123.252 300.429 122.842 300.29 122.383C300.162 121.924 300.087 121.444 300.066 120.943C300.055 120.644 300.055 120.351 300.066 120.063C300.087 119.562 300.162 119.082 300.29 118.623C300.429 118.164 300.631 117.754 300.898 117.391C301.175 117.028 301.527 116.746 301.954 116.543C302.381 116.33 302.893 116.223 303.49 116.223C304.13 116.223 304.658 116.34 305.074 116.575C305.501 116.81 305.847 117.103 306.114 117.455V116.767C306.114 116.66 306.146 116.57 306.21 116.495C306.285 116.42 306.375 116.383 306.482 116.383H307.218C307.325 116.383 307.415 116.42 307.49 116.495C307.565 116.57 307.602 116.66 307.602 116.767V124.527C307.602 125.242 307.479 125.876 307.234 126.431C306.999 126.986 306.605 127.423 306.05 127.743C305.506 128.063 304.77 128.223 303.842 128.223ZM303.81 123.487C304.343 123.487 304.77 123.364 305.09 123.119C305.421 122.874 305.661 122.564 305.81 122.191C305.97 121.818 306.055 121.439 306.066 121.055C306.077 120.906 306.082 120.724 306.082 120.511C306.082 120.287 306.077 120.1 306.066 119.951C306.055 119.567 305.97 119.188 305.81 118.815C305.661 118.442 305.421 118.132 305.09 117.887C304.77 117.642 304.343 117.519 303.81 117.519C303.277 117.519 302.85 117.642 302.53 117.887C302.21 118.122 301.981 118.436 301.842 118.831C301.703 119.215 301.623 119.631 301.602 120.079C301.591 120.356 301.591 120.639 301.602 120.927C301.623 121.375 301.703 121.796 301.842 122.191C301.981 122.575 302.21 122.89 302.53 123.135C302.85 123.37 303.277 123.487 303.81 123.487ZM310.269 119.103C310.162 119.103 310.072 119.071 309.997 119.007C309.933 118.932 309.901 118.842 309.901 118.735V117.615C309.901 117.508 309.933 117.423 309.997 117.359C310.072 117.284 310.162 117.247 310.269 117.247H311.421C311.528 117.247 311.613 117.284 311.677 117.359C311.752 117.423 311.789 117.508 311.789 117.615V118.735C311.789 118.842 311.752 118.932 311.677 119.007C311.613 119.071 311.528 119.103 311.421 119.103H310.269ZM310.269 124.703C310.162 124.703 310.072 124.671 309.997 124.607C309.933 124.532 309.901 124.442 309.901 124.335V123.215C309.901 123.108 309.933 123.023 309.997 122.959C310.072 122.884 310.162 122.847 310.269 122.847H311.421C311.528 122.847 311.613 122.884 311.677 122.959C311.752 123.023 311.789 123.108 311.789 123.215V124.335C311.789 124.442 311.752 124.532 311.677 124.607C311.613 124.671 311.528 124.703 311.421 124.703H310.269ZM320.877 124.863C320.279 124.863 319.767 124.788 319.341 124.639C318.914 124.49 318.567 124.308 318.301 124.095C318.034 123.882 317.831 123.668 317.693 123.455C317.565 123.242 317.495 123.071 317.485 122.943C317.474 122.826 317.511 122.735 317.597 122.671C317.682 122.607 317.767 122.575 317.853 122.575H318.573C318.626 122.575 318.669 122.586 318.701 122.607C318.743 122.618 318.797 122.66 318.861 122.735C318.999 122.884 319.154 123.034 319.325 123.183C319.495 123.332 319.703 123.455 319.949 123.551C320.205 123.647 320.519 123.695 320.893 123.695C321.437 123.695 321.885 123.594 322.237 123.391C322.589 123.178 322.765 122.868 322.765 122.463C322.765 122.196 322.69 121.983 322.541 121.823C322.402 121.663 322.146 121.519 321.773 121.391C321.41 121.263 320.909 121.13 320.269 120.991C319.629 120.842 319.122 120.66 318.749 120.447C318.375 120.223 318.109 119.962 317.949 119.663C317.789 119.354 317.709 119.007 317.709 118.623C317.709 118.228 317.826 117.85 318.061 117.487C318.295 117.114 318.637 116.81 319.085 116.575C319.543 116.34 320.114 116.223 320.797 116.223C321.351 116.223 321.826 116.292 322.221 116.431C322.615 116.57 322.941 116.746 323.197 116.959C323.453 117.162 323.645 117.364 323.773 117.567C323.901 117.77 323.97 117.94 323.981 118.079C323.991 118.186 323.959 118.276 323.885 118.351C323.81 118.415 323.725 118.447 323.629 118.447H322.957C322.882 118.447 322.818 118.431 322.765 118.399C322.722 118.367 322.679 118.33 322.637 118.287C322.53 118.148 322.402 118.01 322.253 117.871C322.114 117.732 321.927 117.62 321.693 117.535C321.469 117.439 321.17 117.391 320.797 117.391C320.263 117.391 319.863 117.503 319.597 117.727C319.33 117.951 319.197 118.234 319.197 118.575C319.197 118.778 319.255 118.959 319.373 119.119C319.49 119.279 319.714 119.423 320.045 119.551C320.375 119.679 320.866 119.818 321.516 119.967C322.221 120.106 322.775 120.292 323.181 120.527C323.586 120.762 323.874 121.034 324.045 121.343C324.215 121.652 324.301 122.01 324.301 122.415C324.301 122.863 324.173 123.274 323.917 123.647C323.661 124.02 323.277 124.319 322.765 124.543C322.253 124.756 321.623 124.863 320.877 124.863ZM327.328 127.743C327.242 127.743 327.168 127.711 327.104 127.647C327.04 127.583 327.008 127.508 327.008 127.423C327.008 127.38 327.013 127.338 327.024 127.295C327.034 127.252 327.056 127.199 327.088 127.135L328.32 124.207L325.264 116.991C325.21 116.863 325.184 116.772 325.184 116.719C325.184 116.623 325.216 116.543 325.28 116.479C325.344 116.415 325.424 116.383 325.52 116.383H326.304C326.421 116.383 326.506 116.41 326.56 116.463C326.624 116.516 326.666 116.58 326.688 116.655L329.12 122.479L331.616 116.655C331.648 116.58 331.69 116.516 331.744 116.463C331.808 116.41 331.898 116.383 332.016 116.383H332.767C332.863 116.383 332.944 116.415 333.008 116.479C333.072 116.543 333.104 116.618 333.104 116.703C333.104 116.756 333.077 116.852 333.024 116.991L328.48 127.471C328.448 127.546 328.4 127.61 328.336 127.663C328.282 127.716 328.197 127.743 328.08 127.743H327.328ZM335.068 124.703C334.961 124.703 334.87 124.671 334.796 124.607C334.732 124.532 334.7 124.442 334.7 124.335V116.751C334.7 116.644 334.732 116.559 334.796 116.495C334.87 116.42 334.961 116.383 335.068 116.383H335.788C335.894 116.383 335.98 116.42 336.044 116.495C336.118 116.559 336.156 116.644 336.156 116.751V117.311C336.401 116.98 336.71 116.719 337.084 116.527C337.457 116.324 337.905 116.223 338.428 116.223C339.633 116.212 340.486 116.703 340.988 117.695C341.233 117.247 341.59 116.89 342.06 116.623C342.529 116.356 343.062 116.223 343.66 116.223C344.214 116.223 344.716 116.351 345.164 116.607C345.622 116.863 345.98 117.252 346.236 117.775C346.502 118.287 346.636 118.932 346.636 119.711V124.335C346.636 124.442 346.598 124.532 346.524 124.607C346.46 124.671 346.374 124.703 346.268 124.703H345.516C345.409 124.703 345.318 124.671 345.244 124.607C345.18 124.532 345.148 124.442 345.148 124.335V119.855C345.148 119.258 345.062 118.788 344.892 118.447C344.721 118.106 344.492 117.866 344.204 117.727C343.916 117.588 343.601 117.519 343.26 117.519C342.982 117.519 342.7 117.588 342.412 117.727C342.124 117.866 341.884 118.106 341.692 118.447C341.51 118.788 341.42 119.258 341.42 119.855V124.335C341.42 124.442 341.382 124.532 341.308 124.607C341.244 124.671 341.158 124.703 341.052 124.703H340.3C340.193 124.703 340.102 124.671 340.028 124.607C339.964 124.532 339.932 124.442 339.932 124.335V119.855C339.932 119.258 339.841 118.788 339.66 118.447C339.478 118.106 339.244 117.866 338.956 117.727C338.668 117.588 338.364 117.519 338.044 117.519C337.766 117.519 337.484 117.588 337.196 117.727C336.908 117.866 336.668 118.106 336.476 118.447C336.294 118.788 336.204 119.252 336.204 119.839V124.335C336.204 124.442 336.166 124.532 336.092 124.607C336.028 124.671 335.942 124.703 335.836 124.703H335.068ZM349.302 127.743C349.196 127.743 349.105 127.706 349.03 127.631C348.966 127.567 348.934 127.482 348.934 127.375V116.751C348.934 116.644 348.966 116.559 349.03 116.495C349.105 116.42 349.196 116.383 349.302 116.383H350.038C350.145 116.383 350.23 116.42 350.294 116.495C350.369 116.559 350.406 116.644 350.406 116.751V117.455C350.662 117.103 351.004 116.81 351.43 116.575C351.857 116.34 352.39 116.223 353.03 116.223C353.628 116.223 354.134 116.324 354.55 116.527C354.977 116.73 355.324 117.007 355.59 117.359C355.868 117.711 356.076 118.111 356.214 118.559C356.353 119.007 356.433 119.487 356.454 119.999C356.465 120.17 356.47 120.351 356.47 120.543C356.47 120.735 356.465 120.916 356.454 121.087C356.433 121.588 356.353 122.068 356.214 122.527C356.076 122.975 355.868 123.375 355.59 123.727C355.324 124.068 354.977 124.346 354.55 124.559C354.134 124.762 353.628 124.863 353.03 124.863C352.412 124.863 351.889 124.751 351.462 124.527C351.046 124.292 350.705 124.004 350.438 123.663V127.375C350.438 127.482 350.406 127.567 350.342 127.631C350.278 127.706 350.193 127.743 350.086 127.743H349.302ZM352.694 123.567C353.249 123.567 353.681 123.45 353.99 123.215C354.31 122.97 354.54 122.655 354.678 122.271C354.817 121.876 354.897 121.455 354.918 121.007C354.929 120.698 354.929 120.388 354.918 120.079C354.897 119.631 354.817 119.215 354.678 118.831C354.54 118.436 354.31 118.122 353.99 117.887C353.681 117.642 353.249 117.519 352.694 117.519C352.172 117.519 351.745 117.642 351.414 117.887C351.094 118.132 350.854 118.447 350.694 118.831C350.545 119.204 350.46 119.588 350.438 119.983C350.428 120.154 350.422 120.356 350.422 120.591C350.422 120.826 350.428 121.034 350.438 121.215C350.449 121.588 350.534 121.956 350.694 122.319C350.865 122.682 351.116 122.98 351.446 123.215C351.777 123.45 352.193 123.567 352.694 123.567ZM361.604 124.703C361.007 124.703 360.521 124.591 360.148 124.367C359.775 124.132 359.503 123.807 359.332 123.391C359.161 122.964 359.076 122.463 359.076 121.887V117.663H357.828C357.721 117.663 357.631 117.631 357.556 117.567C357.492 117.492 357.46 117.402 357.46 117.295V116.751C357.46 116.644 357.492 116.559 357.556 116.495C357.631 116.42 357.721 116.383 357.828 116.383H359.076V113.711C359.076 113.604 359.108 113.519 359.172 113.455C359.247 113.38 359.337 113.343 359.444 113.343H360.196C360.303 113.343 360.388 113.38 360.452 113.455C360.527 113.519 360.564 113.604 360.564 113.711V116.383H362.548C362.665 116.383 362.756 116.42 362.82 116.495C362.884 116.559 362.916 116.644 362.916 116.751V117.295C362.916 117.402 362.884 117.492 362.82 117.567C362.756 117.631 362.665 117.663 362.548 117.663H360.564V121.775C360.564 122.276 360.649 122.671 360.82 122.959C360.991 123.247 361.295 123.391 361.732 123.391H362.708C362.815 123.391 362.9 123.428 362.964 123.503C363.039 123.567 363.076 123.652 363.076 123.759V124.335C363.076 124.442 363.039 124.532 362.964 124.607C362.9 124.671 362.815 124.703 362.708 124.703H361.604ZM368.014 124.863C367.203 124.863 366.526 124.708 365.982 124.399C365.438 124.09 365.022 123.663 364.734 123.119C364.446 122.564 364.286 121.935 364.254 121.231C364.243 121.05 364.238 120.82 364.238 120.543C364.238 120.255 364.243 120.026 364.254 119.855C364.286 119.14 364.446 118.511 364.734 117.967C365.033 117.423 365.454 116.996 365.998 116.687C366.542 116.378 367.214 116.223 368.014 116.223C368.814 116.223 369.486 116.378 370.03 116.687C370.574 116.996 370.99 117.423 371.278 117.967C371.577 118.511 371.742 119.14 371.774 119.855C371.785 120.026 371.79 120.255 371.79 120.543C371.79 120.82 371.785 121.05 371.774 121.231C371.742 121.935 371.582 122.564 371.294 123.119C371.006 123.663 370.59 124.09 370.046 124.399C369.502 124.708 368.825 124.863 368.014 124.863ZM368.014 123.631C368.675 123.631 369.203 123.423 369.598 123.007C369.993 122.58 370.206 121.962 370.238 121.151C370.249 120.991 370.254 120.788 370.254 120.543C370.254 120.298 370.249 120.095 370.238 119.935C370.206 119.124 369.993 118.511 369.598 118.095C369.203 117.668 368.675 117.455 368.014 117.455C367.353 117.455 366.819 117.668 366.414 118.095C366.019 118.511 365.811 119.124 365.79 119.935C365.779 120.095 365.774 120.298 365.774 120.543C365.774 120.788 365.779 120.991 365.79 121.151C365.811 121.962 366.019 122.58 366.414 123.007C366.819 123.423 367.353 123.631 368.014 123.631ZM374.161 124.703C374.055 124.703 373.964 124.671 373.889 124.607C373.825 124.532 373.793 124.442 373.793 124.335V116.751C373.793 116.644 373.825 116.559 373.889 116.495C373.964 116.42 374.055 116.383 374.161 116.383H374.881C374.988 116.383 375.073 116.42 375.137 116.495C375.212 116.559 375.249 116.644 375.249 116.751V117.311C375.495 116.98 375.804 116.719 376.177 116.527C376.551 116.324 376.999 116.223 377.521 116.223C378.727 116.212 379.58 116.703 380.081 117.695C380.327 117.247 380.684 116.89 381.153 116.623C381.623 116.356 382.156 116.223 382.753 116.223C383.308 116.223 383.809 116.351 384.257 116.607C384.716 116.863 385.073 117.252 385.329 117.775C385.596 118.287 385.729 118.932 385.729 119.711V124.335C385.729 124.442 385.692 124.532 385.617 124.607C385.553 124.671 385.468 124.703 385.361 124.703H384.609C384.503 124.703 384.412 124.671 384.337 124.607C384.273 124.532 384.241 124.442 384.241 124.335V119.855C384.241 119.258 384.156 118.788 383.985 118.447C383.815 118.106 383.585 117.866 383.297 117.727C383.009 117.588 382.695 117.519 382.353 117.519C382.076 117.519 381.793 117.588 381.505 117.727C381.217 117.866 380.977 118.106 380.785 118.447C380.604 118.788 380.513 119.258 380.513 119.855V124.335C380.513 124.442 380.476 124.532 380.401 124.607C380.337 124.671 380.252 124.703 380.145 124.703H379.393C379.287 124.703 379.196 124.671 379.121 124.607C379.057 124.532 379.025 124.442 379.025 124.335V119.855C379.025 119.258 378.935 118.788 378.753 118.447C378.572 118.106 378.337 117.866 378.049 117.727C377.761 117.588 377.457 117.519 377.137 117.519C376.86 117.519 376.577 117.588 376.289 117.727C376.001 117.866 375.761 118.106 375.569 118.447C375.388 118.788 375.297 119.252 375.297 119.839V124.335C375.297 124.442 375.26 124.532 375.185 124.607C375.121 124.671 375.036 124.703 374.929 124.703H374.161ZM390.892 124.863C390.295 124.863 389.783 124.788 389.356 124.639C388.929 124.49 388.583 124.308 388.316 124.095C388.049 123.882 387.847 123.668 387.708 123.455C387.58 123.242 387.511 123.071 387.5 122.943C387.489 122.826 387.527 122.735 387.612 122.671C387.697 122.607 387.783 122.575 387.868 122.575H388.588C388.641 122.575 388.684 122.586 388.716 122.607C388.759 122.618 388.812 122.66 388.876 122.735C389.015 122.884 389.169 123.034 389.34 123.183C389.511 123.332 389.719 123.455 389.964 123.551C390.22 123.647 390.535 123.695 390.908 123.695C391.452 123.695 391.9 123.594 392.252 123.391C392.604 123.178 392.78 122.868 392.78 122.463C392.78 122.196 392.705 121.983 392.556 121.823C392.417 121.663 392.161 121.519 391.788 121.391C391.425 121.263 390.924 121.13 390.284 120.991C389.644 120.842 389.137 120.66 388.764 120.447C388.391 120.223 388.124 119.962 387.964 119.663C387.804 119.354 387.724 119.007 387.724 118.623C387.724 118.228 387.841 117.85 388.076 117.487C388.311 117.114 388.652 116.81 389.1 116.575C389.559 116.34 390.129 116.223 390.812 116.223C391.367 116.223 391.841 116.292 392.236 116.431C392.631 116.57 392.956 116.746 393.212 116.959C393.468 117.162 393.66 117.364 393.788 117.567C393.916 117.77 393.985 117.94 393.996 118.079C394.007 118.186 393.975 118.276 393.9 118.351C393.825 118.415 393.74 118.447 393.644 118.447H392.972C392.897 118.447 392.833 118.431 392.78 118.399C392.737 118.367 392.695 118.33 392.652 118.287C392.545 118.148 392.417 118.01 392.268 117.871C392.129 117.732 391.943 117.62 391.708 117.535C391.484 117.439 391.185 117.391 390.812 117.391C390.279 117.391 389.879 117.503 389.612 117.727C389.345 117.951 389.212 118.234 389.212 118.575C389.212 118.778 389.271 118.959 389.388 119.119C389.505 119.279 389.729 119.423 390.06 119.551C390.391 119.679 390.881 119.818 391.532 119.967C392.236 120.106 392.791 120.292 393.196 120.527C393.601 120.762 393.889 121.034 394.06 121.343C394.231 121.652 394.316 122.01 394.316 122.415C394.316 122.863 394.188 123.274 393.932 123.647C393.676 124.02 393.292 124.319 392.78 124.543C392.268 124.756 391.639 124.863 390.892 124.863ZM396.056 125.903C395.971 125.903 395.902 125.871 395.848 125.807C395.806 125.743 395.79 125.663 395.8 125.567L396.168 123.279C396.19 123.151 396.232 123.044 396.296 122.959C396.371 122.863 396.478 122.815 396.616 122.815H397.688C397.763 122.815 397.822 122.842 397.864 122.895C397.918 122.948 397.944 123.012 397.944 123.087C397.944 123.172 397.928 123.258 397.896 123.343L397.048 125.535C397.006 125.642 396.947 125.727 396.872 125.791C396.808 125.866 396.712 125.903 396.584 125.903H396.056ZM406.395 124.863C405.861 124.863 405.376 124.756 404.939 124.543C404.501 124.33 404.149 124.042 403.883 123.679C403.616 123.316 403.483 122.906 403.483 122.447C403.483 121.711 403.781 121.124 404.379 120.687C404.976 120.25 405.755 119.962 406.715 119.823L409.099 119.487V119.023C409.099 118.511 408.949 118.111 408.651 117.823C408.363 117.535 407.888 117.391 407.227 117.391C406.757 117.391 406.373 117.487 406.075 117.679C405.776 117.871 405.568 118.116 405.451 118.415C405.387 118.575 405.275 118.655 405.115 118.655H404.395C404.277 118.655 404.187 118.623 404.123 118.559C404.069 118.484 404.043 118.399 404.043 118.303C404.043 118.143 404.101 117.946 404.219 117.711C404.347 117.476 404.539 117.247 404.795 117.023C405.051 116.799 405.376 116.612 405.771 116.463C406.176 116.303 406.667 116.223 407.243 116.223C407.883 116.223 408.421 116.308 408.859 116.479C409.296 116.639 409.637 116.858 409.883 117.135C410.139 117.412 410.32 117.727 410.427 118.079C410.544 118.431 410.603 118.788 410.603 119.151V124.335C410.603 124.442 410.565 124.532 410.491 124.607C410.427 124.671 410.341 124.703 410.235 124.703H409.499C409.381 124.703 409.291 124.671 409.227 124.607C409.163 124.532 409.131 124.442 409.131 124.335V123.647C408.992 123.839 408.805 124.031 408.571 124.223C408.336 124.404 408.043 124.559 407.691 124.687C407.339 124.804 406.907 124.863 406.395 124.863ZM406.731 123.663C407.168 123.663 407.568 123.572 407.931 123.391C408.293 123.199 408.576 122.906 408.779 122.511C408.992 122.116 409.099 121.62 409.099 121.023V120.575L407.243 120.847C406.485 120.954 405.915 121.135 405.531 121.391C405.147 121.636 404.955 121.951 404.955 122.335C404.955 122.634 405.04 122.884 405.211 123.087C405.392 123.279 405.616 123.423 405.883 123.519C406.16 123.615 406.443 123.663 406.731 123.663ZM413.271 124.703C413.164 124.703 413.073 124.671 412.999 124.607C412.935 124.532 412.903 124.442 412.903 124.335V116.751C412.903 116.644 412.935 116.559 412.999 116.495C413.073 116.42 413.164 116.383 413.271 116.383H414.023C414.129 116.383 414.215 116.42 414.279 116.495C414.353 116.559 414.391 116.644 414.391 116.751V117.455C414.668 117.092 415.015 116.799 415.431 116.575C415.857 116.34 416.401 116.223 417.063 116.223C417.756 116.223 418.343 116.378 418.823 116.687C419.313 116.986 419.681 117.407 419.927 117.951C420.183 118.484 420.311 119.108 420.311 119.823V124.335C420.311 124.442 420.273 124.532 420.199 124.607C420.135 124.671 420.049 124.703 419.943 124.703H419.143C419.036 124.703 418.945 124.671 418.871 124.607C418.807 124.532 418.775 124.442 418.775 124.335V119.903C418.775 119.156 418.593 118.575 418.231 118.159C417.868 117.732 417.335 117.519 416.631 117.519C415.969 117.519 415.436 117.732 415.031 118.159C414.636 118.575 414.439 119.156 414.439 119.903V124.335C414.439 124.442 414.401 124.532 414.327 124.607C414.263 124.671 414.177 124.703 414.071 124.703H413.271ZM424.926 124.863C424.393 124.863 423.907 124.756 423.47 124.543C423.033 124.33 422.681 124.042 422.414 123.679C422.147 123.316 422.014 122.906 422.014 122.447C422.014 121.711 422.313 121.124 422.91 120.687C423.507 120.25 424.286 119.962 425.246 119.823L427.63 119.487V119.023C427.63 118.511 427.481 118.111 427.182 117.823C426.894 117.535 426.419 117.391 425.758 117.391C425.289 117.391 424.905 117.487 424.606 117.679C424.307 117.871 424.099 118.116 423.982 118.415C423.918 118.575 423.806 118.655 423.646 118.655H422.926C422.809 118.655 422.718 118.623 422.654 118.559C422.601 118.484 422.574 118.399 422.574 118.303C422.574 118.143 422.633 117.946 422.75 117.711C422.878 117.476 423.07 117.247 423.326 117.023C423.582 116.799 423.907 116.612 424.302 116.463C424.707 116.303 425.198 116.223 425.774 116.223C426.414 116.223 426.953 116.308 427.39 116.479C427.827 116.639 428.169 116.858 428.414 117.135C428.67 117.412 428.851 117.727 428.958 118.079C429.075 118.431 429.134 118.788 429.134 119.151V124.335C429.134 124.442 429.097 124.532 429.022 124.607C428.958 124.671 428.873 124.703 428.766 124.703H428.03C427.913 124.703 427.822 124.671 427.758 124.607C427.694 124.532 427.662 124.442 427.662 124.335V123.647C427.523 123.839 427.337 124.031 427.102 124.223C426.867 124.404 426.574 124.559 426.222 124.687C425.87 124.804 425.438 124.863 424.926 124.863ZM425.262 123.663C425.699 123.663 426.099 123.572 426.462 123.391C426.825 123.199 427.107 122.906 427.31 122.511C427.523 122.116 427.63 121.62 427.63 121.023V120.575L425.774 120.847C425.017 120.954 424.446 121.135 424.062 121.391C423.678 121.636 423.486 121.951 423.486 122.335C423.486 122.634 423.571 122.884 423.742 123.087C423.923 123.279 424.147 123.423 424.414 123.519C424.691 123.615 424.974 123.663 425.262 123.663ZM431.802 124.703C431.695 124.703 431.605 124.671 431.53 124.607C431.466 124.532 431.434 124.442 431.434 124.335V116.751C431.434 116.644 431.466 116.559 431.53 116.495C431.605 116.42 431.695 116.383 431.802 116.383H432.522C432.629 116.383 432.714 116.42 432.778 116.495C432.853 116.559 432.89 116.644 432.89 116.751V117.311C433.135 116.98 433.445 116.719 433.818 116.527C434.191 116.324 434.639 116.223 435.162 116.223C436.367 116.212 437.221 116.703 437.722 117.695C437.967 117.247 438.325 116.89 438.794 116.623C439.263 116.356 439.797 116.223 440.394 116.223C440.949 116.223 441.45 116.351 441.898 116.607C442.357 116.863 442.714 117.252 442.97 117.775C443.237 118.287 443.37 118.932 443.37 119.711V124.335C443.37 124.442 443.333 124.532 443.258 124.607C443.194 124.671 443.109 124.703 443.002 124.703H442.25C442.143 124.703 442.053 124.671 441.978 124.607C441.914 124.532 441.882 124.442 441.882 124.335V119.855C441.882 119.258 441.797 118.788 441.626 118.447C441.455 118.106 441.226 117.866 440.938 117.727C440.65 117.588 440.335 117.519 439.994 117.519C439.717 117.519 439.434 117.588 439.146 117.727C438.858 117.866 438.618 118.106 438.426 118.447C438.245 118.788 438.154 119.258 438.154 119.855V124.335C438.154 124.442 438.117 124.532 438.042 124.607C437.978 124.671 437.893 124.703 437.786 124.703H437.034C436.927 124.703 436.837 124.671 436.762 124.607C436.698 124.532 436.666 124.442 436.666 124.335V119.855C436.666 119.258 436.575 118.788 436.394 118.447C436.213 118.106 435.978 117.866 435.69 117.727C435.402 117.588 435.098 117.519 434.778 117.519C434.501 117.519 434.218 117.588 433.93 117.727C433.642 117.866 433.402 118.106 433.21 118.447C433.029 118.788 432.938 119.252 432.938 119.839V124.335C432.938 124.442 432.901 124.532 432.826 124.607C432.762 124.671 432.677 124.703 432.57 124.703H431.802ZM446.021 124.703C445.914 124.703 445.823 124.671 445.749 124.607C445.685 124.532 445.653 124.442 445.653 124.335V116.751C445.653 116.644 445.685 116.559 445.749 116.495C445.823 116.42 445.914 116.383 446.021 116.383H446.773C446.879 116.383 446.965 116.42 447.029 116.495C447.103 116.559 447.141 116.644 447.141 116.751V117.455C447.418 117.092 447.765 116.799 448.181 116.575C448.607 116.34 449.151 116.223 449.813 116.223C450.506 116.223 451.093 116.378 451.573 116.687C452.063 116.986 452.431 117.407 452.677 117.951C452.933 118.484 453.061 119.108 453.061 119.823V124.335C453.061 124.442 453.023 124.532 452.949 124.607C452.885 124.671 452.799 124.703 452.693 124.703H451.893C451.786 124.703 451.695 124.671 451.621 124.607C451.557 124.532 451.525 124.442 451.525 124.335V119.903C451.525 119.156 451.343 118.575 450.981 118.159C450.618 117.732 450.085 117.519 449.381 117.519C448.719 117.519 448.186 117.732 447.781 118.159C447.386 118.575 447.189 119.156 447.189 119.903V124.335C447.189 124.442 447.151 124.532 447.077 124.607C447.013 124.671 446.927 124.703 446.821 124.703H446.021ZM458.684 124.863C457.575 124.863 456.695 124.527 456.044 123.855C455.393 123.172 455.036 122.244 454.972 121.071C454.961 120.932 454.956 120.756 454.956 120.543C454.956 120.319 454.961 120.138 454.972 119.999C455.015 119.242 455.191 118.58 455.5 118.015C455.809 117.439 456.231 116.996 456.764 116.687C457.308 116.378 457.943 116.223 458.668 116.223C459.479 116.223 460.156 116.394 460.7 116.735C461.255 117.076 461.676 117.562 461.964 118.191C462.252 118.82 462.396 119.556 462.396 120.399V120.671C462.396 120.788 462.359 120.879 462.284 120.943C462.22 121.007 462.135 121.039 462.028 121.039H456.492C456.492 121.05 456.492 121.071 456.492 121.103C456.492 121.135 456.492 121.162 456.492 121.183C456.513 121.62 456.609 122.031 456.78 122.415C456.951 122.788 457.196 123.092 457.516 123.327C457.847 123.562 458.231 123.679 458.668 123.679C459.052 123.679 459.372 123.62 459.628 123.503C459.884 123.386 460.092 123.258 460.252 123.119C460.412 122.97 460.519 122.852 460.572 122.767C460.668 122.639 460.743 122.564 460.796 122.543C460.849 122.511 460.935 122.495 461.052 122.495H461.836C461.932 122.495 462.012 122.527 462.076 122.591C462.151 122.644 462.183 122.724 462.172 122.831C462.161 122.991 462.076 123.188 461.916 123.423C461.756 123.647 461.527 123.871 461.228 124.095C460.94 124.319 460.577 124.506 460.14 124.655C459.713 124.794 459.228 124.863 458.684 124.863ZM456.492 119.935H460.876V119.887C460.876 119.407 460.785 118.98 460.604 118.607C460.433 118.234 460.183 117.94 459.852 117.727C459.521 117.503 459.127 117.391 458.668 117.391C458.209 117.391 457.815 117.503 457.484 117.727C457.164 117.94 456.919 118.234 456.748 118.607C456.577 118.98 456.492 119.407 456.492 119.887V119.935ZM467.189 124.863C466.592 124.863 466.08 124.788 465.653 124.639C465.226 124.49 464.88 124.308 464.613 124.095C464.346 123.882 464.144 123.668 464.005 123.455C463.877 123.242 463.808 123.071 463.797 122.943C463.786 122.826 463.824 122.735 463.909 122.671C463.994 122.607 464.08 122.575 464.165 122.575H464.885C464.938 122.575 464.981 122.586 465.013 122.607C465.056 122.618 465.109 122.66 465.173 122.735C465.312 122.884 465.466 123.034 465.637 123.183C465.808 123.332 466.016 123.455 466.261 123.551C466.517 123.647 466.832 123.695 467.205 123.695C467.749 123.695 468.197 123.594 468.549 123.391C468.901 123.178 469.077 122.868 469.077 122.463C469.077 122.196 469.002 121.983 468.853 121.823C468.714 121.663 468.458 121.519 468.085 121.391C467.722 121.263 467.221 121.13 466.581 120.991C465.941 120.842 465.434 120.66 465.061 120.447C464.688 120.223 464.421 119.962 464.261 119.663C464.101 119.354 464.021 119.007 464.021 118.623C464.021 118.228 464.138 117.85 464.373 117.487C464.608 117.114 464.949 116.81 465.397 116.575C465.856 116.34 466.426 116.223 467.109 116.223C467.664 116.223 468.138 116.292 468.533 116.431C468.928 116.57 469.253 116.746 469.509 116.959C469.765 117.162 469.957 117.364 470.085 117.567C470.213 117.77 470.282 117.94 470.293 118.079C470.304 118.186 470.272 118.276 470.197 118.351C470.122 118.415 470.037 118.447 469.941 118.447H469.269C469.194 118.447 469.13 118.431 469.077 118.399C469.034 118.367 468.992 118.33 468.949 118.287C468.842 118.148 468.714 118.01 468.565 117.871C468.426 117.732 468.24 117.62 468.005 117.535C467.781 117.439 467.482 117.391 467.109 117.391C466.576 117.391 466.176 117.503 465.909 117.727C465.642 117.951 465.509 118.234 465.509 118.575C465.509 118.778 465.568 118.959 465.685 119.119C465.802 119.279 466.026 119.423 466.357 119.551C466.688 119.679 467.178 119.818 467.829 119.967C468.533 120.106 469.088 120.292 469.493 120.527C469.898 120.762 470.186 121.034 470.357 121.343C470.528 121.652 470.613 122.01 470.613 122.415C470.613 122.863 470.485 123.274 470.229 123.647C469.973 124.02 469.589 124.319 469.077 124.543C468.565 124.756 467.936 124.863 467.189 124.863ZM472.833 124.703C472.727 124.703 472.636 124.671 472.561 124.607C472.497 124.532 472.465 124.442 472.465 124.335V116.751C472.465 116.644 472.497 116.559 472.561 116.495C472.636 116.42 472.727 116.383 472.833 116.383H473.601C473.708 116.383 473.793 116.42 473.857 116.495C473.932 116.559 473.969 116.644 473.969 116.751V124.335C473.969 124.442 473.932 124.532 473.857 124.607C473.793 124.671 473.708 124.703 473.601 124.703H472.833ZM472.705 114.831C472.599 114.831 472.508 114.799 472.433 114.735C472.369 114.66 472.337 114.57 472.337 114.463V113.599C472.337 113.492 472.369 113.402 472.433 113.327C472.508 113.252 472.599 113.215 472.705 113.215H473.713C473.82 113.215 473.911 113.252 473.985 113.327C474.06 113.402 474.097 113.492 474.097 113.599V114.463C474.097 114.57 474.06 114.66 473.985 114.735C473.911 114.799 473.82 114.831 473.713 114.831H472.705ZM479.22 124.863C478.623 124.863 478.111 124.788 477.684 124.639C477.258 124.49 476.911 124.308 476.644 124.095C476.378 123.882 476.175 123.668 476.036 123.455C475.908 123.242 475.839 123.071 475.828 122.943C475.818 122.826 475.855 122.735 475.94 122.671C476.026 122.607 476.111 122.575 476.196 122.575H476.916C476.97 122.575 477.012 122.586 477.044 122.607C477.087 122.618 477.14 122.66 477.204 122.735C477.343 122.884 477.498 123.034 477.668 123.183C477.839 123.332 478.047 123.455 478.292 123.551C478.548 123.647 478.863 123.695 479.236 123.695C479.78 123.695 480.228 123.594 480.58 123.391C480.932 123.178 481.108 122.868 481.108 122.463C481.108 122.196 481.034 121.983 480.884 121.823C480.746 121.663 480.49 121.519 480.116 121.391C479.754 121.263 479.252 121.13 478.612 120.991C477.972 120.842 477.466 120.66 477.092 120.447C476.719 120.223 476.452 119.962 476.292 119.663C476.132 119.354 476.052 119.007 476.052 118.623C476.052 118.228 476.17 117.85 476.404 117.487C476.639 117.114 476.98 116.81 477.428 116.575C477.887 116.34 478.458 116.223 479.14 116.223C479.695 116.223 480.17 116.292 480.564 116.431C480.959 116.57 481.284 116.746 481.54 116.959C481.796 117.162 481.988 117.364 482.116 117.567C482.244 117.77 482.314 117.94 482.324 118.079C482.335 118.186 482.303 118.276 482.228 118.351C482.154 118.415 482.068 118.447 481.972 118.447H481.3C481.226 118.447 481.162 118.431 481.108 118.399C481.066 118.367 481.023 118.33 480.98 118.287C480.874 118.148 480.746 118.01 480.596 117.871C480.458 117.732 480.271 117.62 480.036 117.535C479.812 117.439 479.514 117.391 479.14 117.391C478.607 117.391 478.207 117.503 477.94 117.727C477.674 117.951 477.54 118.234 477.54 118.575C477.54 118.778 477.599 118.959 477.716 119.119C477.834 119.279 478.058 119.423 478.388 119.551C478.719 119.679 479.21 119.818 479.86 119.967C480.564 120.106 481.119 120.292 481.524 120.527C481.93 120.762 482.218 121.034 482.388 121.343C482.559 121.652 482.644 122.01 482.644 122.415C482.644 122.863 482.516 123.274 482.26 123.647C482.004 124.02 481.62 124.319 481.108 124.543C480.596 124.756 479.967 124.863 479.22 124.863ZM484.753 124.703C484.646 124.703 484.555 124.671 484.481 124.607C484.417 124.532 484.385 124.442 484.385 124.335V123.183C484.385 123.076 484.417 122.991 484.481 122.927C484.555 122.852 484.646 122.815 484.753 122.815H485.905C486.011 122.815 486.102 122.852 486.177 122.927C486.251 122.991 486.289 123.076 486.289 123.183V124.335C486.289 124.442 486.251 124.532 486.177 124.607C486.102 124.671 486.011 124.703 485.905 124.703H484.753ZM488.784 124.703C488.677 124.703 488.586 124.671 488.512 124.607C488.448 124.532 488.416 124.442 488.416 124.335V123.183C488.416 123.076 488.448 122.991 488.512 122.927C488.586 122.852 488.677 122.815 488.784 122.815H489.936C490.042 122.815 490.133 122.852 490.208 122.927C490.282 122.991 490.32 123.076 490.32 123.183V124.335C490.32 124.442 490.282 124.532 490.208 124.607C490.133 124.671 490.042 124.703 489.936 124.703H488.784ZM492.815 124.703C492.708 124.703 492.618 124.671 492.543 124.607C492.479 124.532 492.447 124.442 492.447 124.335V123.183C492.447 123.076 492.479 122.991 492.543 122.927C492.618 122.852 492.708 122.815 492.815 122.815H493.967C494.074 122.815 494.164 122.852 494.239 122.927C494.314 122.991 494.351 123.076 494.351 123.183V124.335C494.351 124.442 494.314 124.532 494.239 124.607C494.164 124.671 494.074 124.703 493.967 124.703H492.815Z" fill="#6B7A8B"/>
<defs>
<clipPath id="clip0_1120_75073">
<path d="M26 18H771V85.7037H26V18Z" fill="white"/>
</clipPath>
</defs>
</svg>
