<svg width="18" height="16" viewBox="0 0 18 16" fill="none" xmlns="http://www.w3.org/2000/svg">
<path d="M16.5321 14.8192H1.46678C1.15787 14.8192 0.896484 15.0806 0.896484 15.3895C0.896484 15.6984 1.15787 15.9598 1.46678 15.9598H16.5321C16.841 15.9598 17.1024 15.6984 17.1024 15.3895C17.1024 15.0806 16.841 14.8192 16.5321 14.8192ZM0.920247 9.82908L0.896484 12.5142C0.896484 12.6568 0.944009 12.8231 1.06282 12.9182C1.18163 13.0132 1.32421 13.0845 1.46678 13.0845L4.15193 13.0608C4.2945 13.0608 4.43708 12.9895 4.55589 12.8944L13.7757 3.67462C13.9896 3.46076 13.9896 3.08057 13.7757 2.8667L11.1143 0.205318C10.9004 -0.00854348 10.5202 -0.00854348 10.3064 0.205318L8.45292 2.05878L1.08658 9.42512C0.967772 9.54393 0.920247 9.68651 0.920247 9.82908ZM12.5638 3.27066L11.5183 4.31621L9.6648 2.46274L10.7103 1.4172L12.5638 3.27066ZM2.06084 10.0667L8.85688 3.27066L10.7103 5.12413L3.91431 11.9202H2.06084V10.0667Z" fill="black"/>
</svg>
