<svg width="28" height="28" viewBox="0 0 28 28" fill="none" xmlns="http://www.w3.org/2000/svg">
<path d="M24.5002 4.20532C24.4956 4.17983 24.4882 4.1549 24.4783 4.13095L24.4521 4.03907C24.4521 4.01282 24.4215 3.98657 24.4083 3.95595C24.3969 3.93313 24.3837 3.9112 24.369 3.89032C24.3073 3.79353 24.2251 3.71141 24.1284 3.6497C24.1084 3.6347 24.0863 3.62289 24.0627 3.6147L23.9752 3.56657L23.8877 3.54032L23.7958 3.50095C23.7392 3.49448 23.6819 3.49448 23.6252 3.50095H19.3465C19.1144 3.50095 18.8919 3.59313 18.7278 3.75723C18.5637 3.92132 18.4715 4.14388 18.4715 4.37595C18.4715 4.60801 18.5637 4.83057 18.7278 4.99466C18.8919 5.15876 19.1144 5.25095 19.3465 5.25095H21.534L13.3833 13.3841C13.2204 13.548 13.1289 13.7698 13.1289 14.0009C13.1289 14.2321 13.2204 14.4539 13.3833 14.6178C13.5473 14.7808 13.7691 14.8723 14.0002 14.8723C14.2314 14.8723 14.4532 14.7808 14.6171 14.6178L22.7502 6.48907V8.67657C22.7502 8.90863 22.8424 9.13119 23.0065 9.29529C23.1706 9.45938 23.3932 9.55157 23.6252 9.55157C23.8573 9.55157 24.0798 9.45938 24.2439 9.29529C24.408 9.13119 24.5002 8.90863 24.5002 8.67657V4.37595C24.5067 4.31925 24.5067 4.26201 24.5002 4.20532Z" fill="black"/>
<path d="M23.625 13.125C23.3929 13.125 23.1704 13.2172 23.0063 13.3813C22.8422 13.5454 22.75 13.7679 22.75 14V21.4375C22.75 21.7856 22.6117 22.1194 22.3656 22.3656C22.1194 22.6117 21.7856 22.75 21.4375 22.75H6.5625C6.2144 22.75 5.88056 22.6117 5.63442 22.3656C5.38828 22.1194 5.25 21.7856 5.25 21.4375V6.5625C5.25 6.2144 5.38828 5.88056 5.63442 5.63442C5.88056 5.38828 6.2144 5.25 6.5625 5.25H14C14.2321 5.25 14.4546 5.15781 14.6187 4.99372C14.7828 4.82962 14.875 4.60706 14.875 4.375C14.875 4.14294 14.7828 3.92038 14.6187 3.75628C14.4546 3.59219 14.2321 3.5 14 3.5H6.5625C5.75027 3.5 4.97132 3.82266 4.39699 4.39699C3.82266 4.97132 3.5 5.75027 3.5 6.5625V21.4375C3.5 22.2497 3.82266 23.0287 4.39699 23.603C4.97132 24.1773 5.75027 24.5 6.5625 24.5H21.4375C22.2497 24.5 23.0287 24.1773 23.603 23.603C24.1773 23.0287 24.5 22.2497 24.5 21.4375V14C24.5 13.7679 24.4078 13.5454 24.2437 13.3813C24.0796 13.2172 23.8571 13.125 23.625 13.125Z" fill="black"/>
</svg>
