<svg width="18" height="19" viewBox="0 0 18 19" fill="none" xmlns="http://www.w3.org/2000/svg">
<path d="M7.25 16.5C7.25 16.9142 7.58579 17.25 8 17.25C8.41421 17.25 8.75 16.9142 8.75 16.5L7.25 16.5ZM8.53033 2.96967C8.23744 2.67678 7.76256 2.67678 7.46967 2.96967L2.6967 7.74264C2.40381 8.03553 2.40381 8.51041 2.6967 8.8033C2.98959 9.09619 3.46447 9.09619 3.75736 8.8033L8 4.56066L12.2426 8.8033C12.5355 9.09619 13.0104 9.09619 13.3033 8.8033C13.5962 8.51041 13.5962 8.03553 13.3033 7.74264L8.53033 2.96967ZM8.75 16.5L8.75 3.5L7.25 3.5L7.25 16.5L8.75 16.5Z" fill="black"/>
</svg>
