<svg width="20" height="11" viewBox="0 0 20 11" fill="none" xmlns="http://www.w3.org/2000/svg">
<path d="M6.21914 2.74367C6.21914 2.86799 6.16975 2.98722 6.08185 3.07513C5.99394 3.16304 5.87471 3.21242 5.75039 3.21242H4.06977V4.69117H5.10883C5.23315 4.69117 5.35238 4.74056 5.44028 4.82847C5.52819 4.91637 5.57758 5.0356 5.57758 5.15992C5.57758 5.28424 5.52819 5.40347 5.44028 5.49138C5.35238 5.57929 5.23315 5.62867 5.10883 5.62867H4.06977V8.09742C4.06977 8.22174 4.02038 8.34097 3.93247 8.42888C3.84456 8.51679 3.72534 8.56617 3.60102 8.56617C3.4767 8.56617 3.35747 8.51679 3.26956 8.42888C3.18165 8.34097 3.13227 8.22174 3.13227 8.09742V2.74367C3.13227 2.61935 3.18165 2.50012 3.26956 2.41222C3.35747 2.32431 3.4767 2.27492 3.60102 2.27492H5.75039C5.87471 2.27492 5.99394 2.32431 6.08185 2.41222C6.16975 2.50012 6.21914 2.61935 6.21914 2.74367ZM12.9548 3.21242C13.0791 3.21242 13.1983 3.16304 13.2862 3.07513C13.3741 2.98722 13.4235 2.86799 13.4235 2.74367C13.4235 2.61935 13.3741 2.50012 13.2862 2.41222C13.1983 2.32431 13.0791 2.27492 12.9548 2.27492H10.8051C10.6808 2.27492 10.5615 2.32431 10.4736 2.41222C10.3857 2.50012 10.3363 2.61935 10.3363 2.74367V8.09617C10.3363 8.22049 10.3857 8.33972 10.4736 8.42763C10.5615 8.51554 10.6808 8.56492 10.8051 8.56492H12.9538C13.0781 8.56492 13.1974 8.51554 13.2853 8.42763C13.3732 8.33972 13.4226 8.22049 13.4226 8.09617C13.4226 7.97185 13.3732 7.85262 13.2853 7.76472C13.1974 7.67681 13.0781 7.62742 12.9538 7.62742H11.2738V5.62742H12.3129C12.4372 5.62742 12.5564 5.57804 12.6443 5.49013C12.7323 5.40222 12.7816 5.28299 12.7816 5.15867C12.7816 5.03435 12.7323 4.91512 12.6443 4.82722C12.5564 4.73931 12.4372 4.68992 12.3129 4.68992H11.2738V3.21242H12.9548ZM16.8685 8.09617C16.8685 7.97185 16.8191 7.85262 16.7312 7.76472C16.6433 7.67681 16.5241 7.62742 16.3998 7.62742H14.7191V5.62742H15.7582C15.8825 5.62742 16.0018 5.57804 16.0897 5.49013C16.1776 5.40222 16.227 5.28299 16.227 5.15867C16.227 5.03435 16.1776 4.91512 16.0897 4.82722C16.0018 4.73931 15.8825 4.68992 15.7582 4.68992H14.7191V3.21242H16.3988C16.5231 3.21242 16.6424 3.16304 16.7303 3.07513C16.8182 2.98722 16.8676 2.86799 16.8676 2.74367C16.8676 2.61935 16.8182 2.50012 16.7303 2.41222C16.6424 2.32431 16.5231 2.27492 16.3988 2.27492H14.2504C14.1261 2.27492 14.0068 2.32431 13.9189 2.41222C13.831 2.50012 13.7816 2.61935 13.7816 2.74367V8.09617C13.7816 8.22049 13.831 8.33972 13.9189 8.42763C14.0068 8.51554 14.1261 8.56492 14.2504 8.56492H16.3988C16.4605 8.56505 16.5215 8.55301 16.5785 8.52951C16.6355 8.50601 16.6873 8.4715 16.7309 8.42796C16.7745 8.38442 16.8091 8.3327 16.8327 8.27577C16.8564 8.21884 16.8685 8.15781 16.8685 8.09617ZM8.47633 2.27492H7.14133C7.01701 2.27492 6.89778 2.32431 6.80987 2.41222C6.72196 2.50012 6.67258 2.61935 6.67258 2.74367V8.09617C6.67258 8.22049 6.72196 8.33972 6.80987 8.42763C6.89778 8.51554 7.01701 8.56492 7.14133 8.56492C7.26565 8.56492 7.38488 8.51554 7.47278 8.42763C7.56069 8.33972 7.61008 8.22049 7.61008 8.09617V3.21242H8.47633C8.60065 3.21242 8.71988 3.26181 8.80779 3.34972C8.89569 3.43762 8.94508 3.55685 8.94508 3.68117V4.48242C8.94508 4.60674 8.89569 4.72597 8.80779 4.81388C8.71988 4.90179 8.60065 4.95117 8.47633 4.95117H8.39133C8.31539 4.95124 8.2406 4.96976 8.1734 5.00513C8.1062 5.0405 8.0486 5.09168 8.00556 5.15424C7.96252 5.2168 7.93532 5.28889 7.92631 5.36429C7.9173 5.4397 7.92674 5.51616 7.95383 5.58711L8.97602 8.26367C8.99629 8.32338 9.0284 8.37838 9.07043 8.42538C9.11246 8.47239 9.16354 8.51043 9.22062 8.53723C9.27769 8.56404 9.33959 8.57905 9.4026 8.58137C9.46561 8.5837 9.52844 8.57328 9.58733 8.55076C9.64623 8.52823 9.69997 8.49405 9.74535 8.45027C9.79072 8.40649 9.8268 8.354 9.85142 8.29595C9.87604 8.2379 9.88869 8.17548 9.88862 8.11243C9.88855 8.04937 9.87576 7.98698 9.85102 7.92898L9.02852 5.77555C9.28172 5.66713 9.49759 5.48685 9.64939 5.25701C9.80119 5.02717 9.88226 4.75786 9.88258 4.48242V3.68117C9.88258 3.30821 9.73442 2.95053 9.4707 2.6868C9.20697 2.42308 8.84929 2.27492 8.47633 2.27492ZM19.4285 0.513672V10.3262C19.4285 10.4505 19.3791 10.5697 19.2912 10.6576C19.2033 10.7455 19.0841 10.7949 18.9598 10.7949H1.04102C0.916695 10.7949 0.797467 10.7455 0.709559 10.6576C0.621652 10.5697 0.572266 10.4505 0.572266 10.3262V0.513672C0.572266 0.389351 0.621652 0.270123 0.709559 0.182216C0.797467 0.0943078 0.916695 0.0449219 1.04102 0.0449219H18.9598C19.0841 0.0449219 19.2033 0.0943078 19.2912 0.182216C19.3791 0.270123 19.4285 0.389351 19.4285 0.513672ZM1.50977 9.85742H16.6504C17.7073 9.85742 17.866 8.81961 17.866 8.03148V0.982422H1.50977V9.85742Z" fill="#656288"/>
</svg>
