<svg width="20" height="20" viewBox="0 0 20 20" fill="none" xmlns="http://www.w3.org/2000/svg">
<path d="M10.0006 18.3346C11.6487 18.3346 13.2599 17.8459 14.6303 16.9302C16.0007 16.0145 17.0688 14.7131 17.6996 13.1903C18.3303 11.6676 18.4953 9.99206 18.1738 8.37555C17.8522 6.75905 17.0586 5.27419 15.8931 4.10875C14.7277 2.94331 13.2428 2.14964 11.6263 1.8281C10.0098 1.50655 8.33426 1.67158 6.81154 2.30231C5.28882 2.93304 3.98733 4.00114 3.07166 5.37155C2.15598 6.74196 1.66724 8.35313 1.66724 10.0013C1.66724 12.2114 2.54521 14.3311 4.10801 15.8939C4.88183 16.6677 5.80049 17.2815 6.81154 17.7003C7.82259 18.1191 8.90622 18.3346 10.0006 18.3346ZM6.9114 9.41214C6.98875 9.33472 7.08059 9.27331 7.18169 9.23141C7.28278 9.18951 7.39114 9.16794 7.50057 9.16794C7.61 9.16794 7.71836 9.18951 7.81945 9.23141C7.92055 9.27331 8.01239 9.33472 8.08974 9.41214L9.16724 10.4896L11.9114 7.74547C12.0686 7.59367 12.2791 7.50968 12.4976 7.51158C12.7161 7.51348 12.9251 7.60112 13.0796 7.75562C13.2341 7.91013 13.3217 8.11914 13.3236 8.33764C13.3255 8.55614 13.2415 8.76664 13.0897 8.92381L9.7564 12.2571C9.67905 12.3345 9.58721 12.3959 9.48611 12.4378C9.38502 12.4797 9.27667 12.5013 9.16724 12.5013C9.05781 12.5013 8.94945 12.4797 8.84836 12.4378C8.74727 12.3959 8.65542 12.3345 8.57807 12.2571L6.9114 10.5905C6.83399 10.5131 6.77258 10.4213 6.73068 10.3202C6.68877 10.2191 6.66721 10.1107 6.66721 10.0013C6.66721 9.89187 6.68877 9.78351 6.73068 9.68242C6.77258 9.58133 6.83399 9.48948 6.9114 9.41214Z" fill="#04C000"/>
</svg>
