<svg width="24" height="24" viewBox="0 0 24 24" fill="none" xmlns="http://www.w3.org/2000/svg">
<path d="M11.5955 17.6311C11.643 17.6787 11.7143 17.7262 11.7856 17.75C11.8569 17.7737 11.9282 17.7975 11.9995 17.7975C12.0707 17.7975 12.142 17.7737 12.2133 17.75C12.2846 17.7262 12.3559 17.6787 12.4034 17.6311L19.9361 10.0985C20.15 9.88461 20.15 9.50442 19.9361 9.29056C19.7222 9.07669 19.342 9.07669 19.1282 9.29056L12.5698 15.849V4.89452C12.5698 4.5856 12.3084 4.32422 11.9995 4.32422C11.6905 4.32422 11.4292 4.5856 11.4292 4.89452V15.8727L4.87074 9.29056C4.65688 9.07669 4.27668 9.07669 4.06282 9.29056C3.84896 9.50442 3.84896 9.88461 4.06282 10.0985L11.5955 17.6311ZM4.46678 19.6747H19.5321C19.841 19.6747 20.1024 19.4133 20.1024 19.1044C20.1024 18.7955 19.841 18.5341 19.5321 18.5341H4.46678C4.15787 18.5341 3.89648 18.7955 3.89648 19.1044C3.89648 19.4133 4.15787 19.6747 4.46678 19.6747Z" fill="#04C000"/>
</svg>
