<svg width="1512" height="127" viewBox="0 0 1512 127" fill="none" xmlns="http://www.w3.org/2000/svg">
<g clip-path="url(#clip0_1_2)">
<rect width="1512" height="127" fill="#4D8BF2"/>
<path d="M1513.2 0H766C776.5 85 862.1 158.8 955.4 140.4C994.3 132.7 1031.3 110.4 1070.7 114.9C1123.4 120.9 1159.1 172.9 1173.8 223.9C1188.6 274.9 1190.1 329.8 1211.6 378.3C1249.2 463.1 1357.1 479.2 1437.8 453.2C1465 444.4 1490.4 430.9 1513.1 413.8V0H1513.2Z" fill="url(#paint0_linear_1_2)"/>
<g filter="url(#filter0_f_1_2)">
<circle cx="1280.5" cy="438.5" r="230.5" fill="#0019F5"/>
</g>
<g filter="url(#filter1_f_1_2)">
<circle cx="887.5" cy="284.5" r="339.5" fill="#9453FF"/>
</g>
</g>
<defs>
<filter id="filter0_f_1_2" x="650" y="-192" width="1261" height="1261" filterUnits="userSpaceOnUse" color-interpolation-filters="sRGB">
<feFlood flood-opacity="0" result="BackgroundImageFix"/>
<feBlend mode="normal" in="SourceGraphic" in2="BackgroundImageFix" result="shape"/>
<feGaussianBlur stdDeviation="200" result="effect1_foregroundBlur_1_2"/>
</filter>
<filter id="filter1_f_1_2" x="148" y="-455" width="1479" height="1479" filterUnits="userSpaceOnUse" color-interpolation-filters="sRGB">
<feFlood flood-opacity="0" result="BackgroundImageFix"/>
<feBlend mode="normal" in="SourceGraphic" in2="BackgroundImageFix" result="shape"/>
<feGaussianBlur stdDeviation="200" result="effect1_foregroundBlur_1_2"/>
</filter>
<linearGradient id="paint0_linear_1_2" x1="766" y1="232.281" x2="1513.25" y2="232.281" gradientUnits="userSpaceOnUse">
<stop stop-color="#2F4DFA"/>
<stop offset="0.6015" stop-color="#4D85F2"/>
<stop offset="1" stop-color="#5FA6ED"/>
</linearGradient>
<clipPath id="clip0_1_2">
<rect width="1512" height="127" fill="white"/>
</clipPath>
</defs>
</svg>
