<svg width="18" height="19" viewBox="0 0 18 19" fill="none" xmlns="http://www.w3.org/2000/svg">
<path d="M14.8337 3.66636C11.6117 0.444547 6.38813 0.444547 3.16631 3.66636C-0.0554989 6.88817 -0.0554989 12.1119 3.16631 15.3337C6.38813 18.5555 11.6117 18.5555 14.8337 15.3337C18.0555 12.1119 18.0555 6.88817 14.8337 3.66636ZM13.2135 4.22586L11.0685 6.37105C9.81863 5.54286 8.18175 5.54286 6.93188 6.37105L4.7865 4.22586C7.24331 2.25805 10.7567 2.25805 13.2135 4.22586ZM11.25 9.50005C11.25 10.7426 10.2426 11.75 9 11.75C7.75744 11.75 6.75 10.7426 6.75 9.50005C6.75 8.2573 7.75744 7.25005 9 7.25005C10.2426 7.25005 11.25 8.2573 11.25 9.50005ZM3.72581 5.28655L5.871 7.43173C5.04281 8.68161 5.04281 10.3185 5.871 11.5684L3.72581 13.7134C1.758 11.2565 1.758 7.74336 3.72581 5.28655ZM4.7865 14.7742L6.93169 12.629C8.18156 13.457 9.81844 13.457 11.0683 12.629L13.2133 14.7742C10.7567 16.7419 7.24331 16.7419 4.7865 14.7742ZM14.2742 13.7134L12.129 11.5684C12.957 10.3185 12.957 8.68161 12.129 7.43173L14.2742 5.28655C16.2418 7.74336 16.2418 11.2565 14.2742 13.7134Z" fill="white"/>
</svg>
