<svg width="24" height="24" viewBox="0 0 24 24" fill="none" xmlns="http://www.w3.org/2000/svg">
<path fill-rule="evenodd" clip-rule="evenodd" d="M4.23926 10.3905C4.25367 6.14996 7.70302 2.72396 11.9436 2.73833C16.1842 2.75278 19.6102 6.20213 19.5958 10.4427V10.5297C19.5436 13.2862 18.0045 15.834 16.1175 17.8253C15.0384 18.946 13.8333 19.9381 12.5262 20.7818C12.1767 21.0842 11.6583 21.0842 11.3088 20.7818C9.36033 19.5136 7.65019 17.9124 6.25665 16.0514C5.01461 14.4286 4.30942 12.459 4.23926 10.4166V10.3905Z" stroke="#687EFF" stroke-width="1.5" stroke-linecap="round" stroke-linejoin="round"/>
<path d="M11.9171 13.0001C13.2762 13.0001 14.3781 11.8983 14.3781 10.5391C14.3781 9.17995 13.2762 8.07812 11.9171 8.07812C10.5579 8.07812 9.45605 9.17995 9.45605 10.5391C9.45605 11.8983 10.5579 13.0001 11.9171 13.0001Z" stroke="#687EFF" stroke-width="1.5" stroke-linecap="round" stroke-linejoin="round"/>
</svg>
