<svg width="20" height="20" viewBox="0 0 20 20" fill="none" xmlns="http://www.w3.org/2000/svg">
<path fill-rule="evenodd" clip-rule="evenodd" d="M4 8.86371C4.01126 5.61427 6.70666 2.98903 10.0203 3.00003C13.334 3.01111 16.0112 5.65425 16 8.90369V8.97032C15.9592 11.0826 14.7564 13.0349 13.2819 14.5608C12.4387 15.4195 11.497 16.1797 10.4756 16.8263C10.2025 17.0579 9.79742 17.0579 9.52432 16.8263C8.00172 15.8544 6.66538 14.6275 5.57643 13.2015C4.60588 11.958 4.05483 10.4487 4 8.8837V8.86371Z" stroke="#6B7A8B" stroke-width="1.5" stroke-linecap="round" stroke-linejoin="round"/>
<path d="M10 11C11.1046 11 12 10.1046 12 9C12 7.89543 11.1046 7 10 7C8.89543 7 8 7.89543 8 9C8 10.1046 8.89543 11 10 11Z" stroke="#6B7A8B" stroke-width="1.5" stroke-linecap="round" stroke-linejoin="round"/>
</svg>
