<svg width="24" height="24" viewBox="0 0 24 24" fill="none" xmlns="http://www.w3.org/2000/svg">
<path d="M19.7501 10.4567V10.46V10.5024C19.6928 13.2609 18.1355 15.8757 16.0826 17.9869C14.9216 19.1768 13.6367 20.2294 12.2382 21.1168L12.1948 21.1443L12.1555 21.1775C12.0452 21.2709 11.8848 21.2709 11.7745 21.1775L11.7386 21.1472L11.6993 21.1215C9.62057 19.768 7.78561 18.0676 6.29965 16.0896L6.29965 16.0896L6.29757 16.0868C5.04292 14.4325 4.3274 12.4467 4.25007 10.3783C4.2764 6.15659 7.74898 2.74138 12.0275 2.75002C14.0907 2.75939 16.0606 3.5813 17.4997 5.02037C18.9496 6.47034 19.7591 8.4288 19.7501 10.4567ZM11.9899 14.01L11.9899 14.01H12H12.03C12.9292 14.01 13.7998 13.6679 14.4449 13.0357L14.4452 13.0355C15.1041 12.3892 15.481 11.5192 15.481 10.6C15.481 8.6964 13.9247 7.18004 12.03 7.18004C10.1313 7.18004 8.59 8.70036 8.59 10.6C8.59 12.4809 10.1093 13.9846 11.9899 14.01Z" stroke="#687EFF" stroke-width="1.5"/>
</svg>
