<svg width="29" height="29" viewBox="0 0 29 29" fill="none" xmlns="http://www.w3.org/2000/svg">
<path d="M14.638 27.0654C12.9967 27.0684 11.371 26.7471 9.85429 26.1198C8.33757 25.4926 6.95976 24.5718 5.80003 23.4104C0.926031 18.5364 0.926031 10.6064 5.80003 5.73236C6.95804 4.56785 8.33552 3.64459 9.85273 3.016C11.3699 2.38742 12.9968 2.066 14.639 2.07036C17.978 2.07036 21.117 3.37036 23.477 5.73236C25.838 8.09336 27.139 11.2324 27.139 14.5714C27.139 17.9104 25.839 21.0494 23.477 23.4104C22.3171 24.5718 20.9391 25.4925 19.4222 26.1198C17.9053 26.747 16.2795 27.0684 14.638 27.0654ZM14.639 4.07036C13.2595 4.06644 11.8928 4.3363 10.6183 4.86431C9.34376 5.39232 8.18666 6.16798 7.21403 7.14636C5.23103 9.12936 4.13903 11.7664 4.13903 14.5714C4.13903 17.3764 5.23103 20.0124 7.21403 21.9964C11.308 26.0904 17.97 26.0914 22.063 21.9964C24.046 20.0134 25.139 17.3764 25.139 14.5714C25.139 11.7664 24.047 9.13036 22.063 7.14636C21.0904 6.16828 19.9334 5.39281 18.6591 4.86481C17.3848 4.33682 16.0184 4.06679 14.639 4.07036Z" fill="black"/>
<path d="M10.3957 19.813C10.1978 19.8134 10.0041 19.755 9.83942 19.6452C9.6747 19.5354 9.54632 19.3791 9.47056 19.1962C9.39481 19.0134 9.37511 18.8121 9.41395 18.618C9.4528 18.4238 9.54844 18.2456 9.68874 18.106L18.1737 9.62097C18.2666 9.52813 18.3768 9.45448 18.4981 9.40423C18.6194 9.35399 18.7494 9.32813 18.8807 9.32813C19.012 9.32812 19.1421 9.35399 19.2634 9.40423C19.3847 9.45448 19.4949 9.52813 19.5877 9.62097C19.6806 9.71382 19.7542 9.82404 19.8045 9.94535C19.8547 10.0667 19.8806 10.1967 19.8806 10.328C19.8806 10.4593 19.8547 10.5893 19.8045 10.7106C19.7542 10.8319 19.6806 10.9421 19.5877 11.035L11.1027 19.52C11.0101 19.6132 10.9 19.687 10.7786 19.7373C10.6572 19.7876 10.5271 19.8133 10.3957 19.813Z" fill="black"/>
<path d="M18.8794 19.813C18.748 19.8131 18.618 19.7873 18.4966 19.737C18.3753 19.6867 18.2651 19.613 18.1724 19.52L9.68738 11.035C9.59454 10.9421 9.52089 10.8319 9.47064 10.7106C9.42039 10.5893 9.39453 10.4593 9.39453 10.328C9.39453 10.1967 9.42039 10.0667 9.47064 9.94535C9.52089 9.82404 9.59454 9.71382 9.68738 9.62097C9.78022 9.52813 9.89045 9.45448 10.0118 9.40423C10.1331 9.35399 10.2631 9.32812 10.3944 9.32812C10.5257 9.32813 10.6557 9.35399 10.777 9.40423C10.8983 9.45448 11.0085 9.52813 11.1014 9.62097L19.5864 18.106C19.7267 18.2456 19.8223 18.4238 19.8612 18.618C19.9 18.8121 19.8803 19.0134 19.8046 19.1962C19.7288 19.3791 19.6004 19.5354 19.4357 19.6452C19.271 19.755 19.0773 19.8134 18.8794 19.813Z" fill="black"/>
</svg>
