<svg width="125" height="124" viewBox="0 0 125 124" fill="none" xmlns="http://www.w3.org/2000/svg">
<rect x="2.1" y="1.6" width="120.8" height="120.8" rx="60.4" fill="#F9F9FC"/>
<rect x="2.1" y="1.6" width="120.8" height="120.8" rx="60.4" stroke="#C5C6E0" stroke-width="3.2"/>
<path d="M95.5571 35.2294H85.5633V31.5527C85.5633 30.7409 84.8744 30.082 84.0257 30.082H77.8757C77.0269 30.082 76.3381 30.7409 76.3381 31.5527V35.2294H48.6628V31.5527C48.6628 30.7409 47.974 30.082 47.1253 30.082H40.9752C40.1265 30.082 39.4377 30.7409 39.4377 31.5527V35.2294H29.4438C28.5951 35.2294 27.9062 35.8882 27.9062 36.7001V46.9948V78.6142V91.8502C27.9062 93.7952 30.8022 96.2622 34.0563 96.2622H90.9446C94.3356 96.2622 97.0947 93.6231 97.0947 90.3796V85.2322V46.9948V36.7001C97.0947 35.8882 96.4058 35.2294 95.5571 35.2294ZM79.4132 33.0234H82.4882V35.2294H79.4132V33.0234ZM42.5127 33.0234H45.5877V35.2294H42.5127V33.0234ZM39.4377 38.1707V41.8474C39.4377 42.6592 40.1265 43.3181 40.9752 43.3181C41.8239 43.3181 42.5127 42.6592 42.5127 41.8474V38.1707H76.3381V41.8474C76.3381 42.6592 77.0269 43.3181 77.8757 43.3181C78.7244 43.3181 79.4132 42.6592 79.4132 41.8474V38.1707H94.0196V45.5241H30.9813V38.1707H39.4377ZM94.0196 85.2322C94.0196 86.8544 92.6405 88.1736 90.9446 88.1736H42.5127V78.6142C42.5127 77.8024 41.8239 77.1435 40.9752 77.1435H30.9813V48.4654H94.0196V85.2322ZM33.1553 80.0849H39.4377V86.094L33.1553 80.0849ZM90.9446 93.3209H34.0563C32.4642 93.3209 31.1988 92.1966 30.9813 91.7451V82.1644L39.8874 90.6833C39.9581 90.7516 40.0365 90.8127 40.1203 90.8664C40.1411 90.8796 40.1641 90.8877 40.1849 90.9002C40.2495 90.9377 40.314 90.9737 40.384 91.0017C40.4132 91.0134 40.4447 91.0186 40.4747 91.0289C40.5393 91.0502 40.6023 91.073 40.6707 91.0855C40.7707 91.1046 40.8722 91.1149 40.9752 91.1149H90.9446C92.0654 91.1149 93.114 90.8222 94.0196 90.3193V90.3796C94.0196 92.0017 92.6405 93.3209 90.9446 93.3209Z" fill="#C5C6E0"/>
<path d="M32.3984 75.9491V48.9902H92.6013V86.8075H44.2104V75.9491H32.3984Z" fill="#D8F7FF"/>
<path d="M46.7754 66.2486L56.2338 75.6341L75.529 57.585" stroke="#687EFF" stroke-opacity="0.5" stroke-width="3.5" stroke-linecap="round"/>
<line x1="106.252" y1="20.058" x2="15.4814" y2="101.808" stroke="#C5C6E0" stroke-width="3.2"/>
</svg>
