<svg width="20" height="24" viewBox="0 0 20 24" fill="none" xmlns="http://www.w3.org/2000/svg">
<g clip-path="url(#clip0_685_99141)">
<path d="M19.1667 17.7349H17.5V12.8613C17.5133 10.7723 16.8405 8.75296 15.6134 7.19897C14.3864 5.64499 12.6936 4.66835 10.8667 4.46045V1.61593C10.8668 1.48815 10.8441 1.36168 10.8002 1.2441C10.7563 1.12651 10.6919 1.02025 10.6109 0.931691C10.53 0.843131 10.4341 0.774099 10.3291 0.728743C10.2242 0.683386 10.1122 0.66264 10 0.667751C9.77899 0.667751 9.56702 0.767648 9.41074 0.945465C9.25446 1.12328 9.16667 1.36445 9.16667 1.61593V4.46045C7.34381 4.65411 5.6501 5.61486 4.41704 7.15463C3.18399 8.6944 2.50037 10.7023 2.5 12.7854V17.7349H0.833333C0.61232 17.7349 0.400358 17.8348 0.244078 18.0126C0.0877975 18.1904 0 18.4316 0 18.6831C0 18.9345 0.0877975 19.1757 0.244078 19.3535C0.400358 19.5313 0.61232 19.6312 0.833333 19.6312H6.41667C6.50268 20.6447 6.91735 21.5854 7.57984 22.2699C8.24232 22.9544 9.10512 23.3337 10 23.3337C10.8949 23.3337 11.7577 22.9544 12.4202 22.2699C13.0826 21.5854 13.4973 20.6447 13.5833 19.6312H19.1667C19.3877 19.6312 19.5996 19.5313 19.7559 19.3535C19.9122 19.1757 20 18.9345 20 18.6831C20 18.4316 19.9122 18.1904 19.7559 18.0126C19.5996 17.8348 19.3877 17.7349 19.1667 17.7349ZM10 21.5276C9.5379 21.5229 9.09283 21.3285 8.74676 20.98C8.40069 20.6315 8.17692 20.1526 8.11667 19.6312H11.8833C11.8231 20.1526 11.5993 20.6315 11.2532 20.98C10.9072 21.3285 10.4621 21.5229 10 21.5276ZM4.16667 17.7349V12.8613C4.16666 11.1395 4.76666 9.48789 5.83514 8.26861C6.90362 7.04932 8.3534 6.36182 9.86667 6.3568H10.1333C11.6466 6.36182 13.0964 7.04932 14.1649 8.26861C15.2333 9.48789 15.8333 11.1395 15.8333 12.8613V17.7349H4.16667Z" fill="#656288"/>
</g>
<defs>
<clipPath id="clip0_685_99141">
<rect width="20" height="24" fill="white"/>
</clipPath>
</defs>
</svg>
