<svg width="20" height="24" viewBox="0 0 20 24" fill="none" xmlns="http://www.w3.org/2000/svg">
<g clip-path="url(#clip0_4_436)">
<path d="M19.1667 17.7345H17.5V12.8609C17.5133 10.7719 16.8405 8.7526 15.6134 7.19861C14.3864 5.64462 12.6936 4.66799 10.8667 4.46008V1.61556C10.8668 1.48779 10.8441 1.36131 10.8002 1.24373C10.7563 1.12615 10.6919 1.01989 10.6109 0.931325C10.53 0.842764 10.4341 0.773733 10.3291 0.728376C10.2242 0.68302 10.1122 0.662274 10 0.667385C9.77899 0.667385 9.56702 0.767282 9.41074 0.945099C9.25446 1.12292 9.16667 1.36409 9.16667 1.61556V4.46008C7.34381 4.65375 5.6501 5.61449 4.41704 7.15426C3.18399 8.69403 2.50037 10.702 2.5 12.7851V17.7345H0.833333C0.61232 17.7345 0.400358 17.8344 0.244078 18.0122C0.0877975 18.1901 0 18.4312 0 18.6827C0 18.9342 0.0877975 19.1753 0.244078 19.3532C0.400358 19.531 0.61232 19.6309 0.833333 19.6309H6.41667C6.50268 20.6444 6.91735 21.5851 7.57984 22.2696C8.24232 22.9541 9.10512 23.3333 10 23.3333C10.8949 23.3333 11.7577 22.9541 12.4202 22.2696C13.0826 21.5851 13.4973 20.6444 13.5833 19.6309H19.1667C19.3877 19.6309 19.5996 19.531 19.7559 19.3532C19.9122 19.1753 20 18.9342 20 18.6827C20 18.4312 19.9122 18.1901 19.7559 18.0122C19.5996 17.8344 19.3877 17.7345 19.1667 17.7345ZM10 21.5272C9.5379 21.5226 9.09283 21.3281 8.74676 20.9796C8.40069 20.6312 8.17692 20.1522 8.11667 19.6309H11.8833C11.8231 20.1522 11.5993 20.6312 11.2532 20.9796C10.9072 21.3281 10.4621 21.5226 10 21.5272ZM4.16667 17.7345V12.8609C4.16666 11.1391 4.76666 9.48752 5.83514 8.26824C6.90362 7.04896 8.3534 6.36145 9.86667 6.35643H10.1333C11.6466 6.36145 13.0964 7.04896 14.1649 8.26824C15.2333 9.48752 15.8333 11.1391 15.8333 12.8609V17.7345H4.16667Z" fill="white"/>
</g>
<defs>
<clipPath id="clip0_4_436">
<rect width="20" height="24" fill="white"/>
</clipPath>
</defs>
</svg>
