<svg width="54" height="54" viewBox="0 0 54 54" fill="none" xmlns="http://www.w3.org/2000/svg">
<g filter="url(#filter0_d_764_62166)">
<g clip-path="url(#clip0_764_62166)">
<rect x="10" y="6" width="34" height="34" rx="9" fill="white"/>
<path d="M27.4256 29.9542C24.8145 30.1094 22.6955 27.7322 21.6443 25.587L21.2659 24.7384C21.0144 24.1092 21.158 24.33 20.7366 23.8861C19.9434 23.0506 19.7363 21.1163 20.2407 20.1402C20.3383 19.9512 20.5754 19.6129 20.7945 19.557L20.8989 19.5296C21.2644 19.0949 20.907 18.0896 20.8076 17.6123L20.4213 15.3631C20.3536 14.9694 20.2313 14.546 20.2163 14.1489C20.1475 12.3284 25.2342 11.7829 26.4625 11.7413C28.5722 11.7273 31.31 11.8297 33.0933 12.9934C33.9946 13.5815 33.9907 13.8822 33.7905 14.8157L33.3448 17.1405C33.2619 17.5909 32.9789 18.7581 33.1051 19.189C33.1763 19.4323 33.4553 19.6682 33.5972 19.8822C34.1742 20.7524 34.0933 23.1853 33.3472 23.8285C32.7748 24.3218 32.9432 24.3676 32.6729 25.0816C31.8222 27.3295 30.0418 29.7938 27.4256 29.9542ZM26.4069 12.7469C25.8099 12.7636 25.2219 12.8272 24.632 12.923C23.6672 13.0796 21.9925 13.3921 21.2338 14.0425L21.886 18.0096L23.9443 17.6427C24.3972 17.5792 24.8636 17.5207 25.32 17.4982L26.223 17.4828C26.7047 17.4634 27.1976 17.4322 27.6784 17.4818L28.7915 17.4957C29.7325 17.5478 31.2753 17.7209 32.1999 17.9703L32.907 14.1C31.7171 13.0549 29.0189 12.7428 27.4301 12.7423L26.4069 12.7469ZM26.3206 18.4474C25.1551 18.4661 23.2248 18.6458 22.086 19.0178L21.9044 19.8709C21.771 20.5166 21.8359 20.7013 21.0626 20.6029C20.8685 21.3555 20.9052 22.2424 21.3046 22.9278C21.4336 23.149 21.6897 23.2226 21.8023 23.4331C21.8988 23.6139 21.9566 23.8318 22.034 24.0231L22.4957 25.0586C23.2598 26.6283 24.6456 28.4145 26.4096 28.8664L26.7727 28.9321C27.0451 28.9646 27.3473 28.9609 27.6181 28.9172C29.8012 28.5951 31.1807 26.3604 31.8504 24.447C31.9482 24.1675 32.0216 23.8558 32.1501 23.5897C32.3081 23.2626 32.6712 23.1941 32.7941 22.8356C32.9826 22.2862 33.0548 21.5412 32.9764 20.9542L32.9493 20.7961C32.8697 20.3406 32.4578 20.2562 32.2823 19.8892C32.155 19.623 32.1993 19.2877 32.0723 19.0407C31.7118 18.8394 31.2365 18.7929 30.8318 18.7305L29.1018 18.5213C28.9339 18.5073 28.7686 18.4747 28.5996 18.4646L26.3206 18.4474Z" fill="#687EFF"/>
<path d="M27.1773 17.1514L27.1451 17.1525C26.5823 17.1696 26.5674 16.7229 26.5672 16.2723L26.5681 15.7288C26.529 15.7023 26.4066 15.7163 26.3557 15.7163L25.7188 15.7161C25.4819 15.7158 25.2278 15.753 25.036 15.5822C24.7728 15.3477 24.9352 14.8352 25.2592 14.7441C25.4311 14.6957 25.636 14.7096 25.8136 14.7079L26.5777 14.6962L26.5706 14.0988C26.5714 13.7105 26.5707 13.3908 26.9597 13.1948L27.0493 13.1876C27.5214 13.1789 27.5429 13.7631 27.5457 14.1021L27.5494 14.682C27.5787 14.7157 27.7594 14.7012 27.8117 14.7015L28.3747 14.7054C28.6069 14.7076 28.8732 14.682 29.0645 14.8409C29.2758 15.0163 29.3375 15.3485 29.1372 15.5555C28.9309 15.7685 28.5565 15.713 28.287 15.7135L27.5511 15.7134L27.5514 16.1942C27.5652 16.5888 27.6365 17.0039 27.1773 17.1514ZM21.3813 35.1118L21.6196 35.3079C22.6144 36.2103 23.0512 37.6446 23.2652 38.9294C23.5224 40.4722 23.5753 40.316 22.1358 40.9076C21.9492 40.9843 21.7186 41.1197 21.5161 41.1121C21.2086 41.1004 21.0225 40.7606 21.0598 40.4823C21.1382 39.8986 21.9831 39.9731 22.3522 39.7007C22.182 38.2074 21.6733 35.8186 19.8384 35.6022C17.7895 35.3607 16.5838 38.0919 17.7935 39.6111C18.2768 39.4741 19.0333 39.2881 19.1053 40.0496C19.1475 40.4966 18.7759 40.6292 18.529 40.9195L18.5289 40.9569C17.8064 41.2206 17.3722 40.9097 17.0145 40.3224L16.7081 39.7885C15.9179 38.2506 16.3922 36.1278 17.8054 35.1051C18.0521 34.9266 18.3297 34.7942 18.5996 34.6553C18.6243 34.5045 18.6054 34.3432 18.6225 34.1892C18.6733 33.73 18.7704 33.2898 18.9043 32.8483C18.4205 33.1364 17.9369 33.4085 17.4746 33.7326C15.7469 34.9438 14.6065 36.8478 13.7974 38.7626L13.4441 39.6566C13.3736 39.8576 13.3304 40.0781 13.2372 40.27C13.0647 40.6252 12.6039 40.6567 12.383 40.3103C12.207 40.0342 12.4357 39.567 12.5331 39.2948L12.9386 38.2626C14.1529 35.4491 15.4478 33.6742 18.1106 32.1517C18.5507 31.9001 19.0274 31.6659 19.4429 31.3765C19.6488 31.233 19.7855 30.9522 19.9602 30.7665C20.2425 30.4664 20.6105 30.2253 20.9576 30.0039C21.6002 29.5941 22.1879 29.6676 22.9053 29.8282C24.3224 30.1456 24.9766 31.8029 25.6002 32.9431L26.8252 35.0666C27.0679 34.7147 27.2762 34.3383 27.4927 33.9698L28.5596 32.1575C29.1538 31.1668 29.9598 29.7822 31.2256 29.6484C32.376 29.5729 32.5208 30.4448 32.9447 30.6554C33.1506 30.7575 33.3732 30.8332 33.5841 30.9259L35.0897 31.6074C37.9494 32.9545 39.6103 34.4301 40.8693 37.4112C41.0894 37.9324 41.79 39.8187 41.5942 40.2551C41.4736 40.5238 41.1752 40.6142 40.9214 40.4672C40.6752 40.3247 40.6573 40.1107 40.6038 39.8578L40.4947 39.3815C39.8043 36.7244 38.457 34.6553 36.0816 33.2724L34.6285 32.5025C34.3188 32.3507 33.9949 32.2136 33.6983 32.0378L33.6671 32.0191C34.2513 33.1823 34.5357 34.2682 34.417 35.5668L34.3175 36.5009L34.551 36.697C36.5886 38.5123 33.8099 41.2511 32.0367 39.609C30.7265 38.3958 31.6068 36.3052 33.3116 36.2439C33.5537 35.0163 33.4651 33.889 32.8945 32.7618C32.8414 32.6568 32.7672 32.4931 32.6797 32.416L32.5539 32.6958C31.4461 35.0655 29.3766 37.9059 27.6346 39.8507L27.275 40.2633C26.902 40.6982 26.6092 40.749 26.2023 40.2838L25.8167 39.8385C24.2305 38.0172 22.4832 35.6096 21.4038 33.4173C21.086 32.7717 20.9025 32.0792 20.6952 31.3935C19.9968 32.2631 19.6936 33.4184 19.6175 34.5167C20.2695 34.6137 20.8204 34.7168 21.3813 35.1118ZM31.3585 30.6924C30.4413 30.7903 29.8581 31.9576 29.4314 32.6611L28.0605 34.9788C27.1203 36.5008 26.8255 37.0495 25.6728 35.0953L24.8315 33.629C24.3627 32.7766 23.1672 29.9648 21.8328 30.8673C21.8377 31.8858 22.1486 32.7013 22.6331 33.5875C23.5567 35.2553 24.6556 36.7988 25.84 38.2899L26.7277 39.358C27.3992 38.6367 28.0129 37.8608 28.6032 37.0723L30.118 34.9296C30.4039 34.494 33.0944 30.6468 31.3585 30.6924ZM33.2513 37.2551C32.0333 37.4332 32.1722 39.1776 33.4035 39.0884C34.6718 38.8899 34.4203 37.165 33.2513 37.2551Z" fill="#687EFF"/>
</g>
</g>
<defs>
<filter id="filter0_d_764_62166" x="0" y="0" width="54" height="54" filterUnits="userSpaceOnUse" color-interpolation-filters="sRGB">
<feFlood flood-opacity="0" result="BackgroundImageFix"/>
<feColorMatrix in="SourceAlpha" type="matrix" values="0 0 0 0 0 0 0 0 0 0 0 0 0 0 0 0 0 0 127 0" result="hardAlpha"/>
<feOffset dy="4"/>
<feGaussianBlur stdDeviation="5"/>
<feComposite in2="hardAlpha" operator="out"/>
<feColorMatrix type="matrix" values="0 0 0 0 0.680417 0 0 0 0 0.685347 0 0 0 0 0.8875 0 0 0 0.28 0"/>
<feBlend mode="normal" in2="BackgroundImageFix" result="effect1_dropShadow_764_62166"/>
<feBlend mode="normal" in="SourceGraphic" in2="effect1_dropShadow_764_62166" result="shape"/>
</filter>
<clipPath id="clip0_764_62166">
<rect x="10" y="6" width="34" height="34" rx="9" fill="white"/>
</clipPath>
</defs>
</svg>
