<svg width="15" height="18" viewBox="0 0 15 18" fill="none" xmlns="http://www.w3.org/2000/svg">
<path fill-rule="evenodd" clip-rule="evenodd" d="M4.55034 0C3.48577 0 2.70464 1.00046 2.96284 2.03324L3.19525 2.96286C3.24077 3.14497 3.4044 3.27273 3.59212 3.27273H11.1351C11.3228 3.27273 11.4865 3.14497 11.532 2.96286L11.7644 2.03324C12.0226 1.00046 11.2415 0 10.1769 0H4.55034ZM3.68182 4.90909C3.45589 4.90909 3.27058 5.09277 3.29287 5.31761C3.49786 7.38515 5.24216 9 7.36364 9C9.4851 9 11.2294 7.38515 11.4344 5.31761C11.4567 5.09277 11.2714 4.90909 11.0455 4.90909H3.68182ZM5.36063 9.82972C2.36839 10.0188 0 12.5055 0 15.5455C0 16.901 1.09894 18 2.45455 18H12.2727C13.6284 18 14.7273 16.901 14.7273 15.5455C14.7273 12.5055 12.3589 10.0188 9.36663 9.82972C9.13385 9.81499 8.91123 9.91767 8.75602 10.0917L7.6689 11.3177C7.58757 11.4089 7.47565 11.4545 7.36364 11.4545C7.25163 11.4545 7.1397 11.4089 7.05837 11.3177L5.97125 10.0917C5.81605 9.91767 5.59338 9.81499 5.36063 9.82972ZM5.72726 12.2727C5.95317 12.2727 6.13636 12.4559 6.13636 12.6818V13.5001H6.95455C7.18045 13.5001 7.36364 13.6832 7.36364 13.9092V14.7274C7.36364 14.9533 7.18045 15.1364 6.95455 15.1364H6.13636V15.9545C6.13636 16.1804 5.95317 16.3636 5.72727 16.3636H4.90909C4.68316 16.3636 4.5 16.1804 4.5 15.9545L4.49998 15.1364H3.68182C3.45589 15.1364 3.27273 14.9533 3.27273 14.7274V13.9092C3.27273 13.6833 3.45589 13.5001 3.68182 13.5001H4.49998V12.6818C4.49998 12.4559 4.68314 12.2727 4.90908 12.2727H5.72726Z" fill="#8F8DA6"/>
</svg>
