<svg width="48" height="48" viewBox="0 0 48 48" fill="none" xmlns="http://www.w3.org/2000/svg">
<rect width="48" height="48" rx="24" fill="#687EFF"/>
<path d="M24.667 25.3333C21.3672 25.3333 18.667 23.0439 18.667 20.2455V18.421C18.667 15.6229 21.3668 13.3333 24.667 13.3333C27.9668 13.3333 30.667 15.6226 30.667 18.421V20.2455C30.667 23.0436 27.9668 25.3333 24.667 25.3333Z" fill="white"/>
<path d="M28.1708 25.3333L24.6663 28.9495L21.1619 25.3333C16.736 25.9917 13.333 29.4478 13.333 33.5819V39.0844C13.333 39.5878 13.7941 39.9999 14.3575 39.9999H34.9752C35.5385 39.9999 35.9997 39.5878 35.9997 39.0844V33.5819C35.9997 29.4478 32.5967 25.9917 28.1708 25.3333Z" fill="white"/>
<path d="M24.6663 8C21.4111 8 18.5972 9.81282 17.333 12.3968C18.0171 13.2783 18.7015 14.0319 19.3856 14.6667C20.5672 13.143 22.4944 12.1421 24.6663 12.1421C26.8383 12.1421 28.7655 13.143 29.9471 14.6667C30.6312 14.0319 31.3156 13.2783 31.9997 12.3968C30.7355 9.81282 27.9215 8 24.6663 8ZM25.9749 10.4256C25.9749 10.522 25.8904 10.5997 25.7865 10.5997H25.1814V11.1587C25.1814 11.2551 25.0969 11.3328 24.9929 11.3328H24.3406C24.2362 11.3328 24.1521 11.2547 24.1521 11.1587V10.6001H23.547C23.4427 10.6001 23.3585 10.522 23.3585 10.426V9.82308C23.3585 9.72668 23.4431 9.64898 23.547 9.64898H24.1521V9.08967C24.1521 8.99327 24.2366 8.91557 24.3406 8.91557H24.9929C25.0972 8.91557 25.1814 8.99364 25.1814 9.08967V9.64862H25.7865C25.8908 9.64862 25.9749 9.72668 25.9749 9.82271V10.4256Z" fill="white"/>
</svg>
