<svg width="144" height="144" viewBox="0 0 144 144" fill="none" xmlns="http://www.w3.org/2000/svg">
<g filter="url(#filter0_d_0_90)">
<rect x="20" y="10" width="104" height="104" rx="10" fill="white"/>
<path d="M84.2212 87.9448C84.2212 89.2654 83.3711 90.146 82.0203 90.146H53.1598C51.809 90.146 50.9589 89.3238 50.9589 87.9448V36.0301C50.9589 34.7077 51.985 33.8286 53.1598 33.8286H82.0203C83.2532 33.8286 84.2212 34.7658 84.2212 36.0301V87.9448Z" fill="#F4F4F4"/>
<path d="M53.8556 87.9448V36.0301C53.8556 34.7077 54.8814 33.8286 56.0565 33.8286H53.1598C51.985 33.8286 50.9589 34.7077 50.9589 36.0301V87.9448C50.9589 89.3238 51.809 90.146 53.1598 90.146H56.0565C54.7057 90.1463 53.8556 89.3238 53.8556 87.9448Z" fill="#F9F9F9"/>
<path d="M84.2212 38.1691H50.9589V83.0473H84.2212V38.1691Z" fill="#4D8BF2"/>
<path d="M68.6463 86.5664C68.6463 87.1496 68.1741 87.6227 67.59 87.6227C67.006 87.6227 66.5338 87.1496 66.5338 86.5664C66.5338 85.9839 67.006 85.5104 67.59 85.5104C68.1741 85.5104 68.6463 85.9836 68.6463 86.5664Z" fill="#4D8BF2"/>
<path d="M53.8556 38.1691H50.9589V83.0473H53.8556V38.1691Z" fill="#5356FF"/>
<path d="M82.0203 91.4771H80.2673C79.5325 91.4771 78.9365 90.8814 78.9365 90.1463C78.9365 89.4112 79.5325 88.8154 80.2673 88.8154H82.0203C82.6216 88.8154 82.8903 88.5467 82.8903 87.9451V36.0301C82.8903 35.5176 82.5324 35.1598 82.0203 35.1598H53.1598C52.7403 35.1598 52.2898 35.4323 52.2898 36.0301V42.8081C52.2898 43.5432 51.6937 44.139 50.9589 44.139C50.2241 44.139 49.6281 43.5432 49.6281 42.8081V36.0301C49.6281 34.0492 51.1789 32.498 53.1598 32.498H82.0203C84.0011 32.498 85.552 34.0495 85.552 36.0301V87.9448C85.552 90.0242 84.1 91.4771 82.0203 91.4771Z" fill="black"/>
<path d="M73.9457 91.4771H53.1598C51.0472 91.4771 49.6281 90.0577 49.6281 87.9448V49.1297C49.6281 48.3946 50.2241 47.7989 50.9589 47.7989C51.6937 47.7989 52.2898 48.3946 52.2898 49.1297V87.9448C52.2898 88.5713 52.5332 88.8151 53.1598 88.8151H73.9457C74.6805 88.8151 75.2765 89.4109 75.2765 90.146C75.2765 90.8811 74.6805 91.4771 73.9457 91.4771Z" fill="black"/>
<path d="M84.2211 84.3778H50.9589C50.2241 84.3778 49.6281 83.7821 49.6281 83.047V49.1297C49.6281 48.3946 50.2241 47.7989 50.9589 47.7989C51.6937 47.7989 52.2898 48.3946 52.2898 49.1297V81.7161H82.89V39.4999H52.2901V42.8081C52.2901 43.5432 51.694 44.139 50.9592 44.139C50.2244 44.139 49.6283 43.5432 49.6283 42.8081V38.169C49.6283 37.434 50.2244 36.8382 50.9592 36.8382H84.2214C84.9562 36.8382 85.5523 37.434 85.5523 38.169V83.047C85.552 83.7824 84.9559 84.3778 84.2211 84.3778Z" fill="black"/>
<path d="M68.6463 86.5664C68.6463 87.1496 68.1741 87.6227 67.59 87.6227C67.006 87.6227 66.5338 87.1496 66.5338 86.5664C66.5338 85.9839 67.006 85.5104 67.59 85.5104C68.1741 85.5104 68.6463 85.9836 68.6463 86.5664Z" fill="black"/>
<rect x="66.5" y="55" width="32" height="11" fill="white"/>
<path d="M95.6579 52H70.3421C67.1153 52 64.5 54.5368 64.5 57.6667V63.3333C64.5 66.4632 67.1153 69 70.3421 69H95.6579C98.8847 69 101.5 66.4632 101.5 63.3333V57.6667C101.5 54.5368 98.8847 52 95.6579 52ZM75.9311 61.8864C76.5386 62.4758 76.5386 63.4334 75.9311 64.0247C75.6273 64.3193 75.23 64.4667 74.8308 64.4667C74.4316 64.4667 74.0343 64.3193 73.7305 64.0247L72.3012 62.6382L70.8718 64.0247C70.568 64.3193 70.1707 64.4667 69.7715 64.4667C69.3723 64.4667 68.9751 64.3193 68.6713 64.0247C68.0637 63.4353 68.0637 62.4777 68.6713 61.8864L70.1006 60.5L68.6713 59.1136C68.0637 58.5242 68.0637 57.5666 68.6713 56.9753C69.2788 56.386 70.2642 56.386 70.8737 56.9753L72.3031 58.3618L73.7325 56.9753C74.3401 56.386 75.3254 56.386 75.9349 56.9753C76.5425 57.5647 76.5425 58.5223 75.9349 59.1136L74.5056 60.5L75.9349 61.8864H75.9311ZM86.6318 61.8864C87.2394 62.4758 87.2394 63.4334 86.6318 64.0247C86.328 64.3193 85.9308 64.4667 85.5316 64.4667C85.1324 64.4667 84.7351 64.3193 84.4313 64.0247L83.0019 62.6382L81.5726 64.0247C81.2688 64.3193 80.8715 64.4667 80.4723 64.4667C80.0731 64.4667 79.6758 64.3193 79.3721 64.0247C78.7645 63.4353 78.7645 62.4777 79.3721 61.8864L80.8014 60.5L79.3721 59.1136C78.7645 58.5242 78.7645 57.5666 79.3721 56.9753C79.9796 56.386 80.965 56.386 81.5745 56.9753L83.0039 58.3618L84.4333 56.9753C85.0408 56.386 86.0262 56.386 86.6357 56.9753C87.2433 57.5647 87.2433 58.5223 86.6357 59.1136L85.2064 60.5L86.6357 61.8864H86.6318ZM97.4027 61.8864C98.0103 62.4758 98.0103 63.4334 97.4027 64.0228C97.0989 64.3174 96.7017 64.4648 96.3025 64.4648C95.9033 64.4648 95.506 64.3174 95.2022 64.0228L93.7709 62.6344L92.3396 64.0228C92.0358 64.3174 91.6385 64.4648 91.2393 64.4648C90.8401 64.4648 90.4428 64.3174 90.1391 64.0228C89.5315 63.4334 89.5315 62.4758 90.1391 61.8864L91.5684 60.5L90.1391 59.1136C89.5315 58.5242 89.5315 57.5666 90.1391 56.9772C90.7466 56.3879 91.732 56.386 92.3415 56.9772L93.7728 58.3656L95.2042 56.9772C95.8117 56.3879 96.7971 56.3879 97.4066 56.9772C98.0162 57.5666 98.0142 58.5242 97.4066 59.1136L95.9773 60.5L97.4066 61.8864H97.4027Z" fill="black"/>
</g>
<defs>
<filter id="filter0_d_0_90" x="0" y="0" width="144" height="144" filterUnits="userSpaceOnUse" color-interpolation-filters="sRGB">
<feFlood flood-opacity="0" result="BackgroundImageFix"/>
<feColorMatrix in="SourceAlpha" type="matrix" values="0 0 0 0 0 0 0 0 0 0 0 0 0 0 0 0 0 0 127 0" result="hardAlpha"/>
<feOffset dy="10"/>
<feGaussianBlur stdDeviation="10"/>
<feComposite in2="hardAlpha" operator="out"/>
<feColorMatrix type="matrix" values="0 0 0 0 0.680417 0 0 0 0 0.685347 0 0 0 0 0.8875 0 0 0 0.34 0"/>
<feBlend mode="normal" in2="BackgroundImageFix" result="effect1_dropShadow_0_90"/>
<feBlend mode="normal" in="SourceGraphic" in2="effect1_dropShadow_0_90" result="shape"/>
</filter>
</defs>
</svg>
