<svg width="48" height="48" viewBox="0 0 48 48" fill="none" xmlns="http://www.w3.org/2000/svg">
<rect width="48" height="48" rx="24" fill="#687EFF"/>
<path d="M24 9C19.589 9 16 12.589 16 17C16 21.411 19.589 25 24 25C28.411 25 32 21.411 32 17C32 12.589 28.411 9 24 9ZM28 18C27.447 18 27 17.552 27 17C27 15.346 25.654 14 24 14C23.447 14 23 13.552 23 13C23 12.448 23.447 12 24 12C26.757 12 29 14.243 29 17C29 17.552 28.553 18 28 18ZM36.02 39C36.014 38.999 36.007 39 36 39H12C11.447 39 11 38.552 11 38C11 30.832 16.832 25 24 25C31.099 25 36.887 30.72 36.998 37.792C37.013 37.859 37.019 37.929 37.019 38C37.02 38.552 36.572 39 36.02 39Z" fill="white"/>
</svg>
