<svg width="20" height="20" viewBox="0 0 20 20" fill="none" xmlns="http://www.w3.org/2000/svg">
<path d="M11.2493 7.08398H16.2493L11.2493 2.08398V7.08398ZM4.73893 0.833984H12.0306L17.4993 6.33398V17.334C17.4993 18.3465 16.6832 19.1673 15.6764 19.1673H4.73893C3.72721 19.1673 2.91602 18.3423 2.91602 17.334V2.66732C2.91602 1.6548 3.73216 0.833984 4.73893 0.833984ZM9.37495 10.4173C9.77109 11.2894 10.2735 12.0065 10.8532 12.5007L11.2493 12.8107C10.4088 12.9658 9.24935 13.2371 8.0223 13.7119L7.91602 13.7507L8.39911 12.7429C8.83389 11.8999 9.15273 11.1344 9.37495 10.4173ZM15.1541 13.9539C15.3174 13.7906 15.3991 13.582 15.4082 13.3552C15.4354 13.1737 15.39 13.0013 15.2993 12.8562C15.0362 12.4298 14.3557 12.2302 13.2306 12.2302L12.0601 12.2937L11.2708 11.7675C10.6991 11.2957 10.182 10.4701 9.81903 9.44487L9.85532 9.31786C10.1547 8.1112 10.436 6.65052 9.83717 6.05173C9.692 5.90657 9.49239 5.83398 9.2837 5.83398H9.06594C8.73023 5.83398 8.43081 6.18782 8.34915 6.53257C8.01344 7.73923 8.21305 8.40153 8.54876 9.49931V9.50838C8.32193 10.3068 8.03159 11.2322 7.56885 12.1666L6.69781 13.7997L5.89029 14.2443C4.8015 14.9247 4.28432 15.6868 4.18451 16.1677C4.14822 16.34 4.16637 16.4943 4.22988 16.6576L4.2571 16.7029L4.69262 16.9842L5.09184 17.084C5.82678 17.084 6.66152 16.2221 7.78661 14.2987L7.94993 14.2352C8.88448 13.9358 10.0459 13.7271 11.6065 13.5548C12.541 14.0175 13.6389 14.2261 14.3284 14.2261C14.7277 14.2261 14.9999 14.1263 15.1541 13.9539ZM14.9149 13.209L14.9993 13.3007C14.99 13.384 14.9618 13.3923 14.9149 13.409H14.8774L14.699 13.4257C14.2674 13.4257 13.6011 13.2673 12.916 13.0007C13.0005 12.9173 13.038 12.9173 13.1319 12.9173C14.4457 12.9173 14.821 13.1257 14.9149 13.209ZM6.66602 14.584C6.02499 15.5757 5.44314 16.1257 4.99935 16.2507C5.04866 15.934 5.49245 15.384 6.19264 14.8423L6.66602 14.584ZM9.32144 8.33398C9.12977 7.46993 9.12144 6.76908 9.2631 6.36586L9.32144 6.25065L9.44644 6.29865C9.5881 6.52907 9.60477 6.83629 9.52144 7.35472L9.49644 7.50833L9.3631 8.29558L9.32144 8.33398Z" fill="#F44336"/>
</svg>
