<svg width="190" height="56" viewBox="0 0 190 56" fill="none" xmlns="http://www.w3.org/2000/svg">
<rect x="0.894806" width="188.697" height="55.1175" rx="5.74141" fill="black"/>
<path d="M30.0252 26.7349L14.8145 42.8786C14.8159 42.8815 14.8159 42.8858 14.8173 42.8886C15.2845 44.6416 16.8846 45.9316 18.7847 45.9316C19.5447 45.9316 20.2576 45.7259 20.8691 45.3659L20.9176 45.3373L38.0385 35.4582L30.0252 26.7349Z" fill="#EA4335"/>
<path d="M45.413 23.9855L45.3987 23.9755L38.0069 19.691L29.6793 27.1013L38.0369 35.4561L45.3887 31.2144C46.6773 30.5172 47.5531 29.1586 47.5531 27.5928C47.5531 26.0356 46.6902 24.6841 45.413 23.9855Z" fill="#FBBC04"/>
<path d="M14.8143 12.2388C14.7229 12.5759 14.6743 12.9302 14.6743 13.296V41.8231C14.6743 42.1889 14.7229 42.5432 14.8157 42.8789L30.548 27.1481L14.8143 12.2388Z" fill="#4285F4"/>
<path d="M30.1375 27.5586L38.0093 19.6882L20.9085 9.77339C20.287 9.40052 19.5613 9.18622 18.7855 9.18622C16.8854 9.18622 15.2825 10.4791 14.8153 12.2335C14.8153 12.2349 14.8139 12.2364 14.8139 12.2378L30.1375 27.5586Z" fill="#34A853"/>
<path d="M69.9431 13.7484C69.9431 14.88 69.6082 15.7807 68.9371 16.4532C68.1741 17.2526 67.1816 17.6523 65.9609 17.6523C64.7901 17.6523 63.7962 17.2472 62.9792 16.4356C62.1595 15.6254 61.7517 14.6194 61.7517 13.4202C61.7517 12.2198 62.1595 11.2151 62.9792 10.4035C63.7962 9.59326 64.7901 9.1868 65.9609 9.1868C66.5402 9.1868 67.0965 9.30023 67.6232 9.52709C68.1512 9.75396 68.5738 10.0551 68.8912 10.4319L68.1782 11.1449C67.6421 10.5048 66.9034 10.1834 65.9609 10.1834C65.1074 10.1834 64.3701 10.4832 63.7476 11.0827C63.125 11.6837 62.8145 12.4615 62.8145 13.4202C62.8145 14.3777 63.125 15.1568 63.7476 15.7564C64.3701 16.3573 65.1074 16.6558 65.9609 16.6558C66.8656 16.6558 67.6191 16.3546 68.2241 15.751C68.6157 15.358 68.8412 14.8125 68.902 14.1103H65.9609V13.1367H69.8864C69.9242 13.3487 69.9431 13.5526 69.9431 13.7484Z" fill="white"/>
<path d="M69.9431 13.7484C69.9431 14.88 69.6082 15.7807 68.9371 16.4532C68.1741 17.2526 67.1816 17.6523 65.9609 17.6523C64.7901 17.6523 63.7962 17.2472 62.9792 16.4356C62.1595 15.6254 61.7517 14.6194 61.7517 13.4202C61.7517 12.2198 62.1595 11.2151 62.9792 10.4035C63.7962 9.59326 64.7901 9.1868 65.9609 9.1868C66.5402 9.1868 67.0965 9.30023 67.6232 9.52709C68.1512 9.75396 68.5738 10.0551 68.8912 10.4319L68.1782 11.1449C67.6421 10.5048 66.9034 10.1834 65.9609 10.1834C65.1074 10.1834 64.3701 10.4832 63.7476 11.0827C63.125 11.6837 62.8145 12.4615 62.8145 13.4202C62.8145 14.3777 63.125 15.1568 63.7476 15.7564C64.3701 16.3573 65.1074 16.6558 65.9609 16.6558C66.8656 16.6558 67.6191 16.3546 68.2241 15.751C68.6157 15.358 68.8412 14.8125 68.902 14.1103H65.9609V13.1367H69.8864C69.9242 13.3487 69.9431 13.5526 69.9431 13.7484Z" fill="white"/>
<path d="M76.1674 10.3636H72.4781V12.9321H75.8055V13.9057H72.4781V16.4741H76.1674V17.4707H71.437V9.36841H76.1674V10.3636Z" fill="white"/>
<path d="M76.1674 10.3636H72.4781V12.9321H75.8055V13.9057H72.4781V16.4741H76.1674V17.4707H71.437V9.36841H76.1674V10.3636Z" fill="white"/>
<path d="M80.5573 17.4707H79.5162V10.3636H77.253V9.36841H82.8206V10.3636H80.5573V17.4707Z" fill="white"/>
<path d="M80.5573 17.4707H79.5162V10.3636H77.253V9.36841H82.8206V10.3636H80.5573V17.4707Z" fill="white"/>
<path d="M86.8491 9.36841H87.8902V17.4707H86.8491V9.36841Z" fill="white"/>
<path d="M92.5078 17.4707H91.4666V10.3636H89.2034V9.36841H94.771V10.3636H92.5078V17.4707Z" fill="white"/>
<path d="M92.5078 17.4707H91.4666V10.3636H89.2034V9.36841H94.771V10.3636H92.5078V17.4707Z" fill="white"/>
<path d="M100.139 15.7456C100.738 16.3533 101.472 16.6558 102.34 16.6558C103.208 16.6558 103.941 16.3533 104.541 15.7456C105.14 15.1379 105.442 14.3628 105.442 13.4202C105.442 12.4777 105.14 11.7012 104.541 11.0949C103.941 10.4872 103.208 10.1834 102.34 10.1834C101.472 10.1834 100.738 10.4872 100.139 11.0949C99.5405 11.7012 99.2393 12.4777 99.2393 13.4202C99.2393 14.3628 99.5405 15.1379 100.139 15.7456ZM105.311 16.4235C104.514 17.2432 103.524 17.6523 102.34 17.6523C101.156 17.6523 100.166 17.2432 99.3703 16.4235C98.5736 15.6052 98.1766 14.6045 98.1766 13.4202C98.1766 12.236 98.5736 11.234 99.3703 10.4156C100.166 9.59731 101.156 9.1868 102.34 9.1868C103.517 9.1868 104.504 9.59867 105.305 10.421C106.105 11.2434 106.504 12.2427 106.504 13.4202C106.504 14.6045 106.106 15.6052 105.311 16.4235Z" fill="white"/>
<path d="M100.139 15.7456C100.738 16.3533 101.472 16.6558 102.34 16.6558C103.208 16.6558 103.941 16.3533 104.541 15.7456C105.14 15.1379 105.442 14.3628 105.442 13.4202C105.442 12.4777 105.14 11.7012 104.541 11.0949C103.941 10.4872 103.208 10.1834 102.34 10.1834C101.472 10.1834 100.738 10.4872 100.139 11.0949C99.5405 11.7012 99.2393 12.4777 99.2393 13.4202C99.2393 14.3628 99.5405 15.1379 100.139 15.7456ZM105.311 16.4235C104.514 17.2432 103.524 17.6523 102.34 17.6523C101.156 17.6523 100.166 17.2432 99.3703 16.4235C98.5736 15.6052 98.1766 14.6045 98.1766 13.4202C98.1766 12.236 98.5736 11.234 99.3703 10.4156C100.166 9.59731 101.156 9.1868 102.34 9.1868C103.517 9.1868 104.504 9.59867 105.305 10.421C106.105 11.2434 106.504 12.2427 106.504 13.4202C106.504 14.6045 106.106 15.6052 105.311 16.4235Z" fill="white"/>
<path d="M107.966 17.4707V9.36841H109.232L113.17 15.6706H113.216L113.17 14.1096V9.36841H114.212V17.4707H113.125L109.005 10.8619H108.961L109.005 12.4243V17.4707H107.966Z" fill="white"/>
<path d="M107.966 17.4707V9.36841H109.232L113.17 15.6706H113.216L113.17 14.1096V9.36841H114.212V17.4707H113.125L109.005 10.8619H108.961L109.005 12.4243V17.4707H107.966Z" fill="white"/>
<path d="M150.315 40.4275H152.834V23.5464H150.315V40.4275ZM173.01 29.6271L170.122 36.9462H170.036L167.038 29.6271H164.323L168.819 39.8563L166.257 45.5468H168.884L175.812 29.6271H173.01ZM158.721 38.5099C157.894 38.5099 156.744 38.0981 156.744 37.0758C156.744 35.7741 158.177 35.2744 159.415 35.2744C160.522 35.2744 161.045 35.5134 161.717 35.8389C161.521 37.4026 160.175 38.5099 158.721 38.5099ZM159.025 29.2585C157.2 29.2585 155.31 30.0619 154.529 31.8431L156.765 32.7762C157.243 31.8431 158.133 31.5379 159.068 31.5379C160.371 31.5379 161.696 32.3198 161.717 33.7107V33.8835C161.261 33.6229 160.284 33.2326 159.089 33.2326C156.679 33.2326 154.224 34.5574 154.224 37.0326C154.224 39.2918 156.201 40.7475 158.416 40.7475C160.11 40.7475 161.045 39.9873 161.631 39.096H161.717V40.3991H164.149V33.9267C164.149 30.9302 161.913 29.2585 159.025 29.2585ZM143.452 31.6824H139.868V25.896H143.452C145.336 25.896 146.405 27.4557 146.405 28.7885C146.405 30.0971 145.336 31.6824 143.452 31.6824ZM143.387 23.5464H137.35V40.4275H139.868V34.0321H143.387C146.18 34.0321 148.925 32.0092 148.925 28.7885C148.925 25.5679 146.18 23.5464 143.387 23.5464ZM110.463 38.5126C108.723 38.5126 107.266 37.0556 107.266 35.0543C107.266 33.0314 108.723 31.5514 110.463 31.5514C112.183 31.5514 113.53 33.0314 113.53 35.0543C113.53 37.0556 112.183 38.5126 110.463 38.5126ZM113.357 30.5724H113.27C112.704 29.8986 111.617 29.2895 110.246 29.2895C107.374 29.2895 104.742 31.812 104.742 35.0543C104.742 38.2736 107.374 40.7759 110.246 40.7759C111.617 40.7759 112.704 40.1669 113.27 39.4701H113.357V40.2978C113.357 42.4949 112.183 43.6697 110.289 43.6697C108.744 43.6697 107.787 42.5597 107.395 41.6239L105.198 42.5381C105.829 44.0614 107.505 45.9316 110.289 45.9316C113.248 45.9316 115.75 44.191 115.75 39.9494V29.6366H113.357V30.5724ZM117.491 40.4275H120.015V23.545H117.491V40.4275ZM123.734 34.8585C123.669 32.6398 125.453 31.5082 126.736 31.5082C127.738 31.5082 128.586 32.0079 128.868 32.7263L123.734 34.8585ZM131.566 32.9437C131.088 31.6608 129.629 29.2895 126.649 29.2895C123.69 29.2895 121.233 31.6162 121.233 35.0327C121.233 38.252 123.669 40.7759 126.931 40.7759C129.565 40.7759 131.088 39.1662 131.718 38.2304L129.76 36.9246C129.108 37.882 128.216 38.5126 126.931 38.5126C125.649 38.5126 124.734 37.9252 124.147 36.7733L131.827 33.5959L131.566 32.9437ZM70.3828 31.0518V33.4879H76.2124C76.0382 34.8585 75.5817 35.8591 74.8863 36.5546C74.0369 37.404 72.7095 38.3398 70.3828 38.3398C66.7921 38.3398 63.986 35.4459 63.986 31.8566C63.986 28.2659 66.7921 25.3734 70.3828 25.3734C72.3192 25.3734 73.7331 26.135 74.7769 27.1141L76.496 25.395C75.0375 24.0028 73.1024 22.936 70.3828 22.936C65.466 22.936 61.3325 26.9399 61.3325 31.8566C61.3325 36.7733 65.466 40.7759 70.3828 40.7759C73.0363 40.7759 75.0375 39.9049 76.604 38.2736C78.215 36.664 78.7146 34.4021 78.7146 32.5737C78.7146 32.0079 78.6714 31.4866 78.5837 31.0518H70.3828ZM85.3437 38.5126C83.603 38.5126 82.1014 37.0772 82.1014 35.0327C82.1014 32.9653 83.603 31.5514 85.3437 31.5514C87.083 31.5514 88.5846 32.9653 88.5846 35.0327C88.5846 37.0772 87.083 38.5126 85.3437 38.5126ZM85.3437 29.2895C82.1662 29.2895 79.5775 31.704 79.5775 35.0327C79.5775 38.3398 82.1662 40.7759 85.3437 40.7759C88.5198 40.7759 91.1084 38.3398 91.1084 35.0327C91.1084 31.704 88.5198 29.2895 85.3437 29.2895ZM97.9198 38.5126C96.1791 38.5126 94.6775 37.0772 94.6775 35.0327C94.6775 32.9653 96.1791 31.5514 97.9198 31.5514C99.6604 31.5514 101.161 32.9653 101.161 35.0327C101.161 37.0772 99.6604 38.5126 97.9198 38.5126ZM97.9198 29.2895C94.7437 29.2895 92.155 31.704 92.155 35.0327C92.155 38.3398 94.7437 40.7759 97.9198 40.7759C101.096 40.7759 103.685 38.3398 103.685 35.0327C103.685 31.704 101.096 29.2895 97.9198 29.2895Z" fill="white"/>
</svg>
