<svg width="18" height="19" viewBox="0 0 18 19" fill="none" xmlns="http://www.w3.org/2000/svg">
<path d="M9 15C8.73478 15 8.48043 14.8841 8.29289 14.6778C8.10536 14.4715 8 14.1917 8 13.9V5.1C8 4.80826 8.10536 4.52847 8.29289 4.32218C8.48043 4.11589 8.73478 4 9 4C9.26522 4 9.51957 4.11589 9.70711 4.32218C9.89464 4.52847 10 4.80826 10 5.1V13.9C10 14.1917 9.89464 14.4715 9.70711 14.6778C9.51957 14.8841 9.26522 15 9 15Z" fill="#687EFF"/>
<path d="M3.5 9.5C3.5 9.23478 3.61589 8.98043 3.82218 8.79289C4.02847 8.60536 4.30826 8.5 4.6 8.5L13.4 8.5C13.6917 8.5 13.9715 8.60536 14.1778 8.79289C14.3841 8.98043 14.5 9.23478 14.5 9.5C14.5 9.76522 14.3841 10.0196 14.1778 10.2071C13.9715 10.3946 13.6917 10.5 13.4 10.5L4.6 10.5C4.30826 10.5 4.02847 10.3946 3.82218 10.2071C3.61589 10.0196 3.5 9.76522 3.5 9.5Z" fill="#687EFF"/>
</svg>
