<svg width="24" height="24" viewBox="0 0 24 24" fill="none" xmlns="http://www.w3.org/2000/svg">
<path d="M12 16.5C14.475 16.5 16.5 14.475 16.5 12C16.5 9.525 14.475 7.5 12 7.5C9.525 7.5 7.5 9.525 7.5 12C7.5 14.475 9.525 16.5 12 16.5ZM12 9C13.65 9 15 10.35 15 12C15 13.65 13.65 15 12 15C10.35 15 9 13.65 9 12C9 10.35 10.35 9 12 9Z" fill="#6B7A8B"/>
<path d="M11.9999 19.125C15.9749 19.125 19.6499 15.825 21.5249 13.875C22.4999 12.825 22.4999 11.2125 21.5249 10.1625C19.6499 8.175 15.9749 4.875 11.9999 4.875C8.0249 4.875 4.3499 8.175 2.4749 10.125C1.4999 11.175 1.4999 12.825 2.4749 13.875C4.3499 15.825 8.0249 19.125 11.9999 19.125ZM3.5999 11.175C5.2499 9.375 8.5874 6.375 11.9999 6.375C15.4124 6.375 18.7499 9.375 20.3999 11.175C20.8499 11.625 20.8499 12.375 20.3999 12.825C18.7499 14.625 15.4124 17.625 11.9999 17.625C8.5874 17.625 5.2499 14.625 3.5999 12.825C3.1499 12.375 3.1499 11.625 3.5999 11.175Z" fill="#6B7A8B"/>
<path d="M12 13.5C12.8284 13.5 13.5 12.8284 13.5 12C13.5 11.1716 12.8284 10.5 12 10.5C11.1716 10.5 10.5 11.1716 10.5 12C10.5 12.8284 11.1716 13.5 12 13.5Z" fill="#6B7A8B"/>
</svg>
