<svg width="20" height="22" viewBox="0 0 20 22" fill="none" xmlns="http://www.w3.org/2000/svg">
<path d="M3.39247 20.9308C3.62903 21.0426 3.9086 21.0106 4.10753 20.8457L8.16129 17.5514L12.2204 20.8457C12.3441 20.9468 12.4946 21 12.6452 21C12.7419 21 12.8441 20.9787 12.9355 20.9361C13.172 20.8244 13.3226 20.5902 13.3226 20.3294V14.9542H14.5215C15.1828 14.9542 15.8011 14.6988 16.2688 14.2358C16.7366 13.7728 16.9946 13.1607 16.9946 12.5061V6.77435H16.043V12.5061C16.043 13.3363 15.3602 14.0122 14.5215 14.0122H13.3226V3.68228H12.371V19.7547L8.58602 16.6839C8.33871 16.4816 7.9785 16.4816 7.73118 16.6839L3.95161 19.7547V3.44811C3.95161 2.61788 4.63441 1.94199 5.47312 1.94199H14.5269C15.3656 1.94199 16.0484 2.61788 16.0484 3.44811V4.80522H17V3.44811C17 2.79351 16.7419 2.18148 16.2742 1.71847C15.8065 1.25545 15.1882 1 14.5269 1H5.47312C4.81183 1 4.19355 1.25545 3.72581 1.71847C3.25806 2.18148 3 2.79351 3 3.44811V20.3294C3 20.5902 3.15054 20.8244 3.3871 20.9361L3.39247 20.9308Z" fill="#687EFF"/>
</svg>
