<svg width="28" height="28" viewBox="0 0 28 28" fill="none" xmlns="http://www.w3.org/2000/svg">
<rect x="0.5" y="0.5" width="27" height="27" rx="13.5" fill="white"/>
<rect x="0.5" y="0.5" width="27" height="27" rx="13.5" stroke="#FFB4B8"/>
<path d="M19.6375 11.382L19.3625 19.7056C19.3391 20.4184 19.0388 21.0941 18.5253 21.5892C18.0119 22.0843 17.3257 22.3598 16.6125 22.3573H11.3875C10.6747 22.3598 9.98894 22.0847 9.47558 21.5902C8.96222 21.0957 8.66161 20.4207 8.63749 19.7083L8.36249 11.382C8.35647 11.1997 8.42313 11.0224 8.54781 10.8892C8.67249 10.7561 8.84496 10.6779 9.0273 10.6718C9.20964 10.6658 9.3869 10.7325 9.52008 10.8572C9.65327 10.9818 9.73147 11.1543 9.73749 11.3366L10.0125 19.6623C10.0262 20.0177 10.1771 20.354 10.4335 20.6005C10.6899 20.847 11.0318 20.9846 11.3875 20.9843H16.6125C16.9686 20.9846 17.311 20.8466 17.5674 20.5995C17.8239 20.3524 17.9745 20.0154 17.9875 19.6595L18.2625 11.3366C18.2685 11.1543 18.3467 10.9818 18.4799 10.8572C18.6131 10.7325 18.7903 10.6658 18.9727 10.6718C19.155 10.6779 19.3275 10.7561 19.4522 10.8892C19.5768 11.0224 19.6435 11.1997 19.6375 11.382ZM20.5471 8.61208C20.5471 8.79442 20.4746 8.96929 20.3457 9.09822C20.2168 9.22715 20.0419 9.29958 19.8596 9.29958H8.14111C7.95878 9.29958 7.78391 9.22715 7.65498 9.09822C7.52605 8.96929 7.45361 8.79442 7.45361 8.61208C7.45361 8.42975 7.52605 8.25488 7.65498 8.12595C7.78391 7.99702 7.95878 7.92459 8.14111 7.92459H10.2724C10.4902 7.92517 10.7005 7.84469 10.8622 7.69881C11.024 7.55292 11.1257 7.35207 11.1476 7.13533C11.1983 6.62692 11.4365 6.1556 11.8157 5.81321C12.195 5.47082 12.6881 5.28188 13.1991 5.28321H14.8009C15.3119 5.28188 15.805 5.47082 16.1842 5.81321C16.5635 6.1556 16.8017 6.62692 16.8524 7.13533C16.8743 7.35207 16.976 7.55292 17.1378 7.69881C17.2995 7.84469 17.5098 7.92517 17.7276 7.92459H19.8589C20.0412 7.92459 20.2161 7.99702 20.345 8.12595C20.4739 8.25488 20.5464 8.42975 20.5464 8.61208H20.5471ZM12.3411 7.92459H15.6603C15.57 7.71816 15.5109 7.49942 15.485 7.27559C15.468 7.10612 15.3886 6.94901 15.2624 6.8347C15.1361 6.72038 14.9719 6.657 14.8016 6.65684H13.1997C13.0294 6.657 12.8652 6.72038 12.739 6.8347C12.6127 6.94901 12.5334 7.10612 12.5164 7.27559C12.4903 7.49946 12.4316 7.7182 12.3411 7.92459ZM13.0334 18.3409V12.4868C13.0334 12.3045 12.9609 12.1296 12.832 12.0007C12.7031 11.8718 12.5282 11.7993 12.3459 11.7993C12.1635 11.7993 11.9887 11.8718 11.8597 12.0007C11.7308 12.1296 11.6584 12.3045 11.6584 12.4868V18.3436C11.6584 18.526 11.7308 18.7009 11.8597 18.8298C11.9887 18.9587 12.1635 19.0311 12.3459 19.0311C12.5282 19.0311 12.7031 18.9587 12.832 18.8298C12.9609 18.7009 13.0334 18.526 13.0334 18.3436V18.3409ZM16.343 18.3409V12.4868C16.343 12.3045 16.2706 12.1296 16.1416 12.0007C16.0127 11.8718 15.8378 11.7993 15.6555 11.7993C15.4732 11.7993 15.2983 11.8718 15.1694 12.0007C15.0404 12.1296 14.968 12.3045 14.968 12.4868V18.3436C14.968 18.526 15.0404 18.7009 15.1694 18.8298C15.2983 18.9587 15.4732 19.0311 15.6555 19.0311C15.8378 19.0311 16.0127 18.9587 16.1416 18.8298C16.2706 18.7009 16.343 18.526 16.343 18.3436V18.3409Z" fill="#F04B55"/>
</svg>
