<svg width="12" height="17" viewBox="0 0 12 17" fill="none" xmlns="http://www.w3.org/2000/svg">
<path d="M11.125 6.12055L10.875 13.6874C10.8537 14.3355 10.5807 14.9497 10.114 15.3998C9.6472 15.8499 9.02342 16.1004 8.37502 16.0981H3.62502C2.97703 16.1004 2.35361 15.8503 1.88692 15.4007C1.42023 14.9512 1.14695 14.3375 1.12502 13.6899L0.875017 6.12055C0.869547 5.95479 0.930149 5.79365 1.04349 5.67257C1.15683 5.55149 1.31363 5.4804 1.47939 5.47493C1.64515 5.46946 1.8063 5.53006 1.92737 5.6434C2.04845 5.75674 2.11955 5.91354 2.12502 6.0793L2.37502 13.6481C2.38747 13.9712 2.52464 14.2769 2.75772 14.501C2.99081 14.7251 3.30167 14.8502 3.62502 14.8499H8.37502C8.69878 14.8501 9.01 14.7247 9.24315 14.5001C9.47631 14.2754 9.6132 13.9691 9.62502 13.6456L9.87502 6.0793C9.88049 5.91354 9.95158 5.75674 10.0727 5.6434C10.1937 5.53006 10.3549 5.46946 10.5206 5.47493C10.6864 5.4804 10.8432 5.55149 10.9565 5.67257C11.0699 5.79365 11.1305 5.95479 11.125 6.12055ZM11.9519 3.60243C11.9519 3.76819 11.886 3.92716 11.7688 4.04437C11.6516 4.16158 11.4927 4.22743 11.3269 4.22743H0.673767C0.508007 4.22743 0.349035 4.16158 0.231825 4.04437C0.114615 3.92716 0.0487671 3.76819 0.0487671 3.60243C0.0487671 3.43667 0.114615 3.2777 0.231825 3.16049C0.349035 3.04328 0.508007 2.97743 0.673767 2.97743H2.61127C2.8093 2.97796 3.00044 2.9048 3.1475 2.77218C3.29457 2.63955 3.38703 2.45696 3.40689 2.25993C3.45301 1.79773 3.66956 1.36926 4.01433 1.058C4.3591 0.746731 4.8074 0.57497 5.27189 0.576178H6.72814C7.19263 0.57497 7.64094 0.746731 7.98571 1.058C8.33048 1.36926 8.54702 1.79773 8.59314 2.25993C8.61301 2.45696 8.70547 2.63955 8.85253 2.77218C8.99959 2.9048 9.19074 2.97796 9.38877 2.97743H11.3263C11.492 2.97743 11.651 3.04328 11.7682 3.16049C11.8854 3.2777 11.9513 3.43667 11.9513 3.60243H11.9519ZM4.49189 2.97743H7.50939C7.42726 2.78977 7.37355 2.59092 7.35002 2.38743C7.33453 2.23337 7.26242 2.09054 7.14764 1.98662C7.03287 1.8827 6.8836 1.82508 6.72877 1.82493H5.27252C5.11768 1.82508 4.96842 1.8827 4.85364 1.98662C4.73887 2.09054 4.66675 2.23337 4.65127 2.38743C4.62754 2.59095 4.57424 2.7898 4.49189 2.97743ZM5.12127 12.4468V7.12493C5.12127 6.95917 5.05542 6.8002 4.93821 6.68299C4.821 6.56578 4.66203 6.49993 4.49627 6.49993C4.33051 6.49993 4.17154 6.56578 4.05433 6.68299C3.93712 6.8002 3.87127 6.95917 3.87127 7.12493V12.4493C3.87127 12.6151 3.93712 12.774 4.05433 12.8912C4.17154 13.0085 4.33051 13.0743 4.49627 13.0743C4.66203 13.0743 4.821 13.0085 4.93821 12.8912C5.05542 12.774 5.12127 12.6151 5.12127 12.4493V12.4468ZM8.13002 12.4468V7.12493C8.13002 6.95917 8.06417 6.8002 7.94696 6.68299C7.82975 6.56578 7.67078 6.49993 7.50502 6.49993C7.33926 6.49993 7.18029 6.56578 7.06308 6.68299C6.94587 6.8002 6.88002 6.95917 6.88002 7.12493V12.4493C6.88002 12.6151 6.94587 12.774 7.06308 12.8912C7.18029 13.0085 7.33926 13.0743 7.50502 13.0743C7.67078 13.0743 7.82975 13.0085 7.94696 12.8912C8.06417 12.774 8.13002 12.6151 8.13002 12.4493V12.4468Z" fill="#656288"/>
</svg>
