<svg width="20" height="20" viewBox="0 0 20 20" fill="none" xmlns="http://www.w3.org/2000/svg">
<g clip-path="url(#clip0_1120_75200)">
<path d="M10 20C15.5132 20 20 15.5132 20 10C20 4.4868 15.5132 0 10 0C4.4868 0 0 4.4868 0 10C0 15.5132 4.4868 20 10 20ZM10 1.40763C14.7214 1.40763 18.5924 5.24927 18.5924 10C18.5924 14.7507 14.7214 18.5924 10 18.5924C5.27859 18.5924 1.40763 14.7214 1.40763 10C1.40763 5.27859 5.27859 1.40763 10 1.40763Z" fill="#F04B55"/>
<path d="M6.34647 13.647C6.48919 13.7896 6.66044 13.8466 6.8317 13.8466C7.00296 13.8466 7.17422 13.7896 7.31693 13.647L9.99996 10.9664L12.683 13.647C12.8257 13.7896 12.997 13.8466 13.1682 13.8466C13.3395 13.8466 13.5107 13.7896 13.6535 13.647C13.9103 13.3903 13.9103 12.9341 13.6535 12.6774L10.9704 9.99689L13.6535 7.31634C13.9103 7.05969 13.9103 6.60343 13.6535 6.34678C13.3966 6.09013 12.9399 6.09013 12.683 6.34678L9.99996 9.02733L7.31693 6.34678C7.06004 6.09013 6.60336 6.09013 6.34647 6.34678C6.08959 6.60343 6.08959 7.05969 6.34647 7.31634L9.0295 9.99689L6.34647 12.6774C6.08959 12.9341 6.08959 13.3618 6.34647 13.647Z" fill="#F04B55"/>
</g>
<defs>
<clipPath id="clip0_1120_75200">
<rect width="20" height="20" fill="white"/>
</clipPath>
</defs>
</svg>
