<svg width="61" height="61" viewBox="0 0 61 61" fill="none" xmlns="http://www.w3.org/2000/svg">
<circle cx="30.4756" cy="30.4756" r="30.4756" fill="white"/>
<path fill-rule="evenodd" clip-rule="evenodd" d="M19.208 16.936C19.208 15.301 17.8826 13.9756 16.2476 13.9756C14.6126 13.9756 13.2872 15.301 13.2872 16.936L13.2872 22.7158H9.48092C7.84593 22.7158 6.52051 24.0412 6.52051 25.6762C6.52051 27.3112 7.84593 28.6366 9.48092 28.6366H13.2872L13.2872 32.9363V35.4033C13.2872 40.1259 16.022 47.5269 26.9615 47.5269H27.8778V47.5233C29.3305 47.4499 30.4858 46.2488 30.4858 44.7779C30.4858 43.307 29.3305 42.1059 27.8778 42.0325V42.029H27.7482L27.7368 42.029L27.7255 42.029H26.4681C24.0245 42.1465 19.208 40.9294 19.208 35.4033V33.1548L19.208 33.1478V28.6366H23.5781C25.2131 28.6366 26.5386 27.3112 26.5386 25.6762C26.5386 24.0412 25.2131 22.7158 23.5781 22.7158H19.208V16.936ZM29.0761 25.4648C29.0761 23.9938 30.2314 22.7927 31.684 22.7193V22.7158H31.825H37.9573C47.9767 22.7158 49.9489 29.0214 50.1932 33.7059L50.2219 33.7117V34.8394V35.6148V36.7425L50.1932 36.7483C49.9489 41.4328 47.9767 47.7384 37.9573 47.7384H36.1951V47.7347C34.7425 47.6613 33.5872 46.4602 33.5872 44.9893C33.5872 43.5184 34.7425 42.3173 36.1951 42.2439V42.2405H36.3096L36.3361 42.2403L36.3627 42.2405H37.3229C39.7664 42.3579 44.583 41.1409 44.583 35.6148V34.8394C44.583 29.3133 39.7664 28.0962 37.3229 28.2137H31.684V28.2102C30.2314 28.1368 29.0761 26.9357 29.0761 25.4648Z" fill="white"/>
<path fill-rule="evenodd" clip-rule="evenodd" d="M19.208 16.936C19.208 15.301 17.8826 13.9756 16.2476 13.9756C14.6126 13.9756 13.2872 15.301 13.2872 16.936L13.2872 22.7158H9.48092C7.84593 22.7158 6.52051 24.0412 6.52051 25.6762C6.52051 27.3112 7.84593 28.6366 9.48092 28.6366H13.2872L13.2872 32.9363V35.4033C13.2872 40.1259 16.022 47.5269 26.9615 47.5269H27.8778V47.5233C29.3305 47.4499 30.4858 46.2488 30.4858 44.7779C30.4858 43.307 29.3305 42.1059 27.8778 42.0325V42.029H27.7482L27.7368 42.029L27.7255 42.029H26.4681C24.0245 42.1465 19.208 40.9294 19.208 35.4033V33.1548L19.208 33.1478V28.6366H23.5781C25.2131 28.6366 26.5386 27.3112 26.5386 25.6762C26.5386 24.0412 25.2131 22.7158 23.5781 22.7158H19.208V16.936ZM29.0761 25.4648C29.0761 23.9938 30.2314 22.7927 31.684 22.7193V22.7158H31.825H37.9573C47.9767 22.7158 49.9489 29.0214 50.1932 33.7059L50.2219 33.7117V34.8394V35.6148V36.7425L50.1932 36.7483C49.9489 41.4328 47.9767 47.7384 37.9573 47.7384H36.1951V47.7347C34.7425 47.6613 33.5872 46.4602 33.5872 44.9893C33.5872 43.5184 34.7425 42.3173 36.1951 42.2439V42.2405H36.3096L36.3361 42.2403L36.3627 42.2405H37.3229C39.7664 42.3579 44.583 41.1409 44.583 35.6148V34.8394C44.583 29.3133 39.7664 28.0962 37.3229 28.2137H31.684V28.2102C30.2314 28.1368 29.0761 26.9357 29.0761 25.4648Z" fill="url(#paint0_linear_8_2)"/>
<defs>
<linearGradient id="paint0_linear_8_2" x1="8.18005" y1="35.5533" x2="36.6497" y2="43.0144" gradientUnits="userSpaceOnUse">
<stop stop-color="#4BA9E9"/>
<stop offset="1" stop-color="#4D8BF2"/>
</linearGradient>
</defs>
</svg>
