<svg width="71" height="15" viewBox="0 0 71 15" fill="none" xmlns="http://www.w3.org/2000/svg">
<path d="M5.88417 2.64583C6.15427 2.09853 6.93471 2.09852 7.20482 2.64583L8.491 5.25186L11.3669 5.66975C11.9709 5.75751 12.212 6.49976 11.775 6.92576L9.69395 8.95425L10.1852 11.8186C10.2884 12.4201 9.65702 12.8789 9.1168 12.5948L6.54449 11.2425L3.9722 12.5948C3.43198 12.8789 2.8006 12.4201 2.90377 11.8186L3.39504 8.95425L1.314 6.92576C0.876953 6.49976 1.11812 5.75751 1.7221 5.66975L4.59803 5.25186L5.88417 2.64583Z" fill="#EFC73A"/>
<path d="M20.6112 2.64583C20.8813 2.09853 21.6618 2.09852 21.9319 2.64583L23.2181 5.25186L26.094 5.66975C26.6979 5.75751 26.9391 6.49976 26.5021 6.92576L24.421 8.95425L24.9123 11.8186C25.0154 12.4201 24.3841 12.8789 23.8439 12.5948L21.2715 11.2425L18.6992 12.5948C18.159 12.8789 17.5276 12.4201 17.6308 11.8186L18.1221 8.95425L16.041 6.92576C15.604 6.49976 15.8452 5.75751 16.4492 5.66975L19.3251 5.25186L20.6112 2.64583Z" fill="#EFC73A"/>
<path d="M35.3388 2.64583C35.6089 2.09853 36.3893 2.09852 36.6594 2.64583L37.9456 5.25186L40.8215 5.66975C41.4255 5.75751 41.6666 6.49976 41.2296 6.92576L39.1485 8.95425L39.6398 11.8186C39.743 12.4201 39.1116 12.8789 38.5714 12.5948L35.9991 11.2425L33.4268 12.5948C32.8866 12.8789 32.2552 12.4201 32.3584 11.8186L32.8496 8.95425L30.7686 6.92576C30.3315 6.49976 30.5727 5.75751 31.1767 5.66975L34.0526 5.25186L35.3388 2.64583Z" fill="#EFC73A"/>
<path d="M50.0658 2.64583C50.3359 2.09853 51.1164 2.09852 51.3865 2.64583L52.6726 5.25186L55.5486 5.66975C56.1525 5.75751 56.3937 6.49976 55.9567 6.92576L53.8756 8.95425L54.3669 11.8186C54.47 12.4201 53.8387 12.8789 53.2984 12.5948L50.7261 11.2425L48.1538 12.5948C47.6136 12.8789 46.9822 12.4201 47.0854 11.8186L47.5767 8.95425L45.4956 6.92576C45.0586 6.49976 45.2998 5.75751 45.9037 5.66975L48.7797 5.25186L50.0658 2.64583Z" fill="#EFC73A"/>
<g clip-path="url(#clip0_1120_38689)">
<path d="M64.6117 2.6468C64.8818 2.09951 65.6623 2.0995 65.9324 2.6468L67.2185 5.25283L70.0945 5.67073C70.6984 5.75849 70.9396 6.50074 70.5026 6.92674L68.4215 8.95523L68.9128 11.8196C69.0159 12.4211 68.3846 12.8798 67.8443 12.5958L65.272 11.2435L62.6997 12.5958C62.1595 12.8798 61.5281 12.4211 61.6313 11.8196L62.1226 8.95523L60.0415 6.92674C59.6045 6.50074 59.8457 5.75849 60.4496 5.67073L63.3256 5.25283L64.6117 2.6468Z" fill="#EFC73A"/>
<path fill-rule="evenodd" clip-rule="evenodd" d="M65 11.3865L65.272 11.2435L67.8443 12.5958C68.3846 12.8798 69.0159 12.4211 68.9128 11.8196L68.4215 8.95523L70.5026 6.92674C70.9396 6.50074 70.6984 5.75849 70.0945 5.67073L67.2185 5.25283L65.9324 2.6468C65.7497 2.27673 65.3338 2.1569 65 2.28729V11.3865Z" fill="#E8E8FC"/>
</g>
<defs>
<clipPath id="clip0_1120_38689">
<rect width="12" height="13" fill="white" transform="translate(58.9092 1)"/>
</clipPath>
</defs>
</svg>
