<svg width="24" height="24" viewBox="0 0 24 24" fill="none" xmlns="http://www.w3.org/2000/svg">
<path d="M7.5 12.2616V17.1C7.5 20.0775 9.9225 22.5 12.9 22.5C15.8775 22.5 18.3 20.0775 18.3 17.1V13.1427C19.8336 12.8595 21 11.5146 21 9.9C21 8.0805 19.5195 6.6 17.7 6.6C15.8805 6.6 14.4 8.0805 14.4 9.9C14.4 11.5146 15.5664 12.8595 17.1 13.1427V17.1C17.1 19.416 15.216 21.3 12.9 21.3C10.584 21.3 8.7 19.416 8.7 17.1V12.2616C11.2299 11.9631 13.2 9.8088 13.2 7.2V1.5H9.6V2.7H12V7.2C12 9.3504 10.2504 11.1 8.1 11.1C5.9496 11.1 4.2 9.3504 4.2 7.2V2.7H6.6V1.5H3V7.2C3 9.8088 4.9701 11.9631 7.5 12.2616ZM15.6 9.9C15.6 8.742 16.542 7.8 17.7 7.8C18.858 7.8 19.8 8.742 19.8 9.9C19.8 11.058 18.858 12 17.7 12C16.542 12 15.6 11.058 15.6 9.9Z" fill="#687EFF"/>
</svg>
