<svg width="28" height="28" viewBox="0 0 28 28" fill="none" xmlns="http://www.w3.org/2000/svg">
<path d="M14.0007 25.6673C16.3081 25.6673 18.5637 24.9831 20.4823 23.7011C22.4009 22.4192 23.8962 20.5971 24.7792 18.4653C25.6623 16.3335 25.8933 13.9877 25.4431 11.7246C24.993 9.46149 23.8818 7.38269 22.2502 5.75108C20.6186 4.11946 18.5398 3.00832 16.2767 2.55816C14.0136 2.108 11.6678 2.33904 9.53601 3.22206C7.40421 4.10508 5.58212 5.60043 4.30017 7.519C3.01822 9.43758 2.33398 11.6932 2.33398 14.0007C2.33398 17.0948 3.56315 20.0623 5.75107 22.2502C6.83442 23.3336 8.12055 24.1929 9.53601 24.7793C10.9515 25.3656 12.4686 25.6673 14.0007 25.6673ZM9.67582 13.1758C9.7841 13.0674 9.91268 12.9815 10.0542 12.9228C10.1957 12.8641 10.3474 12.8339 10.5007 12.8339C10.6539 12.8339 10.8056 12.8641 10.9471 12.9228C11.0886 12.9815 11.2172 13.0674 11.3255 13.1758L12.834 14.6842L16.6758 10.8425C16.8959 10.63 17.1906 10.5124 17.4965 10.515C17.8023 10.5177 18.095 10.6404 18.3113 10.8567C18.5276 11.073 18.6503 11.3656 18.6529 11.6715C18.6556 11.9774 18.538 12.2721 18.3255 12.4922L13.6588 17.1588C13.5505 17.2672 13.4219 17.3532 13.2804 17.4118C13.1389 17.4705 12.9872 17.5006 12.834 17.5006C12.6808 17.5006 12.5291 17.4705 12.3876 17.4118C12.246 17.3532 12.1174 17.2672 12.0092 17.1588L9.67582 14.8255C9.56744 14.7172 9.48146 14.5886 9.4228 14.4471C9.36414 14.3056 9.33394 14.1539 9.33394 14.0007C9.33394 13.8475 9.36414 13.6957 9.4228 13.5542C9.48146 13.4127 9.56744 13.2841 9.67582 13.1758Z" fill="#04C000"/>
</svg>
