<svg width="21" height="21" viewBox="0 0 21 21" fill="none" xmlns="http://www.w3.org/2000/svg">
<path d="M13.8425 12.1275C12.8492 12.7783 11.6876 13.125 10.5 13.125C9.31251 13.125 8.15082 12.7783 7.15753 12.1275C5.8767 12.7297 4.78182 13.6659 3.98806 14.8376C3.1943 16.0094 2.73101 17.3734 2.6469 18.7863C2.64304 18.8461 2.65154 18.9061 2.67186 18.9626C2.69218 19.019 2.72389 19.0707 2.76503 19.1144C2.8062 19.1576 2.85577 19.1919 2.9107 19.2152C2.96562 19.2385 3.02473 19.2504 3.0844 19.25H17.9375C17.9972 19.2504 18.0563 19.2385 18.1112 19.2152C18.1662 19.1919 18.2157 19.1576 18.2569 19.1144C18.298 19.0707 18.3298 19.019 18.3501 18.9626C18.3704 18.9061 18.3789 18.8461 18.375 18.7863C18.2889 17.3711 17.8223 16.0055 17.0246 14.8335C16.2268 13.6615 15.1274 12.7266 13.8425 12.1275Z" fill="white"/>
<path d="M10.5 12.25C13.3995 12.25 15.75 9.8995 15.75 7C15.75 4.10051 13.3995 1.75 10.5 1.75C7.60051 1.75 5.25 4.10051 5.25 7C5.25 9.8995 7.60051 12.25 10.5 12.25Z" fill="white"/>
</svg>
