<svg width="16" height="11" viewBox="0 0 16 11" fill="none" xmlns="http://www.w3.org/2000/svg">
<path d="M14.8054 2.09491C14.6931 2.02544 14.5654 1.99035 14.437 1.99035C14.3296 1.99035 14.2223 2.01491 14.1233 2.06404L12.3318 2.96013V2.69207C12.3318 1.53143 11.3873 0.586914 10.2267 0.586914H2.50775C1.3471 0.586914 0.402588 1.53143 0.402588 2.69207V8.30584C0.402588 9.46648 1.3471 10.411 2.50775 10.411H10.2267C11.3873 10.411 12.3318 9.46648 12.3318 8.30584V8.03778L14.1233 8.93317C14.2223 8.983 14.3296 9.00756 14.437 9.00756C14.5654 9.00756 14.6931 8.97247 14.8054 8.903C15.0124 8.77459 15.1387 8.54933 15.1387 8.30584V2.69207C15.1387 2.44858 15.0124 2.22333 14.8054 2.09491ZM3.91119 6.55154C3.32946 6.55154 2.85861 6.08068 2.85861 5.49896C2.85861 4.91723 3.32946 4.44638 3.91119 4.44638C4.49291 4.44638 4.96377 4.91723 4.96377 5.49896C4.96377 6.08068 4.49291 6.55154 3.91119 6.55154Z" fill="#5FB75E"/>
</svg>
