<svg width="40" height="40" viewBox="0 0 40 40" fill="none" xmlns="http://www.w3.org/2000/svg">
<rect width="40" height="40" rx="20" fill="#687EFF"/>
<path d="M30.1026 13.1167L25.2105 16.2958V15.3333C25.2105 14.05 24.1684 13 22.8947 13H11.3158C10.0421 13 9 14.05 9 15.3333V24.6667C9 25.95 10.0421 27 11.3158 27H22.8947C24.1684 27 25.2105 25.95 25.2105 24.6667V23.7042L30.1026 26.8833C30.6526 27.175 31 26.6792 31 26.3875V13.5833C31 13.2917 30.6816 12.7667 30.1026 13.1167ZM24.0526 24.6667C24.0526 25.3083 23.5316 25.8333 22.8947 25.8333H11.3158C10.6789 25.8333 10.1579 25.3083 10.1579 24.6667V15.3333C10.1579 14.6917 10.6789 14.1667 11.3158 14.1667H22.8947C23.5316 14.1667 24.0526 14.6917 24.0526 15.3333V24.6667ZM29.8421 25.3375L25.2105 22.3333V17.6667L29.8421 14.6625V25.3375Z" fill="white"/>
</svg>
